{
.appVersion = "3219";
.formatVersion = 3;
DisplayStrings = (
"a) a aah naan abott abduct action admit aeon after again ahoy ajust faker alike logjam an ape aorta aqua arc applejack basketball expatriot autumn gavel awe axe says bedazzle  

b) b bad dribble ribcage cabdriver bed obfuscate hobgoblins bhindi bicycle bjorn liebknecht bliss crabmill snubnose boss subpoena subquality brick absolute debt butter obvious bwana subxhosa by jekabzeel  

c) c cab ecbolic lucca anecdote cedar flicflac marcgravia cheese oscillate acjo chicken cliff acme picnic cobbler pincpinc lacquer crime tropics object cute mechanicville arcticward cx cypriot czech

d) d darling db adcraft nodded deep boldface porridge dharma dime django maidkin coddle adman wednesday done dpt. pdq drink kids burkhardt dunes medvedev dwiggins dx dynamoe adzuki 

 e) e easy treble mechanic educate effort ego meh ein applejack lekker eleven empathy end georges pepe eq inquieries estimate adieu ever ewer expert eye bezier  

f) f famous offbow briefcase halfdressed fey off puffball sgraffito offhand offkey safflower afghan sulfhydryl finally fjord kafka fly fm dwarfness for rafpin fq free elfship left doffs lift fun fv halfway fx iffy ufza 

g) g games bagboy eggcup swingdevil general jugful ghost gift logjam figking glimer ogmane gnosis gonzo bagpipe gq great frogs sgt. guns gv legwork gx gyms zigzag  

h) h hail hægra hunchback ahchoo baghdad there reproachful sahgum brouhha high mahjong archknave ehler rhythm john horn jodhpur earthquake hrumpf baths right hub ahven hwang hx physic mahzor ovoid hawaii bakerij  

i) i india iæ jiblet chicken minnie if iggy hiho sikh will crimp in olio oedipus piquant shirt island italian xiu civil taiwan pixies riyal grizzled  

j) j jam jæger jb abjurer jc jd  djebles jenny jf fjordix gjetost jg jh jiggled fajitas jk jl jm jn joana enjoy basenji jp jq jr alforja outjuts js jt juicing jv jw jinx jy skyjack jz jazz  


glyphs = (
{
color = 3;
glyphname = A;
kernLeft = KO_A;
kernRight = KO_A;
lastChange = "2023-09-28 00:06:44 +0000";
layers = (
{
anchors = (
{
name = bottom;
pos = (638,0);
},
{
name = ogonek;
pos = (1229,10);
},
{
name = top;
pos = (1062,2008);
}
);
layerId = m01;
shapes = (
{
closed = 1;
nodes = (
(118,0,o),
(135,15,o),
(163,70,cs),
(654,1026,l),
(1089,1026,l),
(1155,62,ls),
(1157,31,o),
(1166,0,o),
(1220,0,cs),
(1269,0,o),
(1281,22,o),
(1278,65,cs),
(1126,1965,ls),
(1124,1991,o),
(1110,2008,o),
(1065,2008,cs),
(1010,2008,o),
(1011,1987,o),
(987,1941,cs),
(24,77,ls),
(-3,25,o),
(22,0,o),
(63,0,cs)
);
},
{
closed = 1;
nodes = (
(929,1579,l),
(1037,1840,l),
(1047,1561,l),
(1079,1139,l),
(710,1139,l)
);
}
);
vertWidth = 0;
width = 1466;
},
{
anchors = (
{
name = bottom;
pos = (703,0);
},
{
name = ogonek;
pos = (1228,10);
},
{
name = top;
pos = (1127,2008);
}
);
layerId = m002;
shapes = (
{
closed = 1;
nodes = (
(224,0,o),
(272,26,o),
(310,101,cs),
(737,940,l),
(1081,940,l),
(1148,125,ls),
(1154,49,o),
(1205,0,o),
(1298,0,cs),
(1387,0,o),
(1447,47,o),
(1439,143,cs),
(1291,1862,ls),
(1283,1959,o),
(1213,2008,o),
(1116,2008,cs),
(1015,2008,o),
(951,1962,o),
(921,1904,cs),
(26,185,ls),
(-32,74,o),
(47,0,o),
(141,0,cs)
);
},
{
closed = 1;
nodes = (
(963,1386,l),
(1052,1613,l),
(1043,1384,l),
(1062,1161,l),
(848,1161,l)
);
}
);
vertWidth = 0;
width = 1595;
},
{
associatedMasterId = m01;
layerId = "48DF87F4-C72F-4FC9-8329-4E8255600EC0";
name = background;
shapes = (
{
closed = 1;
nodes = (
(409,743,l),
(413,758,o),
(404,772,o),
(381,772,cs),
(355,772,o),
(354,759,o),
(346,743,cs),
(-21,38,ls),
(-33,14,o),
(-19,0,o),
(-1,0,cs),
(23,0,o),
(29,8,o),
(39,30,cs),
(406,735,l)
);
},
{
closed = 1;
nodes = (
(415,361,l),
(409,416,l),
(208,416,l),
(182,361,l)
);
},
{
closed = 1;
nodes = (
(354,728,l),
(413,29,ls),
(415,17,o),
(418,0,o),
(444,0,c),
(466,0,o),
(473,13,o),
(472,31,cs),
(410,754,l)
);
}
);
vertWidth = 0;
width = 594;
}
);
unicode = 65;
userData = {
KernOnName = A;
};
},
{
color = 3;
glyphname = AE;
kernLeft = KO_AE;
kernRight = KO_AE;
lastChange = "2023-09-26 19:06:23 +0000";
layers = (
{
anchors = (
{
name = bottom;
pos = (968,0);
},
{
name = top;
pos = (1322,2008);
}
);
layerId = m01;
shapes = (
{
closed = 1;
nodes = (
(98,0,o),
(115,15,o),
(143,70,cs),
(634,1026,l),
(1069,1026,l),
(1135,62,ls),
(1137,31,o),
(1146,0,o),
(1200,0,cs),
(1863,0,ls),
(1917,0,o),
(1929,25,o),
(1929,60,cs),
(1929,93,o),
(1917,113,o),
(1863,113,cs),
(1254,113,l),
(1181,1026,l),
(1906,1026,ls),
(1959,1026,o),
(1971,1049,o),
(1971,1081,cs),
(1971,1116,o),
(1959,1139,o),
(1906,1139,cs),
(1172,1139,l),
(1111,1898,l),
(1996,1898,ls),
(2049,1898,o),
(2062,1920,o),
(2062,1953,cs),
(2062,1985,o),
(2049,2008,o),
(1996,2008,cs),
(1045,2008,ls),
(1000,2008,o),
(991,1987,o),
(967,1941,cs),
(4,77,ls),
(-23,25,o),
(2,0,o),
(43,0,cs)
);
},
{
closed = 1;
nodes = (
(909,1579,l),
(1017,1840,l),
(1027,1561,l),
(1059,1139,l),
(690,1139,l)
);
}
);
width = 2116;
},
{
anchors = (
{
name = bottom;
pos = (965,0);
},
{
name = top;
pos = (1319,2008);
}
);
layerId = m002;
shapes = (
{
closed = 1;
nodes = (
(244,0,o),
(292,26,o),
(330,101,cs),
(757,940,l),
(1101,940,l),
(1168,125,ls),
(1174,49,o),
(1225,0,o),
(1318,0,cs),
(1894,0,ls),
(1987,0,o),
(2047,60,o),
(2047,153,cs),
(2047,244,o),
(1998,294,o),
(1899,294,cs),
(1446,294,l),
(1390,940,l),
(1808,940,ls),
(1907,940,o),
(1977,1005,o),
(1977,1083,cs),
(1977,1169,o),
(1917,1223,o),
(1824,1223,cs),
(1366,1223,l),
(1324,1714,l),
(2047,1714,ls),
(2139,1714,o),
(2204,1792,o),
(2204,1873,cs),
(2204,1951,o),
(2149,2008,o),
(2053,2008,cs),
(1136,2008,ls),
(1064,2008,o),
(981,1982,o),
(941,1904,cs),
(46,185,ls),
(-12,74,o),
(67,0,o),
(161,0,cs)
);
},
{
closed = 1;
nodes = (
(983,1386,l),
(1072,1613,l),
(1063,1384,l),
(1082,1161,l),
(868,1161,l)
);
}
);
width = 2229;
}
);
metricRight = E;
unicode = 198;
},
{
color = 3;
glyphname = B;
kernLeft = KO_B;
kernRight = KO_B;
lastChange = "2023-09-28 00:06:44 +0000";
layers = (
{
layerId = m01;
shapes = (
{
closed = 1;
nodes = (
(1498,1848,o),
(1201,2008,o),
(542,2008,cs),
(492,2008,o),
(476,1994,o),
(466,1937,cs),
(139,78,ls),
(132,36,o),
(148,0,o),
(190,0,cs),
(1050,2,o),
(1284,161,o),
(1342,507,cs),
(1391,799,o),
(1223,992,o),
(874,1082,c),
(1284,1126,o),
(1432,1265,o),
(1456,1477,cs)
);
},
{
closed = 1;
nodes = (
(435,1041,l),
(1015,1035,o),
(1267,809,o),
(1221,521,cs),
(1169,192,o),
(827,114,o),
(272,113,c)
);
},
{
closed = 1;
nodes = (
(586,1898,l),
(1070,1895,o),
(1372,1784,o),
(1333,1478,cs),
(1308,1280,o),
(1157,1176,o),
(451,1131,c)
);
}
);
vertWidth = 0;
width = 1438;
},
{
layerId = m002;
shapes = (
{
closed = 1;
nodes = (
(1757,1848,o),
(1403,2008,o),
(609,2008,cs),
(537,2008,o),
(474,1985,o),
(456,1881,cs),
(154,164,ls),
(137,70,o),
(206,0,o),
(287,0,cs),
(1192,0,o),
(1498,83,o),
(1569,553,cs),
(1610,820,o),
(1514,977,o),
(1341,1082,c),
(1630,1175,o),
(1722,1342,o),
(1733,1505,cs)
);
},
{
closed = 1;
nodes = (
(616,996,l),
(1116,988,o),
(1307,876,o),
(1266,607,cs),
(1227,357,o),
(1041,289,o),
(489,279,c)
);
},
{
closed = 1;
nodes = (
(744,1727,l),
(1301,1711,o),
(1395,1615,o),
(1410,1505,cs),
(1421,1422,o),
(1367,1254,o),
(660,1246,c)
);
}
);
vertWidth = 0;
width = 1627;
},
{
associatedMasterId = m01;
layerId = "C390BF64-4B74-44D2-936D-D44319E19B75";
name = background;
shapes = (
{
closed = 1;
nodes = (
(472,361,o),
(539,436,o),
(557,564,cs),
(576,704,o),
(430,772,o),
(175,772,c),
(185,718,l),
(373,718,o),
(512,675,o),
(498,567,cs),
(486,481,o),
(438,416,o),
(133,416,c),
(124,361,l)
);
},
{
closed = 1;
nodes = (
(373,0,o),
(470,42,o),
(488,171,cs),
(508,321,o),
(366,416,o),
(128,416,c),
(120,361,l),
(334,361,o),
(444,284,o),
(430,179,cs),
(416,74,o),
(285,55,o),
(69,55,c),
(39,0,l)
);
},
{
closed = 1;
nodes = (
(204,762,o),
(197,772,o),
(175,772,cs),
(154,772,o),
(145,764,o),
(140,740,cs),
(17,37,ls),
(13,17,o),
(25,0,o),
(45,0,cs),
(62,0,o),
(71,11,o),
(76,34,cs),
(200,735,ls)
);
}
);
vertWidth = 0;
width = 594;
}
);
metricLeft = H;
unicode = 66;
userData = {
KernOnName = B;
};
},
{
color = 3;
glyphname = C;
kernLeft = KO_C;
kernRight = KO_C;
lastChange = "2023-09-28 00:20:08 +0000";
layers = (
{
anchors = (
{
name = bottom;
pos = (595,0);
},
{
name = top;
pos = (949,2008);
}
);
layerId = m01;
shapes = (
{
closed = 1;
nodes = (
(759,-20,o),
(987,132,o),
(1241,509,cs),
(1304,602,o),
(1305,616,o),
(1305,633,cs),
(1305,663,o),
(1284,681,o),
(1253,681,cs),
(1210,681,o),
(1189,658,o),
(1137,581,cs),
(893,234,o),
(710,106,o),
(514,106,cs),
(306,106,o),
(260,304,o),
(260,424,cs),
(260,649,o),
(322,960,o),
(343,1082,cs),
(416,1450,o),
(528,1885,o),
(1274,1885,cs),
(1468,1885,o),
(1482,1887,o),
(1511,1903,cs),
(1538,1918,o),
(1541,1969,o),
(1514,1988,cs),
(1491,2004,o),
(1468,2008,o),
(1276,2008,cs),
(444,2008,o),
(298,1536,o),
(209,1043,cs),
(199,981,o),
(136,626,o),
(136,427,cs),
(136,219,o),
(225,-20,o),
(517,-20,cs)
);
}
);
vertWidth = 0;
width = 1380;
},
{
anchors = (
{
name = bottom;
pos = (672,0);
},
{
name = top;
pos = (1026,2008);
}
);
layerId = m002;
shapes = (
{
closed = 1;
nodes = (
(860,-20,o),
(1151,139,o),
(1398,505,cs),
(1471,615,o),
(1474,641,o),
(1474,669,cs),
(1474,745,o),
(1406,794,o),
(1333,794,cs),
(1260,794,o),
(1221,760,o),
(1154,667,cs),
(933,349,o),
(766,256,o),
(613,256,cs),
(501,256,o),
(433,349,o),
(433,458,cs),
(433,661,o),
(488,952,o),
(506,1059,cs),
(571,1402,o),
(699,1732,o),
(1328,1732,cs),
(1500,1732,o),
(1580,1740,o),
(1622,1763,cs),
(1703,1813,o),
(1710,1925,o),
(1632,1982,c),
(1591,2008,o),
(1505,2008,o),
(1333,2008,cs),
(480,2008,o),
(275,1527,o),
(191,1053,cs),
(178,991,o),
(124,655,o),
(124,460,cs),
(124,247,o),
(243,-20,o),
(595,-20,cs)
);
}
);
vertWidth = 0;
width = 1534;
}
);
unicode = 67;
userData = {
KernOnName = C;
};
},
{
color = 3;
glyphname = D;
kernLeft = KO_E;
kernRight = KO_D;
lastChange = "2023-09-28 00:06:44 +0000";
layers = (
{
anchors = (
{
name = bottom;
pos = (654,0);
},
{
name = center;
pos = (831,1004);
},
{
name = top;
pos = (1008,2008);
}
);
layerId = m01;
shapes = (
{
closed = 1;
nodes = (
(1559,1672,o),
(1217,2008,o),
(651,2008,cs),
(544,2008,ls),
(487,2008,o),
(474,1984,o),
(466,1937,cs),
(136,65,ls),
(129,24,o),
(144,0,o),
(193,0,cs),
(391,0,ls),
(978,0,o),
(1389,384,o),
(1479,1066,cs)
);
},
{
closed = 1;
nodes = (
(584,1881,l),
(661,1881,ls),
(1142,1881,o),
(1414,1589,o),
(1353,1083,cs),
(1279,450,o),
(898,113,o),
(391,113,cs),
(272,113,l)
);
}
);
vertWidth = 0;
width = 1498;
},
{
anchors = (
{
name = bottom;
pos = (765,0);
},
{
name = center;
pos = (942,1004);
},
{
name = top;
pos = (1119,2008);
}
);
layerId = m002;
shapes = (
{
closed = 1;
nodes = (
(1735,1615,o),
(1363,2008,o),
(767,2008,cs),
(612,2008,ls),
(514,2008,o),
(471,1965,o),
(456,1881,cs),
(151,151,ls),
(136,67,o),
(195,0,o),
(289,0,cs),
(530,0,ls),
(1126,0,o),
(1571,398,o),
(1664,1085,cs)
);
},
{
closed = 1;
nodes = (
(741,1732,l),
(783,1732,ls),
(1209,1732,o),
(1415,1462,o),
(1365,1082,cs),
(1293,546,o),
(973,276,o),
(530,276,cs),
(486,276,l)
);
}
);
vertWidth = 0;
width = 1720;
}
);
metricLeft = H;
unicode = 68;
userData = {
KernOnName = D;
};
},
{
color = 3;
glyphname = E;
kernLeft = KO_E;
kernRight = KO_E;
lastChange = "2023-09-28 00:11:30 +0000";
layers = (
{
anchors = (
{
name = bottom;
pos = (662,0);
},
{
name = ogonek;
pos = (1159,10);
},
{
name = top;
pos = (1006,2008);
},
{
name = topleft;
pos = (279,2008);
}
);
layerId = m01;
shapes = (
{
closed = 1;
nodes = (
(129,24,o),
(145,0,o),
(194,0,cs),
(1151,0,ls),
(1205,0,o),
(1217,25,o),
(1217,60,cs),
(1217,93,o),
(1205,113,o),
(1151,113,cs),
(273,113,l),
(434,1026,l),
(1229,1026,ls),
(1282,1026,o),
(1294,1049,o),
(1294,1081,cs),
(1294,1116,o),
(1282,1139,o),
(1229,1139,cs),
(453,1139,l),
(587,1898,l),
(1471,1898,ls),
(1524,1898,o),
(1537,1920,o),
(1537,1953,cs),
(1537,1985,o),
(1524,2008,o),
(1471,2008,cs),
(545,2008,ls),
(486,2008,o),
(474,1984,o),
(466,1937,cs),
(136,66,ls)
);
}
);
vertWidth = 0;
width = 1404;
},
{
anchors = (
{
name = bottom;
pos = (780,0);
},
{
name = ogonek;
pos = (1248,10);
},
{
name = top;
pos = (1124,2008);
},
{
name = topleft;
pos = (279,2008);
}
);
layerId = m002;
shapes = (
{
closed = 1;
nodes = (
(137,68,o),
(172,0,o),
(266,0,cs),
(1308,0,ls),
(1401,0,o),
(1461,60,o),
(1461,153,cs),
(1461,244,o),
(1412,294,o),
(1313,294,cs),
(487,294,l),
(601,940,l),
(1382,940,ls),
(1481,940,o),
(1551,1005,o),
(1551,1083,cs),
(1551,1169,o),
(1491,1223,o),
(1398,1223,cs),
(651,1223,l),
(737,1714,l),
(1614,1714,ls),
(1706,1714,o),
(1771,1792,o),
(1771,1873,cs),
(1771,1951,o),
(1716,2008,o),
(1620,2008,cs),
(620,2008,ls),
(526,2008,o),
(473,1974,o),
(458,1888,cs),
(152,153,ls)
);
}
);
vertWidth = 0;
width = 1649;
},
{
associatedMasterId = m01;
layerId = "7D81A9B3-6763-4C6E-8CF8-C1959E1CDD3E";
name = background;
shapes = (
{
closed = 1;
nodes = (
(203,757,o),
(201,772,o),
(176,772,cs),
(150,772,o),
(144,759,o),
(140,740,c),
(15,32,l),
(12,14,o),
(21,0,o),
(43,0,cs),
(69,0,o),
(74,18,o),
(76,30,c),
(200,735,l)
);
},
{
closed = 1;
nodes = (
(441,0,ls),
(465,0,o),
(472,17,o),
(472,31,cs),
(472,45,o),
(465,59,o),
(441,59,cs),
(53,59,l),
(44,0,l)
);
},
{
closed = 1;
nodes = (
(472,361,ls),
(495,361,o),
(503,374,o),
(503,388,cs),
(503,403,o),
(495,416,o),
(472,416,cs),
(110,416,l),
(101,361,l)
);
},
{
closed = 1;
nodes = (
(569,713,ls),
(593,713,o),
(600,728,o),
(600,743,cs),
(600,757,o),
(593,772,o),
(569,772,cs),
(181,772,l),
(170,713,l)
);
}
);
vertWidth = 0;
width = 594;
},
{
associatedMasterId = m002;
layerId = "BD7EF2B7-F3AE-423E-98C0-14594FE969C3";
name = background;
shapes = (
{
closed = 1;
nodes = (
(25,26,o),
(39,0,o),
(75,0,cs),
(113,0,o),
(146,21,o),
(151,48,cs),
(267,709,ls),
(276,758,o),
(245,772,o),
(211,772,cs),
(175,772,o),
(154,759,o),
(149,726,cs),
(31,59,ls)
);
},
{
closed = 1;
nodes = (
(546,78,o),
(527,95,o),
(489,95,cs),
(100,95,l),
(83,0,l),
(487,0,ls),
(523,0,o),
(546,19,o),
(546,50,cs)
);
},
{
closed = 1;
nodes = (
(573,397,o),
(550,416,o),
(514,416,cs),
(157,416,l),
(138,315,l),
(508,315,ls),
(546,315,o),
(573,337,o),
(573,366,cs)
);
},
{
closed = 1;
nodes = (
(665,750,o),
(644,772,o),
(607,772,cs),
(220,772,l),
(201,659,l),
(605,659,ls),
(640,659,o),
(665,689,o),
(665,720,cs)
);
}
);
vertWidth = 0;
width = 594;
}
);
metricLeft = H;
unicode = 69;
userData = {
KernOnName = E;
};
},
{
color = 3;
glyphname = F;
kernLeft = KO_E;
kernRight = KO_F;
lastChange = "2023-09-28 00:06:44 +0000";
layers = (
{
layerId = m01;
shapes = (
{
closed = 1;
nodes = (
(129,24,o),
(144,0,o),
(194,0,cs),
(250,0,o),
(258,35,o),
(263,65,cs),
(433,1026,l),
(1215,1026,ls),
(1269,1026,o),
(1281,1049,o),
(1281,1081,cs),
(1281,1116,o),
(1269,1139,o),
(1215,1139,cs),
(453,1139,l),
(586,1898,l),
(1437,1898,ls),
(1490,1898,o),
(1502,1920,o),
(1502,1953,cs),
(1502,1985,o),
(1490,2008,o),
(1437,2008,cs),
(545,2008,ls),
(487,2008,o),
(474,1984,o),
(466,1937,cs),
(136,65,ls)
);
}
);
vertWidth = 0;
width = 1315;
},
{
layerId = m002;
shapes = (
{
closed = 1;
nodes = (
(139,83,o),
(164,0,o),
(263,0,cs),
(380,0,o),
(447,65,o),
(463,159,cs),
(600,940,l),
(1360,940,ls),
(1459,940,o),
(1511,1000,o),
(1511,1075,cs),
(1511,1156,o),
(1464,1223,o),
(1365,1223,cs),
(650,1223,l),
(736,1714,l),
(1561,1714,ls),
(1655,1714,o),
(1728,1776,o),
(1728,1868,cs),
(1728,1953,o),
(1673,2008,o),
(1577,2008,cs),
(613,2008,ls),
(517,2008,o),
(472,1972,o),
(457,1886,cs),
(154,166,ls)
);
}
);
vertWidth = 0;
width = 1537;
},
{
associatedMasterId = m01;
layerId = "F9C33966-9A92-4AEC-87C7-153E19327B3B";
name = background;
shapes = (
{
closed = 1;
nodes = (
(203,757,o),
(201,772,o),
(176,772,cs),
(150,772,o),
(144,759,o),
(140,740,cs),
(15,32,ls),
(12,14,o),
(21,0,o),
(43,0,cs),
(69,0,o),
(74,18,o),
(76,30,cs),
(200,735,ls)
);
},
{
closed = 1;
nodes = (
(470,361,ls),
(494,361,o),
(501,374,o),
(501,388,cs),
(501,403,o),
(494,416,o),
(470,416,cs),
(119,416,l),
(110,361,l)
);
},
{
closed = 1;
nodes = (
(569,713,ls),
(593,713,o),
(600,728,o),
(600,743,cs),
(600,757,o),
(593,772,o),
(569,772,cs),
(177,772,l),
(169,713,l)
);
}
);
vertWidth = 0;
width = 594;
}
);
metricLeft = H;
unicode = 70;
userData = {
KernOnName = F;
};
},
{
color = 3;
glyphname = G;
kernLeft = KO_G;
kernRight = KO_G;
lastChange = "2023-09-28 00:06:44 +0000";
layers = (
{
anchors = (
{
name = bottom;
pos = (659,0);
},
{
name = top;
pos = (1013,2008);
}
);
layerId = m01;
shapes = (
{
closed = 1;
nodes = (
(681,-20,o),
(961,412,o),
(1204,792,c),
(1075,66,ls),
(1069,32,o),
(1076,2,o),
(1126,0,cs),
(1187,-3,o),
(1198,37,o),
(1204,71,cs),
(1371,1016,ls),
(1379,1064,o),
(1371,1082,o),
(1329,1082,cs),
(1295,1082,o),
(1281,1078,o),
(1260,1057,cs),
(1226,1022,o),
(1179,950,o),
(1076,795,cs),
(961,621,o),
(639,93,o),
(415,93,cs),
(290,93,o),
(260,273,o),
(260,416,cs),
(260,620,o),
(317,960,o),
(351,1127,cs),
(417,1450,o),
(552,1893,o),
(1294,1893,cs),
(1469,1893,ls),
(1509,1893,o),
(1532,1918,o),
(1532,1953,cs),
(1532,1983,o),
(1511,2008,o),
(1482,2008,cs),
(1300,2008,ls),
(464,2008,o),
(298,1536,o),
(209,1043,cs),
(199,981,o),
(136,626,o),
(136,432,cs),
(136,218,o),
(210,-20,o),
(405,-20,cs)
);
}
);
vertWidth = 0;
width = 1507;
},
{
anchors = (
{
name = bottom;
pos = (711,0);
},
{
name = top;
pos = (1065,2008);
}
);
layerId = m002;
shapes = (
{
closed = 1;
nodes = (
(681,-20,o),
(893,209,o),
(1074,460,c),
(1020,151,ls),
(1003,55,o),
(1065,0,o),
(1171,0,cs),
(1278,0,o),
(1307,55,o),
(1320,130,cs),
(1463,946,ls),
(1480,1042,o),
(1431,1102,o),
(1328,1102,cs),
(1267,1102,o),
(1234,1092,o),
(1186,1037,cs),
(1148,992,o),
(1099,912,o),
(1020,790,cs),
(914,623,o),
(651,256,o),
(495,256,cs),
(446,256,o),
(427,351,o),
(427,479,cs),
(427,661,o),
(482,939,o),
(511,1095,cs),
(563,1392,o),
(682,1732,o),
(1312,1732,cs),
(1476,1732,ls),
(1561,1732,o),
(1624,1797,o),
(1624,1875,cs),
(1624,1951,o),
(1564,2008,o),
(1486,2008,cs),
(1317,2008,ls),
(464,2008,o),
(274,1527,o),
(191,1053,cs),
(178,991,o),
(123,655,o),
(123,466,cs),
(123,244,o),
(199,-20,o),
(456,-20,cs)
);
}
);
vertWidth = 0;
width = 1612;
}
);
metricRight = H;
unicode = 71;
userData = {
KernOnName = G;
};
},
{
color = 3;
glyphname = H;
kernLeft = KO_H;
kernRight = KO_H;
lastChange = "2023-09-28 00:06:44 +0000";
layers = (
{
layerId = m01;
shapes = (
{
closed = 1;
nodes = (
(250,0,o),
(259,35,o),
(264,65,cs),
(433,1026,l),
(1341,1026,l),
(1172,65,ls),
(1166,32,o),
(1174,0,o),
(1231,0,cs),
(1281,0,o),
(1294,28,o),
(1299,56,cs),
(1631,1937,ls),
(1639,1985,o),
(1627,2008,o),
(1574,2008,cs),
(1528,2008,o),
(1510,1982,o),
(1505,1952,cs),
(1361,1139,l),
(453,1139,l),
(592,1929,ls),
(601,1982,o),
(586,2008,o),
(544,2008,cs),
(492,2008,o),
(474,1983,o),
(466,1937,cs),
(136,65,ls),
(129,24,o),
(144,0,o),
(193,0,cs)
);
}
);
vertWidth = 0;
width = 1605;
},
{
layerId = m002;
shapes = (
{
closed = 1;
nodes = (
(404,0,o),
(453,62,o),
(464,125,cs),
(590,848,l),
(1310,848,l),
(1189,151,ls),
(1174,62,o),
(1226,0,o),
(1327,0,cs),
(1418,0,o),
(1483,52,o),
(1494,114,cs),
(1798,1852,ls),
(1816,1951,o),
(1751,2008,o),
(1655,2008,cs),
(1569,2008,o),
(1504,1961,o),
(1491,1894,cs),
(1358,1124,l),
(638,1124,l),
(763,1844,ls),
(781,1953,o),
(726,2008,o),
(635,2008,cs),
(552,2008,o),
(471,1969,o),
(456,1881,cs),
(154,151,ls),
(138,65,o),
(201,0,o),
(300,0,cs)
);
}
);
vertWidth = 0;
width = 1789;
}
);
unicode = 72;
userData = {
KernOnName = H;
};
},
{
color = 3;
glyphname = Hbar;
kernRight = KO_Hbar;
lastChange = "2023-09-26 03:49:40 +0000";
layers = (
{
background = {
shapes = (
{
closed = 1;
nodes = (
(267,0,o),
(276,35,o),
(281,65,cs),
(450,1026,l),
(1358,1026,l),
(1189,65,ls),
(1183,32,o),
(1191,0,o),
(1248,0,cs),
(1298,0,o),
(1311,28,o),
(1316,56,cs),
(1648,1937,ls),
(1656,1985,o),
(1644,2008,o),
(1591,2008,cs),
(1545,2008,o),
(1527,1982,o),
(1522,1952,cs),
(1378,1139,l),
(470,1139,l),
(609,1929,ls),
(618,1982,o),
(603,2008,o),
(561,2008,cs),
(509,2008,o),
(491,1983,o),
(483,1937,cs),
(153,65,ls),
(146,24,o),
(161,0,o),
(210,0,cs)
);
}
);
};
layerId = m01;
shapes = (
{
closed = 1;
nodes = (
(267,0,o),
(276,35,o),
(281,65,cs),
(397,723,l),
(1305,723,l),
(1189,65,ls),
(1183,32,o),
(1191,0,o),
(1248,0,cs),
(1298,0,o),
(1311,28,o),
(1316,56,cs),
(1648,1937,ls),
(1656,1985,o),
(1644,2008,o),
(1591,2008,cs),
(1545,2008,o),
(1527,1982,o),
(1522,1952,cs),
(1325,836,l),
(417,836,l),
(609,1929,ls),
(618,1982,o),
(603,2008,o),
(561,2008,cs),
(509,2008,o),
(491,1983,o),
(483,1937,cs),
(153,65,ls),
(146,24,o),
(161,0,o),
(210,0,cs)
);
},
{
closed = 1;
nodes = (
(1777,1310,o),
(1798,1339,o),
(1798,1373,cs),
(1798,1402,o),
(1777,1433,o),
(1727,1433,cs),
(255,1433,ls),
(204,1433,o),
(187,1398,o),
(187,1365,cs),
(187,1335,o),
(208,1310,o),
(255,1310,cs),
(1727,1310,ls)
);
}
);
width = 1692;
},
{
layerId = m002;
shapes = (
{
closed = 1;
nodes = (
(433,0,o),
(482,62,o),
(493,125,cs),
(574,596,l),
(1294,596,l),
(1218,151,ls),
(1203,63,o),
(1255,0,o),
(1356,0,cs),
(1447,0,o),
(1512,52,o),
(1523,114,cs),
(1827,1852,ls),
(1845,1951,o),
(1780,2008,o),
(1684,2008,cs),
(1598,2008,o),
(1532,1961,o),
(1520,1894,cs),
(1342,872,l),
(622,872,l),
(792,1844,ls),
(811,1953,o),
(755,2008,o),
(664,2008,cs),
(581,2008,o),
(500,1969,o),
(485,1881,cs),
(183,151,ls),
(167,65,o),
(230,0,o),
(329,0,cs)
);
},
{
closed = 1;
nodes = (
(1897,1221,o),
(1962,1284,o),
(1976,1359,cs),
(1990,1434,o),
(1911,1494,o),
(1845,1494,cs),
(304,1494,ls),
(242,1494,o),
(191,1427,o),
(183,1346,cs),
(176,1276,o),
(241,1221,o),
(290,1221,cs),
(1831,1221,ls)
);
}
);
width = 1872;
}
);
metricLeft = T;
metricRight = T;
unicode = 294;
},
{
color = 3;
glyphname = I;
kernLeft = KO_I;
kernRight = KO_I;
lastChange = "2023-09-28 00:06:44 +0000";
layers = (
{
anchors = (
{
name = bottom;
pos = (307,0);
},
{
name = ogonek;
pos = (346,0);
},
{
name = top;
pos = (661,2008);
},
{
name = topleft;
pos = (284,2008);
}
);
layerId = m01;
shapes = (
{
closed = 1;
nodes = (
(111,23,o),
(125,0,o),
(177,0,cs),
(457,0,ls),
(510,0,o),
(522,23,o),
(522,55,cs),
(522,90,o),
(510,113,o),
(457,113,cs),
(390,113,l),
(705,1898,l),
(792,1898,ls),
(845,1898,o),
(857,1923,o),
(857,1955,cs),
(857,1988,o),
(845,2008,o),
(792,2008,cs),
(511,2008,ls),
(458,2008,o),
(446,1988,o),
(446,1955,cs),
(446,1923,o),
(458,1898,o),
(511,1898,cs),
(579,1898,l),
(263,113,l),
(177,113,ls),
(125,113,o),
(111,90,o),
(111,55,cs)
);
}
);
vertWidth = 0;
width = 804;
},
{
anchors = (
{
name = bottom;
pos = (359,0);
},
{
name = ogonek;
pos = (382,10);
},
{
name = top;
pos = (713,2008);
},
{
name = topleft;
pos = (279,2008);
}
);
layerId = m002;
shapes = (
{
closed = 1;
nodes = (
(83,47,o),
(132,0,o),
(207,0,cs),
(515,0,ls),
(616,0,o),
(650,47,o),
(663,120,cs),
(676,195,o),
(634,242,o),
(559,242,cs),
(555,242,l),
(816,1761,l),
(821,1761,ls),
(920,1761,o),
(962,1818,o),
(975,1891,cs),
(988,1966,o),
(936,2008,o),
(863,2008,cs),
(559,2008,ls),
(463,2008,o),
(419,1966,o),
(408,1891,cs),
(396,1823,o),
(438,1762,o),
(501,1762,cs),
(505,1762,l),
(243,242,l),
(241,242,ls),
(149,242,o),
(106,192,o),
(96,120,cs)
);
}
);
vertWidth = 0;
width = 907;
}
);
unicode = 73;
userData = {
KernOnName = I;
};
},
{
color = 3;
glyphname = J;
kernLeft = KO_J;
kernRight = KO_J;
lastChange = "2023-09-28 00:19:03 +0000";
layers = (
{
layerId = m01;
shapes = (
{
closed = 1;
nodes = (
(-84,22,o),
(-55,0,o),
(-24,0,cs),
(72,0,o),
(248,3,o),
(304,10,cs),
(643,51,o),
(762,265,o),
(856,796,cs),
(1051,1898,l),
(1403,1898,ls),
(1457,1898,o),
(1469,1920,o),
(1469,1953,cs),
(1469,1985,o),
(1457,2008,o),
(1403,2008,cs),
(587,2008,ls),
(535,2008,o),
(521,1985,o),
(521,1953,cs),
(521,1920,o),
(535,1898,o),
(587,1898,cs),
(923,1898,l),
(735,835,ls),
(660,411,o),
(586,150,o),
(297,121,cs),
(216,113,o),
(52,113,o),
(-24,113,cs),
(-55,113,o),
(-84,94,o),
(-84,60,cs)
);
}
);
vertWidth = 0;
width = 1222;
},
{
layerId = m002;
shapes = (
{
closed = 1;
nodes = (
(-69,55,o),
(9,0,o),
(84,0,cs),
(175,0,o),
(409,5,o),
(466,13,cs),
(867,60,o),
(1004,380,o),
(1097,908,cs),
(1239,1714,l),
(1559,1714,ls),
(1658,1714,o),
(1715,1779,o),
(1715,1860,cs),
(1715,1946,o),
(1655,2008,o),
(1564,2008,cs),
(672,2008,ls),
(578,2008,o),
(518,1943,o),
(518,1860,cs),
(518,1774,o),
(578,1714,o),
(669,1714,cs),
(926,1714,l),
(790,947,ls),
(707,476,o),
(623,312,o),
(459,294,cs),
(386,284,o),
(147,278,o),
(84,278,cs),
(9,278,o),
(-69,218,o),
(-69,138,cs)
);
}
);
vertWidth = 0;
width = 1485;
},
{
associatedMasterId = m01;
layerId = "06052F2C-BE0F-40BC-8081-A274CED33EF8";
name = background;
shapes = (
{
closed = 1;
nodes = (
(444,738,l),
(377,358,ls),
(362,276,o),
(352,191,o),
(317,134,cs),
(296,97,o),
(265,70,o),
(216,64,cs),
(184,61,o),
(74,55,o),
(45,55,cs),
(31,55,o),
(15,45,o),
(15,29,cs),
(15,11,o),
(31,0,o),
(45,0,cs),
(82,0,o),
(189,6,o),
(211,8,cs),
(295,19,o),
(339,55,o),
(368,102,cs),
(409,166,o),
(418,251,o),
(436,352,cs),
(505,738,l)
);
},
{
closed = 1;
nodes = (
(680,713,o),
(687,728,o),
(687,743,cs),
(687,757,o),
(680,772,o),
(656,772,cs),
(295,772,ls),
(271,772,o),
(264,757,o),
(264,743,cs),
(264,728,o),
(271,713,o),
(295,713,cs),
(656,713,ls)
);
}
);
vertWidth = 0;
width = 594;
},
{
associatedMasterId = m002;
layerId = "F37B6A25-0192-483E-B22B-1CA87C39BAD9";
name = background;
shapes = (
{
closed = 1;
nodes = (
(-88,21,o),
(-58,0,o),
(-30,0,cs),
(6,0,o),
(96,2,o),
(118,5,cs),
(208,17,o),
(257,57,o),
(287,105,cs),
(328,172,o),
(345,255,o),
(361,349,cs),
(424,709,l),
(303,709,l),
(244,364,ls),
(230,286,o),
(217,211,o),
(188,163,cs),
(170,132,o),
(152,118,o),
(115,113,cs),
(87,109,o),
(-5,107,o),
(-30,107,cs),
(-58,107,o),
(-88,84,o),
(-88,53,cs)
);
},
{
closed = 1;
nodes = (
(138,682,o),
(160,659,o),
(196,659,cs),
(538,659,ls),
(576,659,o),
(598,684,o),
(598,715,cs),
(598,748,o),
(575,772,o),
(539,772,cs),
(197,772,ls),
(160,772,o),
(138,747,o),
(138,715,cs)
);
}
);
vertWidth = 0;
width = 594;
}
);
unicode = 74;
userData = {
KernOnName = J;
};
},
{
color = 3;
glyphname = K;
kernLeft = KO_B;
kernRight = KO_K;
lastChange = "2023-09-28 00:06:44 +0000";
layers = (
{
anchors = (
{
name = bottom;
pos = (597,0);
},
{
name = top;
pos = (951,2008);
}
);
layerId = m01;
shapes = (
{
closed = 1;
nodes = (
(1549,1983,o),
(1534,2008,o),
(1499,2008,cs),
(1471,2008,o),
(1442,1991,o),
(1413,1965,cs),
(588,1218,l),
(446,1094,l),
(593,1929,ls),
(602,1983,o),
(593,2008,o),
(545,2008,cs),
(491,2008,o),
(474,1983,o),
(466,1937,cs),
(139,81,ls),
(132,39,o),
(149,0,o),
(194,0,cs),
(248,0,o),
(261,43,o),
(268,83,cs),
(444,1081,l),
(571,919,l),
(1162,53,ls),
(1183,23,o),
(1205,0,o),
(1241,0,cs),
(1265,0,o),
(1288,13,o),
(1296,41,cs),
(1301,60,o),
(1297,79,o),
(1278,107,cs),
(610,1082,l),
(1492,1878,ls),
(1526,1908,o),
(1549,1932,o),
(1549,1955,cs)
);
}
);
vertWidth = 0;
width = 1444;
},
{
anchors = (
{
name = bottom;
pos = (700,0);
},
{
name = top;
pos = (1054,2008);
}
);
layerId = m002;
shapes = (
{
closed = 1;
nodes = (
(1730,1938,o),
(1684,2008,o),
(1595,2008,cs),
(1546,2008,o),
(1482,1992,o),
(1434,1951,cs),
(783,1403,l),
(657,1263,l),
(760,1844,ls),
(782,1966,o),
(701,2008,o),
(625,2008,cs),
(544,2008,o),
(472,1969,o),
(456,1881,cs),
(154,166,ls),
(138,75,o),
(204,0,o),
(302,0,cs),
(399,0,o),
(446,60,o),
(460,138,cs),
(600,937,l),
(657,850,l),
(1184,78,ls),
(1218,29,o),
(1275,0,o),
(1335,0,cs),
(1397,0,o),
(1468,31,o),
(1481,96,cs),
(1488,135,o),
(1485,185,o),
(1455,229,cs),
(870,1082,l),
(1644,1737,ls),
(1687,1773,o),
(1715,1821,o),
(1720,1868,cs)
);
}
);
vertWidth = 0;
width = 1589;
},
{
associatedMasterId = m01;
layerId = "E010F034-4598-4FE9-A40B-8BF5FC7CFE65";
name = background;
shapes = (
{
closed = 1;
nodes = (
(579,712,ls),
(593,723,o),
(599,735,o),
(601,746,cs),
(602,760,o),
(593,772,o),
(577,772,cs),
(568,773,o),
(555,769,o),
(541,757,cs),
(140,428,l),
(140,413,l),
(209,407,l)
);
},
{
closed = 1;
nodes = (
(140,423,l),
(141,410,l),
(411,23,ls),
(419,11,o),
(430,0,o),
(446,0,cs),
(457,0,o),
(469,7,o),
(473,20,cs),
(475,29,o),
(473,38,o),
(465,50,cs),
(207,421,l)
);
},
{
closed = 1;
nodes = (
(204,757,o),
(200,772,o),
(177,772,cs),
(153,772,o),
(145,759,o),
(141,740,cs),
(17,38,ls),
(13,20,o),
(23,0,o),
(44,0,cs),
(69,0,o),
(75,21,o),
(77,37,cs),
(201,735,ls)
);
}
);
vertWidth = 0;
width = 594;
}
);
metricLeft = H;
unicode = 75;
userData = {
KernOnName = K;
};
},
{
color = 3;
glyphname = L;
kernLeft = KO_E;
kernRight = KO_L;
lastChange = "2023-09-28 00:06:44 +0000";
layers = (
{
anchors = (
{
name = bottom;
pos = (536,0);
},
{
name = center;
pos = (713,1004);
},
{
name = top;
pos = (545,2008);
},
{
name = topright;
pos = (1188,2008);
}
);
layerId = m01;
shapes = (
{
closed = 1;
nodes = (
(129,24,o),
(144,0,o),
(194,0,cs),
(1112,0,ls),
(1158,0,o),
(1175,26,o),
(1175,60,cs),
(1175,92,o),
(1159,113,o),
(1112,113,cs),
(272,113,l),
(592,1930,ls),
(601,1983,o),
(595,2008,o),
(545,2008,cs),
(490,2008,o),
(474,1983,o),
(466,1937,cs),
(136,65,ls)
);
}
);
vertWidth = 0;
width = 1261;
},
{
anchors = (
{
name = bottom;
pos = (679,0);
},
{
name = center;
pos = (856,1004);
},
{
name = top;
pos = (633,2008);
},
{
name = topright;
pos = (1376,2008);
}
);
layerId = m002;
shapes = (
{
closed = 1;
nodes = (
(136,65,o),
(190,0,o),
(283,0,cs),
(1282,0,ls),
(1376,0,o),
(1436,68,o),
(1436,143,cs),
(1436,216,o),
(1376,278,o),
(1282,278,cs),
(488,278,l),
(763,1844,ls),
(786,1974,o),
(711,2008,o),
(633,2008,cs),
(544,2008,o),
(472,1969,o),
(456,1881,cs),
(151,151,ls)
);
}
);
vertWidth = 0;
width = 1548;
}
);
metricLeft = H;
unicode = 76;
userData = {
KernOnName = L;
};
},
{
color = 3;
glyphname = M;
kernLeft = KO_M;
kernRight = KO_M;
lastChange = "2023-09-28 00:06:44 +0000";
layers = (
{
layerId = m01;
shapes = (
{
closed = 1;
nodes = (
(73,0,o),
(103,18,o),
(129,70,cs),
(897,1597,l),
(983,1814,l),
(983,1579,l),
(1075,95,ls),
(1079,31,o),
(1088,0,o),
(1143,0,cs),
(1197,0,o),
(1218,43,o),
(1242,91,cs),
(2004,1619,l),
(2094,1800,l),
(2101,1592,l),
(2180,72,ls),
(2182,32,o),
(2195,0,o),
(2249,0,cs),
(2291,0,o),
(2309,24,o),
(2306,78,cs),
(2196,1936,ls),
(2193,1985,o),
(2189,2008,o),
(2112,2008,cs),
(2077,2008,o),
(2060,1970,o),
(2042,1935,cs),
(1295,454,l),
(1175,171,l),
(1168,475,l),
(1075,1949,ls),
(1073,1984,o),
(1059,2008,o),
(1012,2008,cs),
(967,2008,o),
(958,1982,o),
(937,1941,cs),
(9,95,ls),
(-8,62,o),
(-10,38,o),
(-1,24,cs),
(8,10,o),
(24,0,o),
(43,0,cs)
);
}
);
vertWidth = 0;
width = 2472;
},
{
layerId = m002;
shapes = (
{
closed = 1;
nodes = (
(214,0,o),
(300,29,o),
(339,101,cs),
(906,1212,l),
(986,1387,l),
(989,1215,l),
(1080,153,ls),
(1088,55,o),
(1140,0,o),
(1236,0,cs),
(1358,0,o),
(1392,60,o),
(1426,127,cs),
(1972,1212,l),
(2065,1429,l),
(2073,1204,l),
(2164,143,ls),
(2170,60,o),
(2224,0,o),
(2321,0,cs),
(2412,0,o),
(2469,62,o),
(2461,161,cs),
(2321,1873,ls),
(2315,1961,o),
(2297,2008,o),
(2191,2008,cs),
(2097,2008,o),
(2042,1972,o),
(2006,1904,cs),
(1444,838,l),
(1335,580,l),
(1319,856,l),
(1236,1873,ls),
(1231,1961,o),
(1202,2008,o),
(1080,2008,cs),
(991,2008,o),
(965,1972,o),
(932,1907,cs),
(50,226,ls),
(9,147,o),
(13,104,o),
(34,65,cs),
(55,26,o),
(112,0,o),
(159,0,cs)
);
}
);
vertWidth = 0;
width = 2625;
},
{
associatedMasterId = m01;
layerId = "821342D0-DD98-4007-9C88-2E342CE68D40";
name = background;
shapes = (
{
closed = 1;
nodes = (
(381,772,l),
(360,772,o),
(353,759,o),
(345,743,cs),
(-19,45,ls),
(-26,31,o),
(-26,19,o),
(-21,12,cs),
(-17,5,o),
(-8,0,o),
(1,0,cs),
(14,0,o),
(29,8,o),
(40,30,cs),
(392,704,l)
);
},
{
closed = 1;
nodes = (
(411,750,ls),
(410,759,o),
(402,772,o),
(380,772,c),
(356,694,l),
(410,29,ls),
(411,17,o),
(416,0,o),
(444,0,c),
(466,72,l)
);
},
{
closed = 1;
nodes = (
(466,0,o),
(475,20,o),
(480,29,cs),
(828,696,l),
(816,772,l),
(798,772,o),
(791,754,o),
(784,741,cs),
(436,72,l),
(442,0,l)
);
},
{
closed = 1;
nodes = (
(853,758,o),
(849,772,o),
(815,772,c),
(796,722,l),
(853,29,ls),
(854,17,o),
(860,0,o),
(885,0,c),
(904,0,o),
(914,13,o),
(912,31,cs),
(854,739,ls)
);
}
);
vertWidth = 0;
width = 594;
}
);
unicode = 77;
userData = {
KernOnName = M;
};
},
{
color = 3;
glyphname = N;
kernLeft = KO_N;
kernRight = KO_H;
lastChange = "2023-09-26 01:46:37 +0000";
layers = (
{
anchors = (
{
name = bottom;
pos = (708,0);
},
{
name = top;
pos = (1062,2008);
}
);
layerId = m01;
shapes = (
{
closed = 1;
nodes = (
(1179,19,o),
(1200,0,o),
(1239,0,cs),
(1291,0,o),
(1297,35,o),
(1302,66,cs),
(1631,1931,ls),
(1640,1984,o),
(1633,2009,o),
(1585,2009,cs),
(1531,2009,o),
(1517,1985,o),
(1509,1938,cs),
(1246,443,l),
(1211,245,l),
(1152,441,l),
(621,1957,ls),
(612,1982,o),
(591,2009,o),
(544,2009,cs),
(486,2009,o),
(474,1985,o),
(466,1938,cs),
(136,65,ls),
(129,24,o),
(144,0,o),
(193,0,cs),
(249,0,o),
(258,37,o),
(264,73,cs),
(534,1612,l),
(562,1793,l),
(613,1617,l),
(1170,45,ls)
);
}
);
vertWidth = 0;
width = 1606;
},
{
anchors = (
{
name = bottom;
pos = (785,0);
},
{
name = top;
pos = (1139,2008);
}
);
layerId = m002;
shapes = (
{
closed = 1;
nodes = (
(1194,32,o),
(1242,0,o),
(1323,0,cs),
(1411,0,o),
(1450,44,o),
(1466,125,cs),
(1767,1844,ls),
(1786,1943,o),
(1736,2018,o),
(1635,2018,cs),
(1549,2018,o),
(1476,1969,o),
(1460,1881,cs),
(1276,825,l),
(1250,657,l),
(1192,822,l),
(748,1917,ls),
(722,1982,o),
(664,2008,o),
(602,2008,cs),
(524,2008,o),
(472,1966,o),
(456,1881,cs),
(155,151,ls),
(139,65,o),
(199,0,o),
(287,0,cs),
(389,0,o),
(451,60,o),
(464,130,cs),
(649,1183,l),
(671,1333,l),
(727,1181,l),
(1172,86,ls)
);
}
);
vertWidth = 0;
width = 1759;
}
);
metricLeft = H;
metricRight = H;
unicode = 78;
},
{
color = 3;
glyphname = Eng;
kernLeft = KO_H;
kernRight = KO_Eng;
lastChange = "2023-09-26 07:31:16 +0000";
layers = (
{
background = {
shapes = (
{
closed = 1;
nodes = (
(250,0,o),
(259,35,o),
(264,65,c),
(592,1929,l),
(601,1982,o),
(586,2008,o),
(544,2008,cs),
(492,2008,o),
(474,1983,o),
(466,1937,cs),
(136,65,ls),
(129,24,o),
(144,0,o),
(193,0,cs)
);
}
);
};
layerId = m01;
shapes = (
{
closed = 1;
nodes = (
(250,0,o),
(259,35,o),
(264,65,c),
(592,1929,l),
(601,1982,o),
(586,2008,o),
(544,2008,cs),
(492,2008,o),
(474,1983,o),
(466,1937,cs),
(136,65,ls),
(129,24,o),
(144,0,o),
(193,0,cs)
);
},
{
closed = 1;
nodes = (
(577,-591,o),
(650,-588,o),
(753,-573,cs),
(915,-550,o),
(1030,-448,o),
(1106,-328,cs),
(1209,-165,o),
(1237,-74,o),
(1286,183,cs),
(1573,1679,ls),
(1606,1853,o),
(1505,2027,o),
(1283,2027,cs),
(953,2027,o),
(717,1685,o),
(488,1311,c),
(329,1026,l),
(318,963,o),
(298,940,o),
(353,932,cs),
(390,928,o),
(399,934,o),
(415,960,cs),
(627,1314,o),
(939,1904,o),
(1260,1904,cs),
(1379,1904,o),
(1464,1795,o),
(1438,1659,cs),
(1154,179,ls),
(1115,-26,o),
(1092,-110,o),
(1005,-258,cs),
(948,-352,o),
(861,-435,o),
(708,-454,cs),
(642,-462,o),
(580,-467,o),
(523,-467,cs),
(448,-467,o),
(416,-498,o),
(416,-536,cs),
(416,-574,o),
(449,-591,o),
(520,-591,cs)
);
}
);
width = 1592;
},
{
layerId = m002;
shapes = (
{
closed = 1;
nodes = (
(404,0,o),
(453,62,o),
(464,125,c),
(763,1844,l),
(781,1953,o),
(726,2008,o),
(635,2008,cs),
(552,2008,o),
(471,1969,o),
(456,1881,cs),
(154,151,ls),
(138,65,o),
(201,0,o),
(300,0,cs)
);
},
{
closed = 1;
nodes = (
(673,-662,o),
(788,-662,o),
(887,-646,cs),
(1066,-618,o),
(1221,-527,o),
(1302,-399,cs),
(1411,-225,o),
(1404,-115,o),
(1445,125,cs),
(1683,1518,ls),
(1719,1727,o),
(1652,1933,o),
(1340,1933,cs),
(1148,1933,o),
(835,1753,o),
(635,1302,c),
(467,1049,l),
(454,976,o),
(263,591,o),
(367,591,cs),
(481,591,o),
(521,645,o),
(552,715,c),
(638,963,o),
(1034,1691,o),
(1317,1691,cs),
(1410,1691,o),
(1403,1628,o),
(1390,1546,cs),
(1162,151,ls),
(1129,-51,o),
(1118,-174,o),
(1052,-246,cs),
(990,-314,o),
(934,-363,o),
(819,-378,cs),
(759,-384,o),
(671,-381,o),
(619,-381,cs),
(504,-381,o),
(426,-449,o),
(426,-529,cs),
(426,-607,o),
(494,-662,o),
(613,-662,cs)
);
}
);
width = 1744;
}
);
metricLeft = H;
metricRight = H;
unicode = 330;
},
{
color = 3;
glyphname = O;
kernLeft = KO_O;
kernRight = KO_O;
lastChange = "2023-09-28 00:06:44 +0000";
layers = (
{
anchors = (
{
name = bottom;
pos = (632,0);
},
{
name = center;
pos = (809,1004);
},
{
name = ogonek;
pos = (1194,10);
},
{
name = top;
pos = (986,2008);
},
{
name = topleft;
pos = (305,2008);
},
{
name = topright;
pos = (1667,2008);
}
);
layerId = m01;
shapes = (
{
closed = 1;
nodes = (
(1006,-19,o),
(1424,761,o),
(1476,1359,cs),
(1507,1709,o),
(1374,2008,o),
(944,2008,cs),
(580,2008,o),
(363,1733,o),
(249,1263,cs),
(91,613,o),
(195,-19,o),
(528,-19,cs)
);
},
{
closed = 1;
nodes = (
(465,1647,o),
(625,1890,o),
(934,1890,cs),
(1297,1890,o),
(1376,1650,o),
(1352,1336,cs),
(1311,821,o),
(893,94,o),
(539,94,cs),
(305,94,o),
(250,686,o),
(368,1212,cs)
);
}
);
vertWidth = 0;
width = 1454;
},
{
anchors = (
{
name = bottom;
pos = (715,0);
},
{
name = center;
pos = (892,1004);
},
{
name = ogonek;
pos = (1376,10);
},
{
name = top;
pos = (1069,2008);
},
{
name = topleft;
pos = (264,2008);
},
{
name = topright;
pos = (1874,2008);
}
);
layerId = m002;
shapes = (
{
closed = 1;
nodes = (
(1061,-20,o),
(1558,757,o),
(1617,1308,cs),
(1654,1675,o),
(1454,2008,o),
(1006,2008,cs),
(580,2008,o),
(387,1706,o),
(268,1248,cs),
(109,635,o),
(190,-20,o),
(593,-20,cs)
);
},
{
closed = 1;
nodes = (
(645,1540,o),
(731,1730,o),
(998,1730,cs),
(1311,1730,o),
(1321,1477,o),
(1305,1301,cs),
(1259,851,o),
(814,258,o),
(600,258,cs),
(470,258,o),
(494,806,o),
(564,1150,cs)
);
}
);
vertWidth = 0;
width = 1620;
},
{
associatedMasterId = m01;
layerId = "7307B018-DEB8-4492-83DD-A560B2CDD96E";
name = background;
shapes = (
{
closed = 1;
nodes = (
(352,-5,o),
(530,304,o),
(558,520,cs),
(576,655,o),
(539,772,o),
(371,772,cs),
(225,772,o),
(147,662,o),
(97,486,cs),
(84,438,o),
(74,383,o),
(69,330,cs),
(55,170,o),
(69,-5,o),
(179,-5,cs)
);
},
{
closed = 1;
nodes = (
(115,50,o),
(119,211,o),
(127,318,cs),
(132,368,o),
(144,422,o),
(154,461,cs),
(200,625,o),
(249,718,o),
(365,718,cs),
(523,718,o),
(510,588,o),
(499,513,cs),
(473,321,o),
(284,50,o),
(178,50,cs)
);
}
);
vertWidth = 0;
width = 590;
},
{
associatedMasterId = m002;
layerId = "D1F148A5-460D-423B-8A8D-A02342BEA43C";
name = background;
shapes = (
{
closed = 1;
nodes = (
(393,-12,o),
(592,291,o),
(619,503,cs),
(637,644,o),
(563,779,o),
(391,779,cs),
(227,779,o),
(147,652,o),
(100,480,cs),
(87,432,o),
(77,379,o),
(75,329,cs),
(62,171,o),
(70,-12,o),
(213,-12,cs)
);
},
{
closed = 1;
nodes = (
(175,95,o),
(185,215,o),
(192,312,cs),
(195,359,o),
(204,406,o),
(213,442,cs),
(253,593,o),
(283,672,o),
(386,672,cs),
(506,672,o),
(507,568,o),
(499,500,cs),
(478,327,o),
(301,95,o),
(219,95,cs)
);
}
);
vertWidth = 0;
width = 594;
}
);
unicode = 79;
userData = {
KernOnName = O;
};
},
{
color = 3;
glyphname = P;
kernLeft = KO_B;
kernRight = KO_P;
lastChange = "2023-09-28 00:06:44 +0000";
layers = (
{
anchors = (
{
name = bottom;
pos = (633,0);
},
{
name = top;
pos = (987,2008);
}
);
layerId = m01;
shapes = (
{
closed = 1;
nodes = (
(1616,1850,o),
(1201,2011,o),
(544,2008,cs),
(487,2008,o),
(474,1984,o),
(466,1937,cs),
(138,78,ls),
(131,36,o),
(148,0,o),
(196,0,cs),
(250,0,o),
(258,47,o),
(264,79,cs),
(429,1025,l),
(1075,1032,o),
(1493,1143,o),
(1557,1511,cs)
);
},
{
closed = 1;
nodes = (
(586,1898,l),
(1203,1894,o),
(1473,1753,o),
(1428,1522,cs),
(1376,1256,o),
(1009,1145,o),
(449,1139,c)
);
}
);
vertWidth = 0;
width = 1456;
},
{
anchors = (
{
name = bottom;
pos = (718,0);
},
{
name = top;
pos = (1072,2008);
}
);
layerId = m002;
shapes = (
{
closed = 1;
nodes = (
(1798,1858,o),
(1389,2018,o),
(619,2008,cs),
(528,2008,o),
(471,1961,o),
(455,1873,cs),
(154,166,ls),
(139,83,o),
(196,0,o),
(300,0,cs),
(404,0,o),
(444,70,o),
(456,138,cs),
(596,940,l),
(1146,947,o),
(1651,1022,o),
(1729,1466,cs)
);
},
{
closed = 1;
nodes = (
(738,1729,l),
(1299,1720,o),
(1457,1636,o),
(1426,1481,cs),
(1390,1298,o),
(1055,1234,o),
(644,1223,c)
);
}
);
vertWidth = 0;
width = 1626;
},
{
associatedMasterId = m01;
layerId = "20E38FB0-B6D6-4C6B-89B9-150B1056CEBB";
name = background;
shapes = (
{
closed = 1;
nodes = (
(352,361,o),
(543,381,o),
(569,565,cs),
(589,709,o),
(435,772,o),
(181,772,c),
(184,718,l),
(426,718,o),
(522,662,o),
(510,571,cs),
(492,436,o),
(317,416,o),
(134,416,c),
(126,361,l)
);
},
{
closed = 1;
nodes = (
(203,757,o),
(201,772,o),
(176,772,cs),
(150,772,o),
(144,759,o),
(140,740,cs),
(15,32,ls),
(12,14,o),
(21,-5,o),
(43,-5,cs),
(69,-5,o),
(72,18,o),
(75,30,cs),
(200,735,ls)
);
}
);
vertWidth = 0;
width = 594;
}
);
metricLeft = H;
unicode = 80;
userData = {
KernOnName = P;
};
},
{
color = 3;
glyphname = Thorn;
kernLeft = KO_H;
kernRight = KO_Thorn;
lastChange = "2023-09-26 03:47:40 +0000";
layers = (
{
layerId = m01;
shapes = (
{
closed = 1;
nodes = (
(250,0,o),
(259,35,o),
(264,65,c),
(592,1929,l),
(601,1982,o),
(586,2008,o),
(544,2008,cs),
(492,2008,o),
(474,1983,o),
(466,1937,cs),
(136,65,ls),
(129,24,o),
(144,0,o),
(193,0,cs)
);
},
{
closed = 1;
nodes = (
(468,1434,l),
(1074,1428,o),
(1340,1287,o),
(1295,1058,cs),
(1243,794,o),
(883,683,o),
(331,675,c),
(311,561,l),
(948,570,o),
(1360,682,o),
(1424,1047,cs),
(1481,1373,o),
(1100,1534,o),
(488,1544,c)
);
}
);
width = 1405;
},
{
layerId = m002;
shapes = (
{
closed = 1;
nodes = (
(404,0,o),
(453,62,o),
(464,125,c),
(763,1844,l),
(781,1953,o),
(726,2008,o),
(635,2008,cs),
(552,2008,o),
(471,1969,o),
(456,1881,cs),
(154,151,ls),
(138,65,o),
(201,0,o),
(300,0,cs)
);
},
{
closed = 1;
nodes = (
(606,1296,l),
(1148,1285,o),
(1302,1201,o),
(1271,1048,cs),
(1236,869,o),
(913,804,o),
(513,791,c),
(461,507,l),
(1003,516,o),
(1497,595,o),
(1574,1033,cs),
(1637,1391,o),
(1302,1555,o),
(657,1574,c)
);
}
);
width = 1547;
}
);
metricLeft = H;
metricRight = P;
unicode = 222;
},
{
color = 3;
glyphname = Q;
kernLeft = KO_Q;
kernRight = KO_Q;
lastChange = "2023-09-26 00:54:46 +0000";
layers = (
{
layerId = m01;
shapes = (
{
closed = 1;
nodes = (
(975,-105,o),
(976,-58,o),
(954,-26,cs),
(820,167,l),
(1118,427,o),
(1340,926,o),
(1378,1348,cs),
(1410,1701,o),
(1269,2008,o),
(858,2008,cs),
(475,2008,o),
(247,1741,o),
(134,1273,cs),
(-22,624,o),
(90,-20,o),
(423,-20,cs),
(526,-20,o),
(625,32,o),
(720,93,c),
(838,-80,ls),
(868,-123,o),
(907,-144,o),
(942,-125,cs)
);
},
{
closed = 1;
nodes = (
(350,1655,o),
(522,1890,o),
(850,1890,cs),
(1191,1890,o),
(1276,1645,o),
(1249,1328,cs),
(1221,962,o),
(998,503,o),
(748,267,c),
(619,458,ls),
(592,497,o),
(551,512,o),
(513,482,cs),
(483,458,o),
(487,435,o),
(519,389,cs),
(655,190,l),
(582,140,o),
(506,93,o),
(434,93,cs),
(201,93,o),
(134,693,o),
(252,1220,cs)
);
}
);
vertWidth = 0;
width = 1242;
},
{
layerId = m002;
shapes = (
{
closed = 1;
nodes = (
(1191,-86,o),
(1198,4,o),
(1147,78,cs),
(1023,259,l),
(1287,539,o),
(1490,968,o),
(1526,1308,cs),
(1563,1675,o),
(1363,2008,o),
(889,2008,cs),
(439,2008,o),
(224,1706,o),
(127,1248,cs),
(-3,635,o),
(49,-20,o),
(486,-20,cs),
(591,-20,o),
(696,6,o),
(798,69,c),
(889,-65,ls),
(945,-147,o),
(1045,-169,o),
(1110,-130,cs)
);
},
{
closed = 1;
nodes = (
(504,1540,o),
(590,1730,o),
(889,1730,cs),
(1220,1730,o),
(1230,1477,o),
(1214,1301,cs),
(1187,1040,o),
(1026,727,o),
(851,510,c),
(837,531,l),
(772,614,o),
(666,629,o),
(608,585,cs),
(551,538,o),
(531,461,o),
(588,377,cs),
(638,303,l),
(585,267,o),
(536,258,o),
(494,258,cs),
(330,258,o),
(353,806,o),
(424,1150,cs)
);
}
);
vertWidth = 0;
width = 1394;
}
);
unicode = 81;
},
{
color = 3;
glyphname = R;
kernLeft = KO_R;
kernRight = KO_R;
lastChange = "2023-09-28 00:06:44 +0000";
layers = (
{
anchors = (
{
name = bottom;
pos = (638,0);
},
{
name = top;
pos = (992,2008);
}
);
layerId = m01;
shapes = (
{
closed = 1;
nodes = (
(1563,1870,o),
(1159,2008,o),
(544,2008,cs),
(487,2008,o),
(474,1984,o),
(466,1937,cs),
(139,83,ls),
(131,36,o),
(144,0,o),
(192,0,cs),
(247,0,o),
(257,37,o),
(265,84,cs),
(426,986,l),
(547,821,l),
(1173,50,ls),
(1203,14,o),
(1219,0,o),
(1237,0,cs),
(1263,0,o),
(1287,16,o),
(1295,37,cs),
(1302,57,o),
(1301,89,o),
(1284,109,cs),
(587,968,l),
(1098,988,o),
(1454,1099,o),
(1505,1472,cs)
);
},
{
closed = 1;
nodes = (
(586,1898,l),
(1117,1892,o),
(1422,1761,o),
(1382,1483,cs),
(1337,1196,o),
(986,1071,o),
(441,1067,c)
);
}
);
vertWidth = 0;
width = 1465;
},
{
anchors = (
{
name = bottom;
pos = (726,0);
},
{
name = top;
pos = (1080,2008);
}
);
layerId = m002;
shapes = (
{
closed = 1;
nodes = (
(1751,1860,o),
(1327,2008,o),
(625,2008,cs),
(528,2008,o),
(471,1969,o),
(456,1881,cs),
(154,166,ls),
(138,75,o),
(175,0,o),
(274,0,cs),
(370,0,o),
(449,70,o),
(466,164,cs),
(584,834,l),
(643,733,l),
(1190,70,ls),
(1241,9,o),
(1309,0,o),
(1351,0,cs),
(1408,0,o),
(1473,34,o),
(1489,88,cs),
(1502,130,o),
(1503,176,o),
(1473,213,cs),
(932,864,l),
(1310,910,o),
(1608,1047,o),
(1678,1444,cs)
);
},
{
closed = 1;
nodes = (
(740,1731,l),
(1243,1734,o),
(1412,1640,o),
(1379,1451,cs),
(1337,1206,o),
(1023,1089,o),
(626,1068,c)
);
}
);
vertWidth = 0;
width = 1641;
},
{
associatedMasterId = m01;
layerId = "C47353F9-FE80-40FB-AB91-6D72AFE07355";
name = background;
shapes = (
{
closed = 1;
nodes = (
(375,361,o),
(575,381,o),
(601,565,cs),
(621,709,o),
(470,772,o),
(213,772,c),
(213,718,l),
(442,718,o),
(555,665,o),
(542,571,cs),
(523,437,o),
(347,416,o),
(158,416,c),
(150,361,l)
);
},
{
closed = 1;
nodes = (
(141,390,l),
(447,21,ls),
(459,6,o),
(467,0,o),
(476,0,cs),
(488,0,o),
(500,8,o),
(504,18,cs),
(507,27,o),
(506,42,o),
(499,51,cs),
(226,381,l)
);
},
{
closed = 1;
nodes = (
(235,757,o),
(233,772,o),
(208,772,cs),
(182,772,o),
(176,759,o),
(172,740,cs),
(49,39,ls),
(45,19,o),
(53,0,o),
(75,0,cs),
(101,0,o),
(106,19,o),
(109,37,cs),
(232,735,ls)
);
}
);
vertWidth = 0;
width = 594;
}
);
metricLeft = H;
unicode = 82;
userData = {
KernOnName = R;
};
},
{
color = 3;
glyphname = S;
kernLeft = KO_S;
kernRight = KO_S;
lastChange = "2023-09-28 00:10:16 +0000";
layers = (
{
anchors = (
{
name = bottom;
pos = (518,0);
},
{
name = top;
pos = (872,2008);
}
);
layerId = m01;
shapes = (
{
closed = 1;
nodes = (
(837,0,o),
(1133,264,o),
(1133,564,cs),
(1133,811,o),
(987,977,o),
(794,1102,cs),
(700,1163,ls),
(489,1300,o),
(398,1403,o),
(398,1545,cs),
(398,1794,o),
(671,1898,o),
(1005,1898,cs),
(1270,1898,ls),
(1304,1898,o),
(1325,1916,o),
(1325,1955,cs),
(1325,2009,o),
(1278,2008,o),
(1267,2008,cs),
(981,2008,ls),
(541,2008,o),
(273,1818,o),
(273,1535,cs),
(273,1381,o),
(383,1236,o),
(578,1105,cs),
(675,1040,ls),
(862,915,o),
(1009,796,o),
(1009,562,cs),
(1009,316,o),
(767,113,o),
(331,113,cs),
(65,113,ls),
(30,113,o),
(5,92,o),
(5,53,cs),
(5,0,o),
(58,0,o),
(65,0,cs),
(312,0,ls)
);
}
);
vertWidth = 0;
width = 1226;
},
{
anchors = (
{
name = bottom;
pos = (642,0);
},
{
name = top;
pos = (996,2008);
}
);
layerId = m002;
shapes = (
{
closed = 1;
nodes = (
(818,0,o),
(1351,153,o),
(1351,593,cs),
(1351,874,o),
(1141,1024,o),
(950,1170,cs),
(891,1215,ls),
(707,1355,o),
(605,1420,o),
(605,1506,cs),
(605,1628,o),
(823,1727,o),
(1028,1727,cs),
(1439,1727,ls),
(1520,1727,o),
(1585,1792,o),
(1585,1870,cs),
(1585,1982,o),
(1491,2008,o),
(1437,2008,cs),
(1031,2008,ls),
(618,2008,o),
(298,1776,o),
(298,1493,cs),
(298,1269,o),
(487,1150,o),
(696,1001,cs),
(761,955,ls),
(956,817,o),
(1041,726,o),
(1041,593,cs),
(1041,356,o),
(693,281,o),
(513,281,cs),
(199,281,ls),
(118,281,o),
(51,213,o),
(51,135,cs),
(51,26,o),
(155,0,o),
(199,0,cs),
(513,0,ls)
);
}
);
vertWidth = 0;
width = 1473;
},
{
associatedMasterId = m01;
layerId = "A440414B-586A-40A5-AE6A-EB7CED442D21";
name = background;
shapes = (
{
closed = 1;
nodes = (
(235,0,o),
(412,59,o),
(412,219,cs),
(412,320,o),
(359,378,o),
(274,437,cs),
(187,498,o),
(133,537,o),
(133,590,cs),
(133,659,o),
(238,713,o),
(329,713,cs),
(484,713,ls),
(499,713,o),
(511,728,o),
(511,744,cs),
(511,772,o),
(487,772,o),
(482,772,cs),
(330,772,ls),
(177,772,o),
(72,684,o),
(72,586,cs),
(72,501,o),
(141,457,o),
(235,391,cs),
(320,330,o),
(353,286,o),
(353,217,cs),
(353,99,o),
(196,59,o),
(119,59,cs),
(0,59,ls),
(-15,59,o),
(-29,44,o),
(-29,29,cs),
(-29,0,o),
(-2,0,o),
(0,0,cs),
(119,0,ls)
);
}
);
vertWidth = 0;
width = 594;
}
);
unicode = 83;
userData = {
KernOnName = S;
};
},
{
color = 3;
glyphname = Germandbls;
kernLeft = KO_R.ss02;
kernRight = KO_Germandbls;
lastChange = "2023-09-26 05:05:08 +0000";
layers = (
{
layerId = m01;
shapes = (
{
closed = 1;
nodes = (
(1249,-3,o),
(1572,173,o),
(1625,563,cs),
(1670,892,o),
(1402,1045,o),
(1190,1138,c),
(1714,1820,ls),
(1734,1845,o),
(1734,1878,o),
(1725,1893,cs),
(1712,1918,o),
(1696,1928,o),
(1667,1928,cs),
(544,1928,ls),
(492,1928,o),
(461,1910,o),
(454,1867,cs),
(148,47,ls),
(143,17,o),
(155,-10,o),
(205,-10,cs),
(254,-10,o),
(274,11,o),
(280,49,cs),
(575,1810,l),
(1569,1810,l),
(1082,1189,l),
(1037,1126,o),
(1048,1060,o),
(1148,1020,cs),
(1267,973,o),
(1539,865,o),
(1493,541,cs),
(1453,250,o),
(1128,123,o),
(835,123,cs),
(637,123,ls),
(609,123,o),
(580,94,o),
(580,57,cs),
(580,13,o),
(613,0,o),
(640,0,cs),
(837,-1,ls)
);
}
);
width = 1712;
},
{
layerId = m002;
shapes = (
{
closed = 1;
nodes = (
(1322,-7,o),
(1795,150,o),
(1855,590,cs),
(1900,921,o),
(1663,1144,o),
(1460,1226,c),
(1907,1772,ls),
(1950,1824,o),
(1950,1885,o),
(1926,1930,cs),
(1902,1976,o),
(1852,2008,o),
(1788,2008,cs),
(635,2008,ls),
(552,2008,o),
(471,1969,o),
(456,1881,cs),
(154,151,ls),
(138,65,o),
(201,0,o),
(300,0,cs),
(404,0,o),
(453,62,o),
(464,125,cs),
(743,1730,l),
(1520,1730,l),
(1133,1285,l),
(1078,1213,o),
(1067,1095,o),
(1203,1034,cs),
(1358,965,o),
(1582,853,o),
(1545,590,cs),
(1512,353,o),
(1285,274,o),
(1017,278,cs),
(789,281,ls),
(708,282,o),
(641,213,o),
(641,135,cs),
(641,26,o),
(745,1,o),
(789,0,cs),
(1017,-3,ls)
);
}
);
width = 1967;
}
);
metricLeft = H;
metricRight = S;
unicode = 7838;
},
{
color = 3;
glyphname = T;
kernLeft = KO_T;
kernRight = KO_T;
lastChange = "2023-09-28 00:19:24 +0000";
layers = (
{
anchors = (
{
name = bottom;
pos = (667,0);
},
{
name = center;
pos = (844,1004);
},
{
name = top;
pos = (1021,2008);
}
);
layerId = m01;
shapes = (
{
closed = 1;
nodes = (
(723,0,o),
(732,36,o),
(737,67,cs),
(1060,1898,l),
(1668,1898,ls),
(1718,1898,o),
(1731,1920,o),
(1731,1953,cs),
(1731,1985,o),
(1718,2008,o),
(1668,2008,cs),
(357,2008,ls),
(303,2008,o),
(291,1985,o),
(291,1953,cs),
(291,1920,o),
(303,1898,o),
(357,1898,cs),
(933,1898,l),
(610,66,ls),
(603,24,o),
(619,0,o),
(666,0,cs)
);
}
);
vertWidth = 0;
width = 1524;
},
{
anchors = (
{
name = bottom;
pos = (757,0);
},
{
name = center;
pos = (934,1004);
},
{
name = top;
pos = (1111,2008);
}
);
layerId = m002;
shapes = (
{
closed = 1;
nodes = (
(873,0,o),
(919,60,o),
(930,125,cs),
(1213,1730,l),
(1740,1730,ls),
(1839,1730,o),
(1894,1792,o),
(1894,1865,cs),
(1894,1946,o),
(1834,2008,o),
(1740,2008,cs),
(429,2008,ls),
(338,2008,o),
(276,1946,o),
(276,1865,cs),
(276,1792,o),
(330,1730,o),
(429,1730,cs),
(901,1730,l),
(623,156,ls),
(608,70,o),
(676,0,o),
(772,0,cs)
);
}
);
vertWidth = 0;
width = 1703;
}
);
unicode = 84;
userData = {
KernOnName = T;
};
},
{
color = 3;
glyphname = U;
kernLeft = KO_U;
kernRight = KO_H;
lastChange = "2023-09-28 00:06:44 +0000";
layers = (
{
anchors = (
{
name = bottom;
pos = (709,0);
},
{
name = ogonek;
pos = (1233,10);
},
{
name = top;
pos = (1063,2008);
},
{
name = topright;
pos = (1847,2008);
}
);
layerId = m01;
shapes = (
{
closed = 1;
nodes = (
(768,-20,o),
(1095,556,o),
(1351,1064,c),
(1177,69,ls),
(1168,20,o),
(1195,0,o),
(1235,0,cs),
(1266,0,o),
(1296,18,o),
(1303,59,cs),
(1636,1945,ls),
(1643,1986,o),
(1630,2008,o),
(1576,2008,cs),
(1530,2008,o),
(1514,1982,o),
(1508,1947,cs),
(1434,1532,l),
(1367,1249,o),
(1243,1060,o),
(1140,892,cs),
(1002,663,o),
(694,93,o),
(441,93,cs),
(279,93,o),
(315,360,o),
(350,560,cs),
(593,1940,ls),
(600,1978,o),
(582,2006,o),
(543,2008,cs),
(501,2008,o),
(473,1974,o),
(465,1929,cs),
(224,561,ls),
(154,164,o),
(244,-20,o),
(417,-20,cs)
);
}
);
vertWidth = 0;
width = 1608;
},
{
anchors = (
{
name = bottom;
pos = (799,0);
},
{
name = ogonek;
pos = (1265,10);
},
{
name = top;
pos = (1153,2008);
},
{
name = topright;
pos = (2027,2008);
}
);
layerId = m002;
shapes = (
{
closed = 1;
nodes = (
(794,-20,o),
(1063,307,o),
(1280,683,c),
(1188,151,ls),
(1170,49,o),
(1243,0,o),
(1331,0,cs),
(1402,0,o),
(1479,36,o),
(1493,114,cs),
(1800,1860,ls),
(1815,1946,o),
(1761,2008,o),
(1654,2008,cs),
(1568,2008,o),
(1502,1961,o),
(1490,1891,cs),
(1448,1647,l),
(1406,1462,o),
(1272,1142,o),
(1196,999,cs),
(1108,827,o),
(770,258,o),
(559,258,cs),
(499,258,o),
(506,388,o),
(538,572,cs),
(762,1855,ls),
(777,1943,o),
(713,2008,o),
(624,2008,cs),
(525,2008,o),
(465,1927,o),
(455,1873,cs),
(231,603,ls),
(156,177,o),
(283,-20,o),
(509,-20,cs)
);
}
);
vertWidth = 0;
width = 1788;
}
);
metricLeft = H;
metricRight = H;
unicode = 85;
userData = {
KernOnName = U;
};
},
{
color = 3;
glyphname = V;
kernLeft = KO_V;
kernRight = KO_V;
lastChange = "2023-09-28 00:06:44 +0000";
layers = (
{
layerId = m01;
shapes = (
{
closed = 1;
nodes = (
(1492,1901,ls),
(1522,1963,o),
(1502,1985,o),
(1472,2000,cs),
(1437,2016,o),
(1404,2000,o),
(1379,1948,cs),
(634,421,l),
(554,223,l),
(551,439,l),
(477,1948,ls),
(475,1979,o),
(464,2008,o),
(406,2008,cs),
(360,2008,o),
(349,1986,o),
(351,1943,cs),
(448,87,ls),
(451,36,o),
(469,0,o),
(516,0,cs),
(566,0,o),
(575,25,o),
(597,70,cs)
);
}
);
vertWidth = 0;
width = 1359;
},
{
layerId = m002;
shapes = (
{
closed = 1;
nodes = (
(1603,1826,ls),
(1656,1933,o),
(1587,2008,o),
(1488,2008,cs),
(1400,2008,o),
(1342,1971,o),
(1311,1909,cs),
(757,791,l),
(694,635,l),
(698,801,l),
(640,1886,ls),
(636,1956,o),
(581,2008,o),
(482,2008,cs),
(393,2008,o),
(334,1959,o),
(339,1868,cs),
(437,135,ls),
(441,60,o),
(500,0,o),
(594,0,cs),
(682,0,o),
(722,47,o),
(750,104,cs)
);
}
);
vertWidth = 0;
width = 1484;
}
);
unicode = 86;
userData = {
KernOnName = V;
};
},
{
color = 3;
glyphname = W;
kernLeft = KO_W;
kernRight = KO_W;
lastChange = "2023-09-26 01:46:59 +0000";
layers = (
{
anchors = (
{
name = bottom;
pos = (1091,0);
},
{
name = top;
pos = (1445,2008);
}
);
layerId = m01;
shapes = (
{
closed = 1;
nodes = (
(2524,1897,ls),
(2554,1958,o),
(2539,1991,o),
(2508,2004,cs),
(2471,2019,o),
(2435,1997,o),
(2410,1946,cs),
(1685,458,l),
(1582,220,l),
(1591,471,l),
(1511,1949,ls),
(1509,1983,o),
(1497,2008,o),
(1437,2008,cs),
(1388,2008,o),
(1368,1977,o),
(1352,1944,cs),
(621,434,l),
(528,230,l),
(529,451,l),
(457,1949,ls),
(456,1978,o),
(446,2008,o),
(386,2008,cs),
(341,2008,o),
(329,1986,o),
(331,1943,cs),
(427,74,ls),
(429,29,o),
(451,0,o),
(500,0,cs),
(545,0,o),
(564,38,o),
(581,73,cs),
(1319,1582,l),
(1407,1800,l),
(1405,1579,l),
(1488,54,ls),
(1490,17,o),
(1503,0,o),
(1546,0,cs),
(1597,0,o),
(1610,26,o),
(1632,70,cs)
);
}
);
vertWidth = 0;
width = 2372;
},
{
anchors = (
{
name = bottom;
pos = (1167,0);
},
{
name = top;
pos = (1521,2008);
}
);
layerId = m002;
shapes = (
{
closed = 1;
nodes = (
(2652,1808,l),
(2696,1904,o),
(2629,2008,o),
(2556,2008,cs),
(2449,2008,o),
(2394,1966,o),
(2363,1901,cs),
(1852,825,l),
(1749,608,l),
(1742,825,l),
(1664,1886,l),
(1656,1961,o),
(1606,2008,o),
(1500,2008,cs),
(1393,2008,o),
(1364,1951,o),
(1346,1912,cs),
(790,793,l),
(696,591,l),
(691,791,l),
(631,1886,ls),
(628,1956,o),
(574,2008,o),
(475,2008,cs),
(386,2008,o),
(324,1959,o),
(329,1868,cs),
(449,135,ls),
(454,47,o),
(514,0,o),
(615,0,cs),
(712,0,o),
(735,44,o),
(771,120,cs),
(1310,1199,l),
(1412,1415,l),
(1419,1189,l),
(1502,117,ls),
(1507,47,o),
(1591,0,o),
(1653,0,cs),
(1739,0,o),
(1775,36,o),
(1807,101,cs)
);
}
);
vertWidth = 0;
width = 2524;
},
{
associatedMasterId = m01;
layerId = "0A5AEDD3-7312-4DBD-857C-C4F2C135CE12";
name = background;
shapes = (
{
closed = 1;
nodes = (
(601,0,o),
(607,13,o),
(615,30,cs),
(956,721,ls),
(966,739,o),
(969,754,o),
(966,760,cs),
(961,769,o),
(952,772,o),
(943,772,cs),
(934,772,o),
(927,771,o),
(922,767,cs),
(910,760,o),
(905,751,o),
(901,743,cs),
(625,184,l),
(556,37,l),
(580,0,l)
);
},
{
closed = 1;
nodes = (
(192,179,l),
(162,744,ls),
(160,756,o),
(156,772,o),
(129,772,c),
(108,772,o),
(101,759,o),
(102,741,cs),
(141,33,ls),
(143,14,o),
(156,0,o),
(181,0,c),
(200,44,l)
);
},
{
closed = 1;
nodes = (
(196,0,o),
(204,18,o),
(211,31,cs),
(494,606,l),
(557,735,l),
(531,772,l),
(512,772,o),
(500,754,o),
(495,744,cs),
(216,175,l),
(153,48,l),
(179,0,l)
);
},
{
closed = 1;
nodes = (
(600,187,l),
(567,744,ls),
(565,758,o),
(558,772,o),
(531,772,c),
(508,733,l),
(516,607,l),
(549,23,ls),
(550,7,o),
(560,0,o),
(581,0,c),
(604,36,l)
);
}
);
vertWidth = 0;
width = 594;
}
);
unicode = 87;
},
{
color = 3;
glyphname = X;
kernLeft = KO_X;
kernRight = KO_X;
lastChange = "2023-09-28 00:13:03 +0000";
layers = (
{
layerId = m01;
shapes = (
{
closed = 1;
nodes = (
(94,-6,o),
(140,-9,o),
(169,32,cs),
(775,874,l),
(1076,79,ls),
(1104,5,o),
(1147,-9,o),
(1177,6,cs),
(1208,21,o),
(1229,52,o),
(1204,118,cs),
(876,980,l),
(1540,1903,ls),
(1570,1945,o),
(1565,1976,o),
(1543,1993,cs),
(1515,2015,o),
(1471,2014,o),
(1442,1973,cs),
(825,1117,l),
(512,1957,ls),
(494,2006,o),
(446,2016,o),
(414,2002,cs),
(382,1991,o),
(371,1963,o),
(391,1910,cs),
(724,1012,l),
(61,97,ls),
(38,65,o),
(42,36,o),
(63,19,cs)
);
}
);
vertWidth = 0;
width = 1442;
},
{
layerId = m002;
shapes = (
{
closed = 1;
nodes = (
(153,-10,o),
(277,-26,o),
(329,49,cs),
(791,696,l),
(1019,86,ls),
(1052,-3,o),
(1170,-18,o),
(1240,18,cs),
(1305,52,o),
(1334,111,o),
(1305,187,cs),
(1018,951,l),
(1617,1787,ls),
(1672,1860,o),
(1659,1925,o),
(1601,1974,cs),
(1547,2024,o),
(1435,2026,o),
(1380,1951,cs),
(895,1279,l),
(652,1925,ls),
(619,2012,o),
(516,2024,o),
(446,2000,cs),
(365,1972,o),
(340,1907,o),
(376,1810,cs),
(669,1024,l),
(85,213,ls),
(38,148,o),
(38,88,o),
(95,39,cs)
);
}
);
vertWidth = 0;
width = 1538;
}
);
unicode = 88;
userData = {
KernOnName = X;
};
},
{
color = 3;
glyphname = Y;
kernLeft = KO_Y;
kernRight = KO_Y;
lastChange = "2023-09-28 00:18:28 +0000";
layers = (
{
anchors = (
{
name = bottom;
pos = (564,0);
},
{
name = top;
pos = (918,2008);
},
{
name = topleft;
pos = (279,2008);
}
);
layerId = m01;
shapes = (
{
closed = 1;
nodes = (
(1431,2017,o),
(1390,2009,o),
(1364,1974,cs),
(846,1258,l),
(755,1132,l),
(708,1264,l),
(456,1955,ls),
(439,2002,o),
(397,2016,o),
(363,2003,cs),
(329,1990,o),
(322,1955,o),
(338,1913,cs),
(682,988,l),
(519,65,ls),
(512,23,o),
(527,0,o),
(574,0,cs),
(629,0,o),
(641,34,o),
(647,66,cs),
(812,1001,l),
(1468,1904,ls),
(1496,1943,o),
(1491,1976,o),
(1460,1997,cs)
);
}
);
vertWidth = 0;
width = 1318;
},
{
anchors = (
{
name = bottom;
pos = (622,0);
},
{
name = top;
pos = (976,2008);
},
{
name = topleft;
pos = (279,2008);
}
);
layerId = m002;
shapes = (
{
closed = 1;
nodes = (
(1454,2021,o),
(1360,2022,o),
(1298,1937,cs),
(891,1384,l),
(832,1301,l),
(800,1392,l),
(614,1906,ls),
(577,2008,o),
(481,2025,o),
(411,1991,cs),
(346,1960,o),
(304,1893,o),
(338,1804,cs),
(640,1009,l),
(489,151,ls),
(474,65,o),
(542,-5,o),
(641,-5,cs),
(745,-5,o),
(786,60,o),
(797,125,cs),
(947,976,l),
(1540,1771,ls),
(1604,1857,o),
(1574,1940,o),
(1517,1979,cs)
);
}
);
vertWidth = 0;
width = 1434;
},
{
associatedMasterId = m01;
layerId = "00B86DF0-33AC-4F1C-ADC9-58C3EF72DD24";
name = background;
shapes = (
{
closed = 1;
nodes = (
(530,723,ls),
(536,732,o),
(539,740,o),
(539,747,cs),
(539,754,o),
(536,762,o),
(529,766,cs),
(520,772,o),
(512,773,o),
(505,772,cs),
(497,770,o),
(487,764,o),
(481,757,cs),
(215,396,l),
(252,346,l)
);
},
{
closed = 1;
nodes = (
(225,416,l),
(157,32,ls),
(153,14,o),
(163,0,o),
(184,0,cs),
(210,0,o),
(215,18,o),
(217,30,cs),
(285,416,l)
);
},
{
closed = 1;
nodes = (
(267,415,l),
(141,748,ls),
(138,758,o),
(129,766,o),
(121,770,cs),
(115,773,o),
(107,773,o),
(97,770,cs),
(88,766,o),
(82,760,o),
(81,753,cs),
(80,746,o),
(82,738,o),
(86,728,cs),
(223,365,l)
);
}
);
vertWidth = 0;
width = 594;
},
{
associatedMasterId = m002;
layerId = "ABE7B4F7-B3A0-4559-B244-B70180902683";
name = background;
shapes = (
{
closed = 1;
nodes = (
(516,776,o),
(494,776,o),
(482,776,c),
(469,772,o),
(451,763,o),
(443,751,cs),
(196,416,l),
(248,302,l),
(536,687,ls),
(545,700,o),
(550,712,o),
(550,726,cs),
(550,740,o),
(543,753,o),
(530,763,cs)
);
},
{
closed = 1;
nodes = (
(226,-2,o),
(242,23,o),
(247,48,cs),
(315,441,l),
(195,441,l),
(128,58,ls),
(122,25,o),
(147,-2,o),
(185,-2,cs)
);
},
{
closed = 1;
nodes = (
(72,764,o),
(59,751,o),
(56,735,cs),
(53,723,o),
(58,712,o),
(63,699,cs),
(214,316,l),
(297,404,l),
(169,738,ls),
(164,751,o),
(153,763,o),
(138,770,cs),
(127,776,o),
(106,777,o),
(90,771,cs)
);
}
);
vertWidth = 0;
width = 594;
}
);
unicode = 89;
userData = {
KernOnName = Y;
};
},
{
color = 3;
glyphname = Z;
kernLeft = KO_Z;
kernRight = KO_Z;
lastChange = "2023-09-28 00:12:01 +0000";
layers = (
{
anchors = (
{
name = bottom;
pos = (609,0);
},
{
name = center;
pos = (786,1004);
},
{
name = top;
pos = (963,2008);
}
);
layerId = m01;
shapes = (
{
closed = 1;
nodes = (
(37,80,o),
(33,55,o),
(39,35,cs),
(46,15,o),
(63,0,o),
(89,0,cs),
(1134,0,ls),
(1188,0,o),
(1200,23,o),
(1200,55,cs),
(1200,90,o),
(1188,113,o),
(1134,113,cs),
(329,113,l),
(214,110,l),
(1518,1902,ls),
(1537,1928,o),
(1538,1957,o),
(1527,1978,cs),
(1518,1996,o),
(1500,2008,o),
(1478,2008,cs),
(436,2008,ls),
(384,2008,o),
(370,1985,o),
(370,1953,cs),
(370,1920,o),
(384,1898,o),
(436,1898,cs),
(1264,1898,l),
(1363,1899,l),
(52,101,ls)
);
}
);
vertWidth = 0;
width = 1407;
},
{
anchors = (
{
name = bottom;
pos = (655,0);
},
{
name = center;
pos = (832,1004);
},
{
name = top;
pos = (1009,2008);
}
);
layerId = m002;
shapes = (
{
closed = 1;
nodes = (
(16,182,o),
(15,127,o),
(36,83,cs),
(59,34,o),
(108,0,o),
(157,0,cs),
(1182,0,ls),
(1280,0,o),
(1335,60,o),
(1335,133,cs),
(1335,213,o),
(1275,278,o),
(1182,278,cs),
(604,278,l),
(447,264,l),
(1577,1772,ls),
(1618,1826,o),
(1620,1885,o),
(1596,1930,cs),
(1572,1976,o),
(1522,2008,o),
(1458,2008,cs),
(480,2008,ls),
(389,2008,o),
(326,1946,o),
(326,1865,cs),
(326,1792,o),
(381,1730,o),
(480,1730,cs),
(1034,1730,l),
(1190,1741,l),
(55,234,ls)
);
}
);
vertWidth = 0;
width = 1499;
}
);
unicode = 90;
userData = {
KernOnName = Z;
};
},
{
color = 10;
glyphname = A.ss02;
kernLeft = KO_AE;
kernRight = KO_A.ss02;
lastChange = "2023-09-26 19:06:23 +0000";
layers = (
{
layerId = m01;
shapes = (
{
closed = 1;
nodes = (
(147,0,o),
(164,26,o),
(194,84,cs),
(664,1001,l),
(1071,1001,l),
(1143,84,ls),
(1146,44,o),
(1158,0,o),
(1233,0,cs),
(1298,0,o),
(1314,33,o),
(1309,92,cs),
(1157,1942,ls),
(1153,1990,o),
(1122,2008,o),
(1070,2008,cs),
(1008,2008,o),
(994,1985,o),
(970,1938,cs),
(32,112,ls),
(-5,41,o),
(26,0,o),
(79,0,cs)
);
},
{
closed = 1;
nodes = (
(36,20,o),
(21,45,o),
(50,101,cs),
(986,1928,ls),
(1013,1980,o),
(1025,1988,o),
(1070,1988,cs),
(1113,1988,o),
(1136,1980,o),
(1139,1942,cs),
(1285,90,ls),
(1289,38,o),
(1285,20,o),
(1233,20,cs),
(1174,20,o),
(1170,48,o),
(1167,86,cs),
(1090,1021,l),
(652,1021,l),
(174,92,ls),
(146,37,o),
(136,20,o),
(79,20,cs)
);
},
{
closed = 1;
nodes = (
(1058,1164,l),
(1016,1689,l),
(747,1164,l)
);
},
{
closed = 1;
nodes = (
(1004,1707,ls),
(1017,1733,o),
(1031,1732,o),
(1033,1707,cs),
(1080,1144,l),
(715,1144,l)
);
}
);
vertWidth = 0;
width = 1466;
},
{
layerId = m002;
shapes = (
{
closed = 1;
nodes = (
(234,0,o),
(296,24,o),
(339,108,cs),
(710,825,l),
(1097,825,l),
(1154,141,ls),
(1162,39,o),
(1217,0,o),
(1321,0,cs),
(1420,0,o),
(1491,43,o),
(1480,168,cs),
(1336,1836,ls),
(1325,1969,o),
(1245,2008,o),
(1139,2008,cs),
(1030,2008,o),
(959,1977,o),
(913,1889,cs),
(31,194,ls),
(-34,70,o),
(35,0,o),
(144,0,cs)
);
},
{
closed = 1;
nodes = (
(58,40,o),
(16,78,o),
(67,176,cs),
(949,1871,ls),
(989,1949,o),
(1045,1968,o),
(1139,1968,cs),
(1229,1968,o),
(1286,1945,o),
(1296,1832,cs),
(1440,164,ls),
(1449,64,o),
(1403,40,o),
(1321,40,cs),
(1236,40,o),
(1201,60,o),
(1194,143,cs),
(1133,865,l),
(686,865,l),
(303,126,ls),
(267,57,o),
(222,40,o),
(144,40,cs)
);
},
{
closed = 1;
nodes = (
(1070,1144,l),
(1043,1469,l),
(875,1144,l)
);
},
{
closed = 1;
nodes = (
(1037,1542,ls),
(1055,1576,o),
(1072,1577,o),
(1076,1533,cs),
(1112,1107,l),
(812,1107,l)
);
}
);
vertWidth = 0;
width = 1595;
},
{
associatedMasterId = m01;
layerId = "48DF87F4-C72F-4FC9-8329-4E8255600EC0";
name = background;
shapes = (
{
closed = 1;
nodes = (
(409,743,l),
(413,758,o),
(404,772,o),
(381,772,cs),
(355,772,o),
(354,759,o),
(346,743,cs),
(-21,38,ls),
(-33,14,o),
(-19,0,o),
(-1,0,cs),
(23,0,o),
(29,8,o),
(39,30,cs),
(406,735,l)
);
},
{
closed = 1;
nodes = (
(415,361,l),
(409,416,l),
(208,416,l),
(182,361,l)
);
},
{
closed = 1;
nodes = (
(354,728,l),
(413,29,ls),
(415,17,o),
(418,0,o),
(444,0,c),
(466,0,o),
(473,13,o),
(472,31,cs),
(410,754,l)
);
}
);
vertWidth = 0;
width = 594;
}
);
metricLeft = A;
metricTop = A;
metricVertOrigin = A;
metricWidth = A;
},
{
color = 10;
glyphname = B.ss02;
kernLeft = KO_R.ss02;
kernRight = KO_B.ss02;
lastChange = "2023-09-26 15:20:40 +0000";
layers = (
{
layerId = m01;
shapes = (
{
closed = 1;
nodes = (
(1553,1846,o),
(1233,2008,o),
(564,2008,cs),
(504,2008,o),
(475,1984,o),
(463,1917,cs),
(145,108,ls),
(136,56,o),
(162,0,o),
(226,0,cs),
(1091,2,o),
(1340,160,o),
(1393,503,cs),
(1434,771,o),
(1289,971,o),
(1006,1074,c),
(1336,1130,o),
(1481,1269,o),
(1510,1501,cs)
);
},
{
closed = 1;
nodes = (
(1462,1274,o),
(1317,1145,o),
(977,1090,cs),
(946,1085,o),
(947,1073,o),
(978,1063,cs),
(1269,964,o),
(1413,771,o),
(1373,507,cs),
(1322,173,o),
(1083,22,o),
(226,20,cs),
(175,20,o),
(156,60,o),
(164,104,cs),
(482,1913,ls),
(492,1972,o),
(513,1988,o),
(564,1988,cs),
(1224,1988,o),
(1531,1834,o),
(1490,1503,cs)
);
},
{
closed = 1;
nodes = (
(867,167,o),
(1181,234,o),
(1222,524,cs),
(1262,807,o),
(1078,999,o),
(480,1001,c),
(333,163,l)
);
},
{
closed = 1;
nodes = (
(464,1021,l),
(1086,1023,o),
(1284,818,o),
(1242,522,cs),
(1198,213,o),
(860,145,o),
(310,143,c)
);
},
{
closed = 1;
nodes = (
(1056,1174,o),
(1308,1277,o),
(1337,1508,cs),
(1368,1747,o),
(1093,1842,o),
(629,1848,c),
(509,1163,l)
);
},
{
closed = 1;
nodes = (
(613,1868,l),
(1093,1864,o),
(1390,1764,o),
(1357,1506,cs),
(1326,1258,o),
(1054,1152,o),
(485,1143,c)
);
}
);
vertWidth = 0;
width = 1490;
},
{
layerId = m002;
shapes = (
{
closed = 1;
nodes = (
(1756,1837,o),
(1429,2008,o),
(626,2008,cs),
(548,2008,o),
(474,1982,o),
(453,1864,cs),
(158,188,ls),
(139,80,o),
(219,0,o),
(311,0,cs),
(1221,0,o),
(1540,83,o),
(1607,538,cs),
(1643,785,o),
(1556,965,o),
(1398,1076,c),
(1664,1173,o),
(1709,1321,o),
(1723,1471,cs)
);
},
{
closed = 1;
nodes = (
(1669,1325,o),
(1628,1194,o),
(1358,1105,cs),
(1319,1092,o),
(1319,1081,o),
(1359,1055,cs),
(1517,952,o),
(1603,786,o),
(1567,544,cs),
(1504,117,o),
(1213,40,o),
(311,40,cs),
(238,40,o),
(183,97,o),
(198,180,cs),
(493,1858,ls),
(509,1950,o),
(558,1968,o),
(626,1968,cs),
(1415,1968,o),
(1714,1812,o),
(1683,1475,cs)
);
},
{
closed = 1;
nodes = (
(1066,331,o),
(1235,394,o),
(1264,598,cs),
(1297,829,o),
(1195,968,o),
(643,921,c),
(537,319,l)
);
},
{
closed = 1;
nodes = (
(608,959,l),
(1213,1015,o),
(1342,848,o),
(1304,592,cs),
(1269,355,o),
(1065,287,o),
(489,279,c)
);
},
{
closed = 1;
nodes = (
(1369,1228,o),
(1369,1400,o),
(1370,1489,cs),
(1371,1586,o),
(1309,1670,o),
(778,1686,c),
(699,1242,l)
);
},
{
closed = 1;
nodes = (
(744,1727,l),
(1333,1713,o),
(1411,1606,o),
(1410,1489,cs),
(1409,1396,o),
(1413,1179,o),
(652,1204,c)
);
}
);
vertWidth = 0;
width = 1668;
},
{
associatedMasterId = m01;
layerId = "C390BF64-4B74-44D2-936D-D44319E19B75";
name = background;
shapes = (
{
closed = 1;
nodes = (
(472,361,o),
(539,436,o),
(557,564,cs),
(576,704,o),
(430,772,o),
(175,772,c),
(185,718,l),
(373,718,o),
(512,675,o),
(498,567,cs),
(486,481,o),
(438,416,o),
(133,416,c),
(124,361,l)
);
},
{
closed = 1;
nodes = (
(373,0,o),
(470,42,o),
(488,171,cs),
(508,321,o),
(366,416,o),
(128,416,c),
(120,361,l),
(334,361,o),
(444,284,o),
(430,179,cs),
(416,74,o),
(285,55,o),
(69,55,c),
(39,0,l)
);
},
{
closed = 1;
nodes = (
(204,762,o),
(197,772,o),
(175,772,cs),
(154,772,o),
(145,764,o),
(140,740,cs),
(17,37,ls),
(13,17,o),
(25,0,o),
(45,0,cs),
(62,0,o),
(71,11,o),
(76,34,cs),
(200,735,ls)
);
}
);
vertWidth = 0;
width = 594;
}
);
metricLeft = B;
metricRight = B;
metricTop = B;
metricVertOrigin = B;
},
{
color = 10;
glyphname = C.ss02;
kernLeft = KO_C.ss02;
kernRight = KO_C.ss02;
lastChange = "2023-09-26 15:20:40 +0000";
layers = (
{
layerId = m01;
shapes = (
{
closed = 1;
nodes = (
(793,-20,o),
(1030,135,o),
(1286,517,cs),
(1353,616,o),
(1355,636,o),
(1355,655,cs),
(1355,698,o),
(1319,728,o),
(1278,728,cs),
(1223,728,o),
(1194,695,o),
(1142,617,cs),
(901,275,o),
(726,156,o),
(539,156,cs),
(352,156,o),
(310,308,o),
(310,424,cs),
(310,647,o),
(372,955,o),
(393,1077,cs),
(466,1444,o),
(573,1835,o),
(1299,1835,cs),
(1495,1835,o),
(1515,1837,o),
(1548,1856,cs),
(1588,1879,o),
(1594,1955,o),
(1554,1983,cs),
(1525,2003,o),
(1495,2008,o),
(1301,2008,cs),
(450,2008,o),
(298,1543,o),
(209,1048,cs),
(199,985,o),
(136,628,o),
(136,427,cs),
(136,213,o),
(232,-20,o),
(542,-20,cs)
);
},
{
closed = 1;
nodes = (
(247,0,o),
(156,218,o),
(156,427,cs),
(156,626,o),
(219,981,o),
(229,1044,cs),
(318,1538,o),
(465,1988,o),
(1301,1988,cs),
(1493,1988,o),
(1518,1984,o),
(1542,1967,cs),
(1572,1946,o),
(1567,1890,o),
(1538,1874,cs),
(1509,1857,o),
(1493,1855,o),
(1299,1855,cs),
(557,1855,o),
(446,1448,o),
(373,1081,cs),
(352,959,o),
(290,649,o),
(290,424,cs),
(290,305,o),
(336,136,o),
(539,136,cs),
(733,136,o),
(915,260,o),
(1158,605,cs),
(1210,683,o),
(1232,708,o),
(1278,708,cs),
(1310,708,o),
(1335,687,o),
(1335,655,cs),
(1335,638,o),
(1333,623,o),
(1270,529,cs),
(1016,150,o),
(786,0,o),
(542,0,cs)
);
}
);
vertWidth = 0;
width = 1429;
},
{
layerId = m002;
shapes = (
{
closed = 1;
nodes = (
(887,-20,o),
(1184,142,o),
(1435,514,cs),
(1504,616,o),
(1517,658,o),
(1514,689,cs),
(1505,771,o),
(1435,821,o),
(1353,834,cs),
(1271,847,o),
(1236,811,o),
(1158,699,cs),
(939,384,o),
(781,296,o),
(633,296,cs),
(531,296,o),
(473,369,o),
(473,471,cs),
(473,672,o),
(528,948,o),
(546,1055,cs),
(610,1396,o),
(733,1692,o),
(1423,1692,cs),
(1551,1692,o),
(1610,1691,o),
(1652,1726,cs),
(1731,1793,o),
(1731,1905,o),
(1685,1948,cs),
(1619,2010,o),
(1555,2008,o),
(1428,2008,cs),
(485,2008,o),
(276,1534,o),
(191,1057,cs),
(178,995,o),
(124,670,o),
(124,473,cs),
(124,254,o),
(248,-20,o),
(615,-20,cs)
);
},
{
closed = 1;
nodes = (
(276,20,o),
(164,264,o),
(164,473,cs),
(164,666,o),
(218,987,o),
(231,1049,cs),
(314,1521,o),
(513,1968,o),
(1428,1968,cs),
(1553,1968,o),
(1610,1971,o),
(1656,1920,cs),
(1686,1887,o),
(1690,1813,o),
(1632,1760,cs),
(1597,1728,o),
(1547,1732,o),
(1423,1732,cs),
(704,1732,o),
(572,1409,o),
(506,1063,cs),
(488,956,o),
(433,676,o),
(433,471,cs),
(433,352,o),
(509,256,o),
(633,256,cs),
(793,256,o),
(964,353,o),
(1190,675,cs),
(1265,782,o),
(1287,807,o),
(1353,794,cs),
(1420,781,o),
(1465,748,o),
(1474,689,cs),
(1478,661,o),
(1464,629,o),
(1401,536,cs),
(1157,174,o),
(875,20,o),
(615,20,cs)
);
}
);
vertWidth = 0;
width = 1571;
}
);
metricLeft = C;
metricRight = C;
metricTop = C;
metricVertOrigin = C;
},
{
color = 10;
glyphname = D.ss02;
kernLeft = KO_H.ss02;
kernRight = KO_D;
lastChange = "2023-09-26 15:20:40 +0000";
layers = (
{
layerId = m01;
shapes = (
{
closed = 1;
nodes = (
(1611,1683,o),
(1251,2008,o),
(673,2008,cs),
(566,2008,ls),
(492,2008,o),
(472,1968,o),
(463,1917,cs),
(141,95,ls),
(132,42,o),
(159,0,o),
(223,0,cs),
(421,0,ls),
(1019,0,o),
(1437,371,o),
(1529,1063,cs)
);
},
{
closed = 1;
nodes = (
(1419,382,o),
(1010,20,o),
(421,20,cs),
(223,20,ls),
(171,20,o),
(153,48,o),
(161,91,cs),
(483,1913,ls),
(491,1961,o),
(505,1988,o),
(566,1988,cs),
(673,1988,ls),
(1241,1988,o),
(1589,1674,o),
(1509,1065,cs)
);
},
{
closed = 1;
nodes = (
(421,163,ls),
(916,163,o),
(1281,465,o),
(1353,1086,cs),
(1412,1577,o),
(1150,1824,o),
(681,1824,cs),
(625,1824,l),
(332,163,l)
);
},
{
closed = 1;
nodes = (
(609,1844,l),
(681,1844,ls),
(1160,1844,o),
(1434,1586,o),
(1373,1084,cs),
(1299,454,o),
(925,143,o),
(421,143,cs),
(308,143,l)
);
}
);
vertWidth = 0;
width = 1549;
},
{
layerId = m002;
shapes = (
{
closed = 1;
nodes = (
(1774,1625,o),
(1390,2008,o),
(782,2008,cs),
(629,2008,ls),
(521,2008,o),
(469,1957,o),
(453,1864,cs),
(155,175,ls),
(138,78,o),
(205,0,o),
(311,0,cs),
(552,0,ls),
(1158,0,o),
(1608,386,o),
(1702,1082,cs)
);
},
{
closed = 1;
nodes = (
(1570,408,o),
(1140,40,o),
(552,40,cs),
(311,40,ls),
(226,40,o),
(182,93,o),
(195,167,cs),
(493,1858,ls),
(507,1935,o),
(539,1968,o),
(629,1968,cs),
(782,1968,ls),
(1369,1968,o),
(1732,1608,o),
(1662,1088,cs)
);
},
{
closed = 1;
nodes = (
(552,316,ls),
(988,316,o),
(1292,556,o),
(1363,1085,cs),
(1412,1456,o),
(1214,1692,o),
(798,1692,cs),
(775,1692,l),
(532,316,l)
);
},
{
closed = 1;
nodes = (
(741,1732,l),
(798,1732,ls),
(1237,1732,o),
(1454,1471,o),
(1403,1079,cs),
(1329,533,o),
(1005,276,o),
(552,276,cs),
(484,276,l)
);
}
);
vertWidth = 0;
width = 1758;
}
);
metricLeft = D;
metricRight = D;
metricTop = D;
metricVertOrigin = D;
},
{
color = 10;
glyphname = E.ss02;
kernLeft = KO_H.ss02;
kernRight = KO_E.ss02;
lastChange = "2023-09-26 19:06:23 +0000";
layers = (
{
layerId = m01;
shapes = (
{
closed = 1;
nodes = (
(132,42,o),
(160,0,o),
(224,0,cs),
(1181,0,ls),
(1251,0,o),
(1272,43,o),
(1272,85,cs),
(1272,126,o),
(1251,163,o),
(1181,163,cs),
(334,163,l),
(482,1001,l),
(1256,1001,ls),
(1325,1001,o),
(1346,1041,o),
(1346,1081,cs),
(1346,1124,o),
(1325,1164,o),
(1256,1164,cs),
(510,1164,l),
(631,1848,l),
(1493,1848,ls),
(1562,1848,o),
(1584,1887,o),
(1584,1928,cs),
(1584,1968,o),
(1562,2008,o),
(1493,2008,cs),
(567,2008,ls),
(492,2008,o),
(472,1968,o),
(463,1917,cs),
(141,95,ls)
);
},
{
closed = 1;
nodes = (
(482,1913,ls),
(490,1961,o),
(505,1988,o),
(567,1988,cs),
(1493,1988,ls),
(1549,1988,o),
(1564,1961,o),
(1564,1928,cs),
(1564,1894,o),
(1549,1868,o),
(1493,1868,cs),
(614,1868,l),
(486,1144,l),
(1256,1144,ls),
(1312,1144,o),
(1326,1118,o),
(1326,1081,cs),
(1326,1047,o),
(1312,1021,o),
(1256,1021,cs),
(464,1021,l),
(309,143,l),
(1181,143,ls),
(1238,143,o),
(1252,119,o),
(1252,85,cs),
(1252,48,o),
(1238,20,o),
(1181,20,cs),
(224,20,ls),
(172,20,o),
(153,48,o),
(161,91,cs)
);
}
);
vertWidth = 0;
width = 1454;
},
{
layerId = m002;
shapes = (
{
closed = 1;
nodes = (
(139,82,o),
(181,0,o),
(290,0,cs),
(1362,0,ls),
(1486,0,o),
(1535,69,o),
(1535,173,cs),
(1535,275,o),
(1497,334,o),
(1367,334,cs),
(534,334,l),
(638,920,l),
(1433,920,ls),
(1568,920,o),
(1622,994,o),
(1622,1083,cs),
(1622,1181,o),
(1578,1243,o),
(1449,1243,cs),
(695,1243,l),
(771,1674,l),
(1661,1674,ls),
(1776,1674,o),
(1838,1762,o),
(1838,1853,cs),
(1838,1942,o),
(1785,2008,o),
(1667,2008,cs),
(637,2008,ls),
(535,2008,o),
(472,1968,o),
(455,1871,cs),
(156,176,ls)
);
},
{
closed = 1;
nodes = (
(495,1865,ls),
(509,1942,o),
(549,1968,o),
(637,1968,cs),
(1667,1968,ls),
(1766,1968,o),
(1798,1923,o),
(1798,1853,cs),
(1798,1779,o),
(1755,1714,o),
(1661,1714,cs),
(737,1714,l),
(647,1203,l),
(1449,1203,ls),
(1560,1203,o),
(1582,1160,o),
(1582,1083,cs),
(1582,1014,o),
(1550,960,o),
(1433,960,cs),
(604,960,l),
(486,294,l),
(1367,294,ls),
(1478,294,o),
(1495,256,o),
(1495,173,cs),
(1495,88,o),
(1467,40,o),
(1362,40,cs),
(290,40,ls),
(208,40,o),
(182,91,o),
(196,170,cs)
);
}
);
vertWidth = 0;
width = 1720;
},
{
associatedMasterId = m01;
layerId = "7D81A9B3-6763-4C6E-8CF8-C1959E1CDD3E";
name = background;
shapes = (
{
closed = 1;
nodes = (
(203,757,o),
(201,772,o),
(176,772,cs),
(150,772,o),
(144,759,o),
(140,740,c),
(15,32,l),
(12,14,o),
(21,0,o),
(43,0,cs),
(69,0,o),
(74,18,o),
(76,30,c),
(200,735,l)
);
},
{
closed = 1;
nodes = (
(441,0,ls),
(465,0,o),
(472,17,o),
(472,31,cs),
(472,45,o),
(465,59,o),
(441,59,cs),
(53,59,l),
(44,0,l)
);
},
{
closed = 1;
nodes = (
(472,361,ls),
(495,361,o),
(503,374,o),
(503,388,cs),
(503,403,o),
(495,416,o),
(472,416,cs),
(110,416,l),
(101,361,l)
);
},
{
closed = 1;
nodes = (
(569,713,ls),
(593,713,o),
(600,728,o),
(600,743,cs),
(600,757,o),
(593,772,o),
(569,772,cs),
(181,772,l),
(170,713,l)
);
}
);
vertWidth = 0;
width = 594;
},
{
associatedMasterId = m002;
layerId = "BD7EF2B7-F3AE-423E-98C0-14594FE969C3";
name = background;
shapes = (
{
closed = 1;
nodes = (
(25,26,o),
(39,0,o),
(75,0,cs),
(113,0,o),
(146,21,o),
(151,48,cs),
(267,709,ls),
(276,758,o),
(245,772,o),
(211,772,cs),
(175,772,o),
(154,759,o),
(149,726,cs),
(31,59,ls)
);
},
{
closed = 1;
nodes = (
(546,78,o),
(527,95,o),
(489,95,cs),
(100,95,l),
(83,0,l),
(487,0,ls),
(523,0,o),
(546,19,o),
(546,50,cs)
);
},
{
closed = 1;
nodes = (
(573,397,o),
(550,416,o),
(514,416,cs),
(157,416,l),
(138,315,l),
(508,315,ls),
(546,315,o),
(573,337,o),
(573,366,cs)
);
},
{
closed = 1;
nodes = (
(665,750,o),
(644,772,o),
(607,772,cs),
(220,772,l),
(201,659,l),
(605,659,ls),
(640,659,o),
(665,689,o),
(665,720,cs)
);
}
);
vertWidth = 0;
width = 594;
}
);
metricLeft = E;
metricRight = E;
metricTop = E;
metricVertOrigin = E;
},
{
color = 10;
glyphname = F.ss02;
kernLeft = KO_L.ss02;
kernRight = KO_F.ss02;
lastChange = "2023-09-27 02:24:45 +0000";
layers = (
{
layerId = m01;
shapes = (
{
closed = 1;
nodes = (
(134,42,o),
(161,0,o),
(226,0,cs),
(301,0,o),
(315,55,o),
(320,86,cs),
(481,1001,l),
(1243,1001,ls),
(1313,1001,o),
(1334,1041,o),
(1334,1081,cs),
(1334,1124,o),
(1313,1164,o),
(1243,1164,cs),
(510,1164,l),
(630,1848,l),
(1460,1848,ls),
(1529,1848,o),
(1550,1887,o),
(1550,1928,cs),
(1550,1968,o),
(1529,2008,o),
(1460,2008,cs),
(568,2008,ls),
(493,2008,o),
(472,1968,o),
(463,1917,cs),
(143,95,ls)
);
},
{
closed = 1;
nodes = (
(484,1913,ls),
(492,1961,o),
(506,1988,o),
(568,1988,cs),
(1460,1988,ls),
(1516,1988,o),
(1530,1962,o),
(1530,1928,cs),
(1530,1894,o),
(1516,1868,o),
(1460,1868,cs),
(615,1868,l),
(488,1144,l),
(1243,1144,ls),
(1300,1144,o),
(1314,1118,o),
(1314,1081,cs),
(1314,1047,o),
(1300,1021,o),
(1243,1021,cs),
(466,1021,l),
(302,90,ls),
(297,59,o),
(285,20,o),
(226,20,cs),
(173,20,o),
(155,48,o),
(163,91,cs)
);
}
);
vertWidth = 0;
width = 1367;
},
{
layerId = m002;
shapes = (
{
closed = 1;
nodes = (
(142,100,o),
(171,0,o),
(287,0,cs),
(414,0,o),
(489,73,o),
(507,176,cs),
(639,922,l),
(1422,922,ls),
(1547,922,o),
(1593,990,o),
(1593,1075,cs),
(1593,1165,o),
(1553,1243,o),
(1427,1243,cs),
(696,1243,l),
(770,1674,l),
(1618,1674,ls),
(1742,1674,o),
(1805,1744,o),
(1805,1848,cs),
(1805,1944,o),
(1761,2008,o),
(1634,2008,cs),
(630,2008,ls),
(525,2008,o),
(471,1965,o),
(454,1869,cs),
(158,190,ls)
);
},
{
closed = 1;
nodes = (
(494,1863,ls),
(508,1941,o),
(541,1968,o),
(630,1968,cs),
(1634,1968,ls),
(1742,1968,o),
(1765,1925,o),
(1765,1848,cs),
(1765,1765,o),
(1725,1714,o),
(1618,1714,cs),
(736,1714,l),
(648,1203,l),
(1427,1203,ls),
(1530,1203,o),
(1553,1150,o),
(1553,1075,cs),
(1553,1008,o),
(1526,962,o),
(1422,962,cs),
(605,962,l),
(467,182,ls),
(452,95,o),
(396,40,o),
(287,40,cs),
(203,40,o),
(184,104,o),
(198,182,cs)
);
}
);
vertWidth = 0;
width = 1618;
},
{
associatedMasterId = m01;
layerId = "F9C33966-9A92-4AEC-87C7-153E19327B3B";
name = background;
shapes = (
{
closed = 1;
nodes = (
(203,757,o),
(201,772,o),
(176,772,cs),
(150,772,o),
(144,759,o),
(140,740,cs),
(15,32,ls),
(12,14,o),
(21,0,o),
(43,0,cs),
(69,0,o),
(74,18,o),
(76,30,cs),
(200,735,ls)
);
},
{
closed = 1;
nodes = (
(470,361,ls),
(494,361,o),
(501,374,o),
(501,388,cs),
(501,403,o),
(494,416,o),
(470,416,cs),
(119,416,l),
(110,361,l)
);
},
{
closed = 1;
nodes = (
(569,713,ls),
(593,713,o),
(600,728,o),
(600,743,cs),
(600,757,o),
(593,772,o),
(569,772,cs),
(177,772,l),
(169,713,l)
);
}
);
vertWidth = 0;
width = 594;
}
);
metricLeft = F;
metricRight = F;
metricTop = F;
metricVertOrigin = F;
},
{
color = 10;
glyphname = G.ss02;
kernLeft = KO_G;
kernRight = KO_G;
lastChange = "2023-09-26 15:20:40 +0000";
layers = (
{
layerId = m01;
shapes = (
{
closed = 1;
nodes = (
(676,-20,o),
(930,275,o),
(1173,626,c),
(1080,95,ls),
(1073,56,o),
(1085,0,o),
(1156,0,cs),
(1237,0,o),
(1253,57,o),
(1259,91,cs),
(1418,997,ls),
(1428,1055,o),
(1410,1092,o),
(1348,1092,cs),
(1287,1092,o),
(1257,1079,o),
(1232,1038,cs),
(1186,962,o),
(1168,930,o),
(1077,794,cs),
(963,619,o),
(649,143,o),
(440,143,cs),
(336,143,o),
(310,277,o),
(310,416,cs),
(310,618,o),
(367,955,o),
(401,1122,cs),
(466,1444,o),
(596,1848,o),
(1319,1848,cs),
(1494,1848,ls),
(1545,1848,o),
(1582,1880,o),
(1582,1928,cs),
(1582,1969,o),
(1549,2008,o),
(1507,2008,cs),
(1325,2008,ls),
(472,2008,o),
(298,1543,o),
(209,1048,cs),
(199,985,o),
(136,628,o),
(136,432,cs),
(136,213,o),
(216,-20,o),
(430,-20,cs)
);
},
{
closed = 1;
nodes = (
(231,0,o),
(156,218,o),
(156,432,cs),
(156,626,o),
(219,981,o),
(229,1044,cs),
(318,1537,o),
(486,1988,o),
(1325,1988,cs),
(1507,1988,ls),
(1538,1988,o),
(1562,1960,o),
(1562,1928,cs),
(1562,1891,o),
(1536,1868,o),
(1494,1868,cs),
(1319,1868,ls),
(581,1868,o),
(446,1449,o),
(381,1126,cs),
(347,959,o),
(290,620,o),
(290,416,cs),
(290,274,o),
(319,123,o),
(440,123,cs),
(661,123,o),
(979,609,o),
(1093,782,cs),
(1184,920,o),
(1204,952,o),
(1250,1028,cs),
(1271,1063,o),
(1292,1072,o),
(1348,1072,cs),
(1397,1072,o),
(1407,1050,o),
(1398,1001,cs),
(1239,95,ls),
(1233,61,o),
(1221,20,o),
(1156,20,cs),
(1102,20,o),
(1094,57,o),
(1100,91,cs),
(1201,669,ls),
(1206,700,o),
(1203,705,o),
(1184,677,cs),
(934,310,o),
(676,0,o),
(430,0,cs)
);
}
);
vertWidth = 0;
width = 1559;
},
{
layerId = m002;
shapes = (
{
closed = 1;
nodes = (
(689,-20,o),
(888,156,o),
(1060,380,c),
(1023,174,ls),
(1003,65,o),
(1077,0,o),
(1194,0,cs),
(1315,0,o),
(1349,66,o),
(1363,147,cs),
(1510,985,ls),
(1529,1092,o),
(1470,1164,o),
(1359,1164,cs),
(1289,1164,o),
(1247,1151,o),
(1192,1084,cs),
(1153,1038,o),
(1106,964,o),
(1031,849,cs),
(925,682,o),
(660,296,o),
(515,296,cs),
(482,296,o),
(467,366,o),
(467,479,cs),
(467,659,o),
(522,935,o),
(551,1091,cs),
(602,1387,o),
(716,1712,o),
(1332,1712,cs),
(1496,1712,ls),
(1602,1712,o),
(1664,1786,o),
(1664,1875,cs),
(1664,1962,o),
(1605,2028,o),
(1506,2028,cs),
(1337,2028,ls),
(469,2028,o),
(275,1534,o),
(191,1057,cs),
(178,995,o),
(123,657,o),
(123,466,cs),
(123,238,o),
(203,-20,o),
(476,-20,cs)
);
},
{
closed = 1;
nodes = (
(234,20,o),
(163,247,o),
(163,466,cs),
(163,653,o),
(218,987,o),
(231,1049,cs),
(313,1522,o),
(498,1988,o),
(1337,1988,cs),
(1506,1988,ls),
(1586,1988,o),
(1624,1942,o),
(1624,1875,cs),
(1624,1805,o),
(1583,1752,o),
(1496,1752,cs),
(1332,1752,ls),
(687,1752,o),
(564,1398,o),
(511,1099,cs),
(482,943,o),
(427,663,o),
(427,479,cs),
(427,359,o),
(447,256,o),
(515,256,cs),
(686,256,o),
(960,661,o),
(1065,827,cs),
(1140,942,o),
(1185,1014,o),
(1222,1058,cs),
(1270,1116,o),
(1296,1124,o),
(1359,1124,cs),
(1449,1124,o),
(1485,1078,o),
(1470,991,cs),
(1323,153,ls),
(1311,82,o),
(1289,40,o),
(1194,40,cs),
(1096,40,o),
(1048,83,o),
(1063,168,cs),
(1118,483,ls),
(1127,533,o),
(1122,533,o),
(1092,492,cs),
(908,235,o),
(698,20,o),
(476,20,cs)
);
}
);
vertOrigin = -20;
vertWidth = 20;
width = 1652;
}
);
metricLeft = G;
metricRight = G;
metricTop = G;
metricVertOrigin = G;
},
{
color = 10;
glyphname = H.ss02;
kernLeft = KO_H.ss02;
kernRight = KO_H;
lastChange = "2023-09-26 15:20:40 +0000";
layers = (
{
layerId = m01;
shapes = (
{
closed = 1;
nodes = (
(299,0,o),
(315,55,o),
(320,86,cs),
(481,1001,l),
(1340,1001,l),
(1180,95,ls),
(1173,56,o),
(1181,0,o),
(1260,0,cs),
(1327,0,o),
(1348,45,o),
(1353,76,cs),
(1676,1908,ls),
(1686,1966,o),
(1663,2008,o),
(1594,2008,cs),
(1533,2008,o),
(1510,1967,o),
(1504,1932,cs),
(1368,1164,l),
(510,1164,l),
(640,1901,ls),
(651,1963,o),
(625,2008,o),
(566,2008,cs),
(500,2008,o),
(472,1969,o),
(463,1917,cs),
(141,95,ls),
(132,42,o),
(159,0,o),
(223,0,cs)
);
},
{
closed = 1;
nodes = (
(171,20,o),
(153,48,o),
(161,91,cs),
(483,1913,ls),
(491,1960,o),
(511,1988,o),
(566,1988,cs),
(612,1988,o),
(630,1957,o),
(620,1903,cs),
(486,1144,l),
(1385,1144,l),
(1523,1928,ls),
(1528,1958,o),
(1545,1988,o),
(1594,1988,cs),
(1650,1988,o),
(1664,1960,o),
(1656,1912,cs),
(1333,80,ls),
(1328,52,o),
(1314,20,o),
(1260,20,cs),
(1198,20,o),
(1193,57,o),
(1199,91,cs),
(1363,1021,l),
(465,1021,l),
(301,90,ls),
(296,59,o),
(283,20,o),
(223,20,cs)
);
}
);
vertWidth = 0;
width = 1655;
},
{
layerId = m002;
shapes = (
{
closed = 1;
nodes = (
(437,0,o),
(490,58,o),
(505,142,cs),
(644,920,l),
(1323,920,l),
(1194,174,ls),
(1175,62,o),
(1239,0,o),
(1352,0,cs),
(1452,0,o),
(1524,48,o),
(1539,131,cs),
(1838,1828,ls),
(1861,1957,o),
(1782,2008,o),
(1675,2008,cs),
(1580,2008,o),
(1507,1970,o),
(1491,1878,cs),
(1379,1243,l),
(700,1243,l),
(800,1821,ls),
(823,1956,o),
(754,2008,o),
(652,2008,cs),
(562,2008,o),
(473,1978,o),
(453,1864,cs),
(155,175,ls),
(135,63,o),
(211,0,o),
(321,0,cs)
);
},
{
closed = 1;
nodes = (
(230,40,o),
(180,79,o),
(195,167,cs),
(493,1858,ls),
(509,1948,o),
(574,1968,o),
(652,1968,cs),
(735,1968,o),
(779,1939,o),
(760,1827,cs),
(652,1203,l),
(1413,1203,l),
(1531,1870,ls),
(1544,1944,o),
(1595,1968,o),
(1675,1968,cs),
(1763,1968,o),
(1816,1938,o),
(1798,1836,cs),
(1499,137,ls),
(1488,72,o),
(1436,40,o),
(1352,40,cs),
(1260,40,o),
(1218,77,o),
(1234,168,cs),
(1371,960,l),
(610,960,l),
(465,148,ls),
(452,77,o),
(415,40,o),
(321,40,cs)
);
}
);
vertWidth = 0;
width = 1831;
}
);
metricLeft = H;
metricRight = H;
metricTop = H;
metricVertOrigin = H;
},
{
color = 10;
glyphname = I.ss02;
kernLeft = KO_I.ss02;
kernRight = KO_I;
lastChange = "2023-09-26 19:06:22 +0000";
layers = (
{
layerId = m01;
shapes = (
{
closed = 1;
nodes = (
(115,40,o),
(139,0,o),
(206,0,cs),
(482,0,ls),
(551,0,o),
(572,40,o),
(572,80,cs),
(572,123,o),
(551,163,o),
(482,163,cs),
(449,163,l),
(745,1848,l),
(811,1848,ls),
(880,1848,o),
(901,1891,o),
(901,1930,cs),
(901,1971,o),
(880,2008,o),
(811,2008,cs),
(537,2008,ls),
(468,2008,o),
(447,1971,o),
(447,1930,cs),
(447,1891,o),
(468,1848,o),
(537,1848,cs),
(568,1848,l),
(271,163,l),
(206,163,ls),
(139,163,o),
(115,123,o),
(115,80,cs)
);
},
{
closed = 1;
nodes = (
(135,116,o),
(152,143,o),
(206,143,cs),
(289,143,l),
(592,1868,l),
(537,1868,ls),
(481,1868,o),
(467,1896,o),
(467,1930,cs),
(467,1964,o),
(481,1988,o),
(537,1988,cs),
(811,1988,ls),
(867,1988,o),
(881,1964,o),
(881,1930,cs),
(881,1896,o),
(867,1868,o),
(811,1868,cs),
(729,1868,l),
(425,143,l),
(482,143,ls),
(538,143,o),
(552,117,o),
(552,80,cs),
(552,46,o),
(538,20,o),
(482,20,cs),
(206,20,ls),
(152,20,o),
(135,47,o),
(135,80,cs)
);
}
);
vertWidth = 0;
width = 853;
},
{
layerId = m002;
shapes = (
{
closed = 1;
nodes = (
(85,57,o),
(145,0,o),
(231,0,cs),
(536,0,ls),
(649,0,o),
(690,57,o),
(704,137,cs),
(719,224,o),
(673,282,o),
(606,282,cs),
(603,282,l),
(857,1721,l),
(858,1721,ls),
(969,1721,o),
(1005,1788,o),
(1019,1868,cs),
(1034,1957,o),
(970,2008,o),
(887,2008,cs),
(585,2008,ls),
(479,2008,o),
(427,1958,o),
(414,1874,cs),
(400,1796,o),
(446,1722,o),
(503,1722,cs),
(505,1722,l),
(251,282,l),
(246,282,ls),
(164,282,o),
(111,223,o),
(100,143,cs)
);
},
{
closed = 1;
nodes = (
(149,203,o),
(182,242,o),
(265,242,cs),
(285,242,l),
(553,1762,l),
(526,1762,ls),
(474,1762,o),
(443,1807,o),
(454,1868,cs),
(464,1936,o),
(497,1968,o),
(585,1968,cs),
(887,1968,ls),
(953,1968,o),
(990,1938,o),
(979,1874,cs),
(967,1806,o),
(934,1761,o),
(845,1761,cs),
(823,1761,l),
(555,242,l),
(580,242,ls),
(646,242,o),
(676,209,o),
(664,143,cs),
(652,75,o),
(627,40,o),
(536,40,cs),
(231,40,ls),
(164,40,o),
(129,74,o),
(140,137,cs)
);
}
);
vertWidth = 0;
width = 955;
}
);
metricLeft = I;
metricRight = I;
metricTop = I;
metricVertOrigin = I;
},
{
color = 10;
glyphname = J.ss02;
kernLeft = KO_J.ss04;
kernRight = KO_J.ss04;
lastChange = "2023-09-26 15:20:21 +0000";
layers = (
{
layerId = m01;
shapes = (
{
closed = 1;
nodes = (
(-79,33,o),
(-35,0,o),
(6,0,cs),
(102,0,o),
(280,3,o),
(337,10,cs),
(689,53,o),
(818,255,o),
(912,791,cs),
(1098,1848,l),
(1429,1848,ls),
(1499,1848,o),
(1520,1887,o),
(1520,1928,cs),
(1520,1968,o),
(1499,2008,o),
(1429,2008,cs),
(613,2008,ls),
(546,2008,o),
(522,1968,o),
(522,1928,cs),
(522,1887,o),
(546,1848,o),
(613,1848,cs),
(919,1848,l),
(741,837,ls),
(667,418,o),
(596,198,o),
(325,171,cs),
(245,163,o),
(82,163,o),
(6,163,cs),
(-34,163,o),
(-79,134,o),
(-79,85,cs)
);
},
{
closed = 1;
nodes = (
(-59,122,o),
(-27,143,o),
(6,143,cs),
(82,143,o),
(245,143,o),
(327,151,cs),
(612,180,o),
(686,413,o),
(761,836,cs),
(943,1868,l),
(613,1868,ls),
(558,1868,o),
(542,1894,o),
(542,1928,cs),
(542,1961,o),
(559,1988,o),
(613,1988,cs),
(1429,1988,ls),
(1486,1988,o),
(1500,1962,o),
(1500,1928,cs),
(1500,1894,o),
(1486,1868,o),
(1429,1868,cs),
(1082,1868,l),
(892,792,ls),
(799,264,o),
(676,71,o),
(335,30,cs),
(278,23,o),
(102,20,o),
(6,20,cs),
(-27,20,o),
(-59,44,o),
(-59,85,cs)
);
}
);
vertWidth = 0;
width = 1277;
},
{
layerId = m002;
shapes = (
{
closed = 1;
nodes = (
(-65,62,o),
(24,0,o),
(108,0,cs),
(199,0,o),
(435,5,o),
(493,13,cs),
(906,62,o),
(1048,373,o),
(1141,905,cs),
(1276,1674,l),
(1579,1674,ls),
(1703,1674,o),
(1755,1749,o),
(1755,1840,cs),
(1755,1937,o),
(1699,2008,o),
(1584,2008,cs),
(692,2008,ls),
(575,2008,o),
(518,1933,o),
(518,1840,cs),
(518,1743,o),
(575,1674,o),
(689,1674,cs),
(922,1674,l),
(795,950,ls),
(713,483,o),
(635,351,o),
(481,334,cs),
(408,324,o),
(171,318,o),
(108,318,cs),
(24,318,o),
(-65,250,o),
(-65,158,cs)
);
},
{
closed = 1;
nodes = (
(-25,228,o),
(40,278,o),
(108,278,cs),
(171,278,o),
(412,284,o),
(485,294,cs),
(662,314,o),
(751,467,o),
(835,944,cs),
(970,1714,l),
(689,1714,ls),
(594,1714,o),
(558,1762,o),
(558,1840,cs),
(558,1915,o),
(595,1968,o),
(692,1968,cs),
(1584,1968,ls),
(1680,1968,o),
(1715,1918,o),
(1715,1840,cs),
(1715,1767,o),
(1682,1714,o),
(1579,1714,cs),
(1242,1714,l),
(1101,911,ls),
(1009,386,o),
(877,99,o),
(487,53,cs),
(431,45,o),
(199,40,o),
(108,40,cs),
(39,40,o),
(-25,85,o),
(-25,158,cs)
);
}
);
vertWidth = 0;
width = 1529;
},
{
associatedMasterId = m01;
layerId = "06052F2C-BE0F-40BC-8081-A274CED33EF8";
name = background;
shapes = (
{
closed = 1;
nodes = (
(444,738,l),
(377,358,ls),
(362,276,o),
(352,191,o),
(317,134,cs),
(296,97,o),
(265,70,o),
(216,64,cs),
(184,61,o),
(74,55,o),
(45,55,cs),
(31,55,o),
(15,45,o),
(15,29,cs),
(15,11,o),
(31,0,o),
(45,0,cs),
(82,0,o),
(189,6,o),
(211,8,cs),
(295,19,o),
(339,55,o),
(368,102,cs),
(409,166,o),
(418,251,o),
(436,352,cs),
(505,738,l)
);
},
{
closed = 1;
nodes = (
(680,713,o),
(687,728,o),
(687,743,cs),
(687,757,o),
(680,772,o),
(656,772,cs),
(295,772,ls),
(271,772,o),
(264,757,o),
(264,743,cs),
(264,728,o),
(271,713,o),
(295,713,cs),
(656,713,ls)
);
}
);
vertWidth = 0;
width = 594;
},
{
associatedMasterId = m002;
layerId = "F37B6A25-0192-483E-B22B-1CA87C39BAD9";
name = background;
shapes = (
{
closed = 1;
nodes = (
(-88,21,o),
(-58,0,o),
(-30,0,cs),
(6,0,o),
(96,2,o),
(118,5,cs),
(208,17,o),
(257,57,o),
(287,105,cs),
(328,172,o),
(345,255,o),
(361,349,cs),
(424,709,l),
(303,709,l),
(244,364,ls),
(230,286,o),
(217,211,o),
(188,163,cs),
(170,132,o),
(152,118,o),
(115,113,cs),
(87,109,o),
(-5,107,o),
(-30,107,cs),
(-58,107,o),
(-88,84,o),
(-88,53,cs)
);
},
{
closed = 1;
nodes = (
(138,682,o),
(160,659,o),
(196,659,cs),
(538,659,ls),
(576,659,o),
(598,684,o),
(598,715,cs),
(598,748,o),
(575,772,o),
(539,772,cs),
(197,772,ls),
(160,772,o),
(138,747,o),
(138,715,cs)
);
}
);
vertWidth = 0;
width = 594;
}
);
metricLeft = J;
metricRight = J;
metricTop = J;
metricVertOrigin = J;
},
{
color = 10;
glyphname = K.ss02;
kernLeft = KO_R.ss02;
kernRight = KO_K.ss02;
lastChange = "2023-09-26 19:06:22 +0000";
layers = (
{
layerId = m01;
shapes = (
{
closed = 1;
nodes = (
(1585,1966,o),
(1561,2008,o),
(1510,2008,cs),
(1476,2008,o),
(1435,1990,o),
(1404,1962,cs),
(506,1145,l),
(638,1901,ls),
(648,1960,o),
(636,2008,o),
(567,2008,cs),
(499,2008,o),
(472,1970,o),
(463,1917,cs),
(144,111,ls),
(135,59,o),
(162,0,o),
(224,0,cs),
(297,0,o),
(315,63,o),
(322,105,cs),
(485,1035,l),
(1163,64,ls),
(1185,33,o),
(1215,0,o),
(1262,0,cs),
(1294,0,o),
(1331,20,o),
(1342,60,cs),
(1348,85,o),
(1342,113,o),
(1319,146,cs),
(669,1081,l),
(1519,1834,ls),
(1555,1866,o),
(1585,1898,o),
(1585,1930,cs)
);
},
{
closed = 1;
nodes = (
(1565,1906,o),
(1541,1880,o),
(1507,1850,cs),
(643,1085,l),
(1303,134,ls),
(1323,105,o),
(1327,85,o),
(1322,64,cs),
(1314,35,o),
(1287,20,o),
(1262,20,cs),
(1224,20,o),
(1200,45,o),
(1179,76,cs),
(499,1050,ls),
(482,1075,o),
(472,1075,o),
(467,1047,cs),
(301,107,ls),
(294,67,o),
(281,20,o),
(224,20,cs),
(176,20,o),
(156,63,o),
(164,107,cs),
(483,1913,ls),
(491,1960,o),
(511,1988,o),
(567,1988,cs),
(619,1988,o),
(628,1958,o),
(618,1903,cs),
(482,1131,l),
(478,1110,o),
(488,1102,o),
(514,1125,cs),
(1418,1948,ls),
(1447,1974,o),
(1481,1988,o),
(1510,1988,cs),
(1548,1988,o),
(1565,1959,o),
(1565,1930,cs)
);
}
);
vertWidth = 0;
width = 1487;
},
{
layerId = m002;
shapes = (
{
closed = 1;
nodes = (
(1749,1925,o),
(1696,2008,o),
(1593,2008,cs),
(1541,2008,o),
(1478,1999,o),
(1419,1946,cs),
(711,1310,l),
(797,1820,ls),
(820,1959,o),
(725,2008,o),
(642,2008,cs),
(554,2008,o),
(470,1964,o),
(453,1865,cs),
(158,189,ls),
(137,71,o),
(216,0,o),
(326,0,cs),
(434,0,o),
(490,53,o),
(508,154,cs),
(634,869,l),
(1187,87,ls),
(1226,32,o),
(1275,0,o),
(1341,0,cs),
(1409,0,o),
(1491,35,o),
(1507,112,cs),
(1514,154,o),
(1511,211,o),
(1477,260,cs),
(916,1067,l),
(1655,1702,ls),
(1711,1750,o),
(1732,1793,o),
(1738,1846,cs)
);
},
{
closed = 1;
nodes = (
(1694,1808,o),
(1678,1774,o),
(1629,1732,cs),
(862,1073,l),
(1445,238,ls),
(1473,198,o),
(1474,156,o),
(1467,120,cs),
(1456,65,o),
(1399,40,o),
(1341,40,cs),
(1286,40,o),
(1250,64,o),
(1219,109,cs),
(660,910,ls),
(623,964,o),
(609,962,o),
(596,889,cs),
(468,162,ls),
(453,74,o),
(414,40,o),
(326,40,cs),
(237,40,o),
(181,86,o),
(198,183,cs),
(493,1857,ls),
(507,1936,o),
(566,1968,o),
(642,1968,cs),
(713,1968,o),
(775,1935,o),
(757,1828,cs),
(663,1271,ls),
(654,1216,o),
(674,1215,o),
(716,1253,cs),
(1445,1916,ls),
(1500,1966,o),
(1547,1968,o),
(1593,1968,cs),
(1671,1968,o),
(1707,1913,o),
(1698,1850,cs)
);
}
);
vertWidth = 0;
width = 1613;
},
{
associatedMasterId = m01;
layerId = "E010F034-4598-4FE9-A40B-8BF5FC7CFE65";
name = background;
shapes = (
{
closed = 1;
nodes = (
(579,712,ls),
(593,723,o),
(599,735,o),
(601,746,cs),
(602,760,o),
(593,772,o),
(577,772,cs),
(568,773,o),
(555,769,o),
(541,757,cs),
(140,428,l),
(140,413,l),
(209,407,l)
);
},
{
closed = 1;
nodes = (
(140,423,l),
(141,410,l),
(411,23,ls),
(419,11,o),
(430,0,o),
(446,0,cs),
(457,0,o),
(469,7,o),
(473,20,cs),
(475,29,o),
(473,38,o),
(465,50,cs),
(207,421,l)
);
},
{
closed = 1;
nodes = (
(204,757,o),
(200,772,o),
(177,772,cs),
(153,772,o),
(145,759,o),
(141,740,cs),
(17,38,ls),
(13,20,o),
(23,0,o),
(44,0,cs),
(69,0,o),
(75,21,o),
(77,37,cs),
(201,735,ls)
);
}
);
vertWidth = 0;
width = 594;
}
);
metricLeft = K;
metricRight = K;
metricTop = K;
metricVertOrigin = K;
},
{
color = 10;
glyphname = L.ss02;
kernLeft = KO_L.ss02;
kernRight = KO_L.ss02;
lastChange = "2023-09-26 15:20:40 +0000";
layers = (
{
layerId = m01;
shapes = (
{
closed = 1;
nodes = (
(134,42,o),
(160,0,o),
(225,0,cs),
(1143,0,ls),
(1204,0,o),
(1231,42,o),
(1231,85,cs),
(1231,127,o),
(1203,163,o),
(1143,163,cs),
(333,163,l),
(639,1900,ls),
(650,1960,o),
(638,2008,o),
(567,2008,cs),
(498,2008,o),
(472,1969,o),
(463,1917,cs),
(143,95,ls)
);
},
{
closed = 1;
nodes = (
(483,1913,ls),
(491,1960,o),
(510,1988,o),
(567,1988,cs),
(621,1988,o),
(628,1954,o),
(619,1904,cs),
(309,143,l),
(1143,143,ls),
(1192,143,o),
(1211,119,o),
(1211,85,cs),
(1211,49,o),
(1192,20,o),
(1143,20,cs),
(225,20,ls),
(172,20,o),
(154,48,o),
(162,91,cs)
);
}
);
vertWidth = 0;
width = 1313;
},
{
layerId = m002;
shapes = (
{
closed = 1;
nodes = (
(138,76,o),
(202,0,o),
(307,0,cs),
(1376,0,ls),
(1504,0,o),
(1550,78,o),
(1550,163,cs),
(1550,247,o),
(1503,318,o),
(1376,318,cs),
(536,318,l),
(800,1821,ls),
(826,1968,o),
(734,2008,o),
(650,2008,cs),
(554,2008,o),
(470,1964,o),
(453,1865,cs),
(155,175,ls)
);
},
{
closed = 1;
nodes = (
(493,1857,ls),
(507,1936,o),
(566,1968,o),
(650,1968,cs),
(724,1968,o),
(780,1942,o),
(760,1827,cs),
(488,278,l),
(1376,278,ls),
(1484,278,o),
(1510,228,o),
(1510,163,cs),
(1510,96,o),
(1483,40,o),
(1376,40,cs),
(307,40,ls),
(223,40,o),
(182,91,o),
(195,167,cs)
);
}
);
vertWidth = 0;
width = 1660;
}
);
metricLeft = L;
metricRight = L;
metricTop = L;
metricVertOrigin = L;
},
{
color = 10;
glyphname = M.ss02;
kernLeft = KO_M.ss02;
kernRight = KO_M.ss02;
lastChange = "2023-09-26 15:17:46 +0000";
layers = (
{
layerId = m01;
shapes = (
{
closed = 1;
nodes = (
(110,0,o),
(150,24,o),
(180,84,cs),
(964,1638,l),
(1075,118,ls),
(1080,52,o),
(1093,0,o),
(1168,0,cs),
(1237,0,o),
(1265,57,o),
(1289,105,cs),
(2081,1681,l),
(2178,95,ls),
(2181,51,o),
(2199,0,o),
(2272,0,cs),
(2327,0,o),
(2358,39,o),
(2354,105,cs),
(2232,1913,ls),
(2229,1964,o),
(2221,2008,o),
(2123,2008,cs),
(2072,2008,o),
(2039,1963,o),
(2022,1929,cs),
(1224,348,l),
(1111,1926,ls),
(1108,1967,o),
(1086,2008,o),
(1022,2008,cs),
(961,2008,o),
(946,1967,o),
(926,1927,cs),
(16,131,ls),
(-3,93,o),
(-8,58,o),
(7,36,cs),
(19,16,o),
(46,0,o),
(72,0,cs)
);
},
{
closed = 1;
nodes = (
(52,20,o),
(33,31,o),
(23,46,cs),
(13,62,o),
(16,88,o),
(34,123,cs),
(944,1919,ls),
(964,1959,o),
(975,1988,o),
(1022,1988,cs),
(1073,1988,o),
(1088,1960,o),
(1091,1924,cs),
(1206,319,ls),
(1209,272,o),
(1212,279,o),
(1236,326,cs),
(2040,1921,ls),
(2057,1955,o),
(2084,1988,o),
(2123,1988,cs),
(2204,1988,o),
(2209,1961,o),
(2212,1911,cs),
(2334,103,ls),
(2338,47,o),
(2316,20,o),
(2272,20,cs),
(2214,20,o),
(2201,56,o),
(2198,97,cs),
(2099,1706,ls),
(2097,1736,o),
(2087,1737,o),
(2071,1705,cs),
(1271,113,ls),
(1247,65,o),
(1225,20,o),
(1168,20,cs),
(1109,20,o),
(1100,56,o),
(1095,120,cs),
(982,1671,ls),
(980,1702,o),
(973,1700,o),
(958,1671,cs),
(163,92,ls),
(136,39,o),
(103,20,o),
(72,20,cs)
);
}
);
vertWidth = 0;
width = 2516;
},
{
layerId = m002;
shapes = (
{
closed = 1;
nodes = (
(227,0,o),
(323,29,o),
(365,112,cs),
(963,1291,l),
(1042,165,ls),
(1050,58,o),
(1112,0,o),
(1219,0,cs),
(1353,0,o),
(1396,65,o),
(1430,133,cs),
(2025,1308,l),
(2105,161,ls),
(2111,69,o),
(2175,0,o),
(2283,0,cs),
(2386,0,o),
(2451,72,o),
(2443,183,cs),
(2324,1874,ls),
(2317,1968,o),
(2296,2008,o),
(2174,2008,cs),
(2049,2008,o),
(1999,1969,o),
(1962,1895,cs),
(1325,638,l),
(1239,1874,ls),
(1232,1970,o),
(1199,2008,o),
(1063,2008,cs),
(963,2008,o),
(924,1969,o),
(890,1902,cs),
(55,255,ls),
(12,170,o),
(16,120,o),
(39,76,cs),
(64,29,o),
(114,0,o),
(167,0,cs)
);
},
{
closed = 1;
nodes = (
(124,40,o),
(92,61,o),
(75,94,cs),
(56,130,o),
(53,163,o),
(91,237,cs),
(926,1884,ls),
(958,1947,o),
(984,1968,o),
(1063,1968,cs),
(1174,1968,o),
(1193,1955,o),
(1199,1872,cs),
(1289,591,ls),
(1293,530,o),
(1315,529,o),
(1345,589,cs),
(1998,1877,ls),
(2030,1940,o),
(2063,1968,o),
(2174,1968,cs),
(2266,1968,o),
(2278,1957,o),
(2284,1872,cs),
(2403,179,ls),
(2409,89,o),
(2365,40,o),
(2283,40,cs),
(2195,40,o),
(2149,88,o),
(2144,165,cs),
(2061,1345,ls),
(2055,1425,o),
(2044,1433,o),
(2002,1349,cs),
(1395,151,ls),
(1361,84,o),
(1329,40,o),
(1219,40,cs),
(1132,40,o),
(1088,78,o),
(1082,169,cs),
(1001,1333,ls),
(996,1408,o),
(977,1411,o),
(939,1335,cs),
(329,130,ls),
(296,64,o),
(219,40,o),
(167,40,cs)
);
}
);
vertWidth = 0;
width = 2603;
},
{
associatedMasterId = m01;
layerId = "821342D0-DD98-4007-9C88-2E342CE68D40";
name = background;
shapes = (
{
closed = 1;
nodes = (
(381,772,l),
(360,772,o),
(353,759,o),
(345,743,cs),
(-19,45,ls),
(-26,31,o),
(-26,19,o),
(-21,12,cs),
(-17,5,o),
(-8,0,o),
(1,0,cs),
(14,0,o),
(29,8,o),
(40,30,cs),
(392,704,l)
);
},
{
closed = 1;
nodes = (
(411,750,ls),
(410,759,o),
(402,772,o),
(380,772,c),
(356,694,l),
(410,29,ls),
(411,17,o),
(416,0,o),
(444,0,c),
(466,72,l)
);
},
{
closed = 1;
nodes = (
(466,0,o),
(475,20,o),
(480,29,cs),
(828,696,l),
(816,772,l),
(798,772,o),
(791,754,o),
(784,741,cs),
(436,72,l),
(442,0,l)
);
},
{
closed = 1;
nodes = (
(853,758,o),
(849,772,o),
(815,772,c),
(796,722,l),
(853,29,ls),
(854,17,o),
(860,0,o),
(885,0,c),
(904,0,o),
(914,13,o),
(912,31,cs),
(854,739,ls)
);
}
);
vertWidth = 0;
width = 594;
}
);
metricLeft = M;
metricRight = M;
metricTop = M;
metricVertOrigin = M;
},
{
color = 10;
glyphname = N.ss02;
kernLeft = KO_H.ss02;
kernRight = KO_H;
lastChange = "2023-09-26 15:17:28 +0000";
layers = (
{
layerId = m01;
shapes = (
{
closed = 1;
nodes = (
(1189,30,o),
(1219,0,o),
(1269,0,cs),
(1342,0,o),
(1352,56,o),
(1357,86,cs),
(1675,1900,ls),
(1686,1960,o),
(1674,2008,o),
(1606,2008,cs),
(1536,2008,o),
(1514,1968,o),
(1505,1917,cs),
(1235,381,l),
(666,1939,ls),
(655,1968,o),
(627,2008,o),
(566,2008,cs),
(492,2008,o),
(472,1968,o),
(463,1917,cs),
(141,95,ls),
(132,42,o),
(159,0,o),
(223,0,cs),
(299,0,o),
(313,57,o),
(319,94,cs),
(593,1666,l),
(1177,62,ls)
);
},
{
closed = 1;
nodes = (
(603,1698,ls),
(592,1729,o),
(583,1727,o),
(577,1695,cs),
(299,98,ls),
(293,61,o),
(283,20,o),
(223,20,cs),
(171,20,o),
(153,48,o),
(161,91,cs),
(483,1913,ls),
(491,1961,o),
(505,1988,o),
(566,1988,cs),
(616,1988,o),
(639,1958,o),
(648,1933,cs),
(1221,360,ls),
(1238,314,o),
(1245,317,o),
(1253,363,cs),
(1525,1913,ls),
(1533,1961,o),
(1549,1988,o),
(1606,1988,cs),
(1657,1988,o),
(1665,1959,o),
(1655,1904,cs),
(1337,90,ls),
(1332,60,o),
(1326,20,o),
(1269,20,cs),
(1228,20,o),
(1204,42,o),
(1195,68,cs)
);
}
);
vertOrigin = 1;
width = 1657;
},
{
layerId = m002;
shapes = (
{
closed = 1;
nodes = (
(1193,34,o),
(1255,0,o),
(1344,0,cs),
(1443,0,o),
(1491,33,o),
(1507,121,cs),
(1806,1820,ls),
(1825,1930,o),
(1768,2008,o),
(1653,2008,cs),
(1559,2008,o),
(1475,1963,o),
(1458,1865,cs),
(1262,753,l),
(788,1924,ls),
(758,1999,o),
(691,2008,o),
(623,2008,cs),
(536,2008,o),
(474,1979,o),
(457,1885,cs),
(155,175,ls),
(138,76,o),
(207,0,o),
(307,0,cs),
(419,0,o),
(493,68,o),
(507,146,cs),
(701,1248,l),
(1168,96,ls)
);
},
{
closed = 1;
nodes = (
(718,1311,ls),
(698,1361,o),
(680,1366,o),
(669,1301,cs),
(467,154,ls),
(456,90,o),
(401,40,o),
(307,40,cs),
(228,40,o),
(183,91,o),
(196,167,cs),
(497,1877,ls),
(511,1955,o),
(552,1968,o),
(623,1968,cs),
(681,1968,o),
(727,1967,o),
(750,1910,cs),
(1238,706,ls),
(1263,645,o),
(1283,642,o),
(1295,709,cs),
(1497,1857,ls),
(1511,1937,o),
(1573,1968,o),
(1653,1968,cs),
(1743,1968,o),
(1782,1919,o),
(1766,1828,cs),
(1467,129,ls),
(1454,53,o),
(1423,40,o),
(1344,40,cs),
(1269,40,o),
(1225,62,o),
(1206,110,cs)
);
}
);
vertOrigin = 10;
width = 1801;
}
);
metricLeft = N;
metricRight = N;
metricTop = N;
metricVertOrigin = N;
},
{
color = 10;
glyphname = O.ss02;
kernLeft = KO_O.ss02;
kernRight = KO_O.ss02;
lastChange = "2023-09-26 19:06:23 +0000";
layers = (
{
layerId = m01;
shapes = (
{
closed = 1;
nodes = (
(1049,-20,o),
(1475,734,o),
(1527,1337,cs),
(1558,1694,o),
(1418,2008,o),
(970,2008,cs),
(593,2008,o),
(366,1745,o),
(250,1269,cs),
(91,612,o),
(198,-20,o),
(554,-20,cs)
);
},
{
closed = 1;
nodes = (
(216,0,o),
(112,614,o),
(270,1265,cs),
(384,1735,o),
(604,1988,o),
(970,1988,cs),
(1403,1988,o),
(1538,1689,o),
(1507,1339,cs),
(1455,740,o),
(1035,0,o),
(554,0,cs)
);
},
{
closed = 1;
nodes = (
(302,686,o),
(358,143,o),
(565,143,cs),
(902,143,o),
(1312,810,o),
(1353,1318,cs),
(1377,1625,o),
(1304,1848,o),
(960,1840,cs),
(666,1835,o),
(514,1635,o),
(419,1207,cs)
);
},
{
closed = 1;
nodes = (
(496,1644,o),
(655,1855,o),
(960,1860,cs),
(1319,1868,o),
(1397,1628,o),
(1373,1316,cs),
(1332,804,o),
(916,123,o),
(565,123,cs),
(337,123,o),
(282,686,o),
(399,1211,cs)
);
}
);
vertWidth = 0;
width = 1509;
},
{
layerId = m002;
shapes = (
{
closed = 1;
nodes = (
(1095,-20,o),
(1597,748,o),
(1657,1306,cs),
(1695,1682,o),
(1488,2028,o),
(1026,2028,cs),
(588,2028,o),
(389,1717,o),
(269,1253,cs),
(108,633,o),
(190,-20,o),
(613,-20,cs)
);
},
{
closed = 1;
nodes = (
(228,20,o),
(149,634,o),
(307,1243,cs),
(426,1698,o),
(611,1988,o),
(1026,1988,cs),
(1462,1988,o),
(1653,1671,o),
(1617,1310,cs),
(1559,764,o),
(1070,20,o),
(613,20,cs)
);
},
{
closed = 1;
nodes = (
(534,804,o),
(511,298,o),
(620,298,cs),
(824,298,o),
(1260,858,o),
(1305,1303,cs),
(1321,1478,o),
(1312,1710,o),
(1018,1710,cs),
(764,1710,o),
(684,1534,o),
(604,1146,cs)
);
},
{
closed = 1;
nodes = (
(646,1548,o),
(737,1750,o),
(1018,1750,cs),
(1351,1750,o),
(1361,1477,o),
(1345,1299,cs),
(1298,843,o),
(849,258,o),
(620,258,cs),
(461,258,o),
(494,809,o),
(564,1154,cs)
);
}
);
vertOrigin = -20;
vertWidth = 20;
width = 1660;
},
{
associatedMasterId = m01;
layerId = "7307B018-DEB8-4492-83DD-A560B2CDD96E";
name = background;
shapes = (
{
closed = 1;
nodes = (
(352,-5,o),
(530,304,o),
(558,520,cs),
(576,655,o),
(539,772,o),
(371,772,cs),
(225,772,o),
(147,662,o),
(97,486,cs),
(84,438,o),
(74,383,o),
(69,330,cs),
(55,170,o),
(69,-5,o),
(179,-5,cs)
);
},
{
closed = 1;
nodes = (
(115,50,o),
(119,211,o),
(127,318,cs),
(132,368,o),
(144,422,o),
(154,461,cs),
(200,625,o),
(249,718,o),
(365,718,cs),
(523,718,o),
(510,588,o),
(499,513,cs),
(473,321,o),
(284,50,o),
(178,50,cs)
);
}
);
vertWidth = 0;
width = 590;
},
{
associatedMasterId = m002;
layerId = "D1F148A5-460D-423B-8A8D-A02342BEA43C";
name = background;
shapes = (
{
closed = 1;
nodes = (
(393,-12,o),
(592,291,o),
(619,503,cs),
(637,644,o),
(563,779,o),
(391,779,cs),
(227,779,o),
(147,652,o),
(100,480,cs),
(87,432,o),
(77,379,o),
(75,329,cs),
(62,171,o),
(70,-12,o),
(213,-12,cs)
);
},
{
closed = 1;
nodes = (
(175,95,o),
(185,215,o),
(192,312,cs),
(195,359,o),
(204,406,o),
(213,442,cs),
(253,593,o),
(283,672,o),
(386,672,cs),
(506,672,o),
(507,568,o),
(499,500,cs),
(478,327,o),
(301,95,o),
(219,95,cs)
);
}
);
vertWidth = 0;
width = 594;
}
);
metricLeft = O;
metricRight = O;
metricTop = O;
metricVertOrigin = O;
},
{
color = 10;
glyphname = P.ss02;
kernLeft = KO_R.ss02;
kernRight = KO_P.ss02;
lastChange = "2023-09-26 15:20:39 +0000";
layers = (
{
layerId = m01;
shapes = (
{
closed = 1;
nodes = (
(1650,1881,o),
(1228,2011,o),
(566,2008,cs),
(492,2008,o),
(472,1968,o),
(463,1917,cs),
(144,108,ls),
(135,56,o),
(161,0,o),
(227,0,cs),
(303,0,o),
(314,67,o),
(320,99,cs),
(480,1000,l),
(1119,1009,o),
(1560,1126,o),
(1605,1504,cs)
);
},
{
closed = 1;
nodes = (
(1542,1139,o),
(1108,1027,o),
(464,1020,c),
(300,103,ls),
(294,71,o),
(285,20,o),
(227,20,cs),
(175,20,o),
(156,60,o),
(164,104,cs),
(483,1913,ls),
(491,1961,o),
(505,1988,o),
(566,1988,cs),
(1223,1991,o),
(1627,1866,o),
(1585,1506,cs)
);
},
{
closed = 1;
nodes = (
(1047,1174,o),
(1399,1279,o),
(1426,1521,cs),
(1451,1746,o),
(1223,1841,o),
(629,1848,c),
(509,1164,l)
);
},
{
closed = 1;
nodes = (
(613,1868,l),
(1226,1863,o),
(1473,1761,o),
(1446,1519,cs),
(1417,1258,o),
(1040,1150,o),
(485,1144,c)
);
}
);
vertWidth = 0;
width = 1506;
},
{
layerId = m002;
shapes = (
{
closed = 1;
nodes = (
(1829,1875,o),
(1415,2018,o),
(637,2008,cs),
(537,2008,o),
(470,1954,o),
(453,1857,cs),
(154,165,ls),
(142,96,o),
(208,0,o),
(325,0,cs),
(443,0,o),
(489,81,o),
(497,127,cs),
(638,920,l),
(1184,929,o),
(1712,1013,o),
(1775,1479,cs)
);
},
{
closed = 1;
nodes = (
(1676,1039,o),
(1159,966,o),
(604,960,c),
(458,137,ls),
(451,97,o),
(417,40,o),
(325,40,cs),
(231,40,o),
(186,108,o),
(195,157,cs),
(493,1849,ls),
(507,1930,o),
(553,1968,o),
(637,1968,cs),
(1403,1978,o),
(1783,1848,o),
(1735,1485,cs)
);
},
{
closed = 1;
nodes = (
(1092,1256,o),
(1417,1326,o),
(1431,1501,cs),
(1441,1626,o),
(1314,1678,o),
(773,1689,c),
(694,1243,l)
);
},
{
closed = 1;
nodes = (
(739,1729,l),
(1324,1722,o),
(1486,1654,o),
(1472,1495,cs),
(1452,1280,o),
(1071,1210,o),
(646,1201,c)
);
}
);
vertWidth = 0;
width = 1670;
},
{
associatedMasterId = m01;
layerId = "20E38FB0-B6D6-4C6B-89B9-150B1056CEBB";
name = background;
shapes = (
{
closed = 1;
nodes = (
(352,361,o),
(543,381,o),
(569,565,cs),
(589,709,o),
(435,772,o),
(181,772,c),
(184,718,l),
(426,718,o),
(522,662,o),
(510,571,cs),
(492,436,o),
(317,416,o),
(134,416,c),
(126,361,l)
);
},
{
closed = 1;
nodes = (
(203,757,o),
(201,772,o),
(176,772,cs),
(150,772,o),
(144,759,o),
(140,740,cs),
(15,32,ls),
(12,14,o),
(21,-5,o),
(43,-5,cs),
(69,-5,o),
(72,18,o),
(75,30,cs),
(200,735,ls)
);
}
);
vertWidth = 0;
width = 594;
}
);
metricLeft = P;
metricRight = P;
},
{
color = 10;
glyphname = Q.ss02;
kernLeft = KO_Q.ss04;
kernRight = KO_Q;
lastChange = "2023-09-26 15:18:12 +0000";
layers = (
{
layerId = m01;
shapes = (
{
closed = 1;
nodes = (
(1027,-119,o),
(1036,-64,o),
(1009,-25,cs),
(879,163,l),
(1173,431,o),
(1391,899,o),
(1429,1318,cs),
(1461,1679,o),
(1313,2016,o),
(884,2008,cs),
(488,2003,o),
(250,1754,o),
(135,1279,cs),
(-22,622,o),
(93,-20,o),
(449,-20,cs),
(549,-20,o),
(647,4,o),
(739,59,c),
(854,-108,ls),
(888,-158,o),
(932,-173,o),
(980,-147,cs)
);
},
{
closed = 1;
nodes = (
(933,-150,o),
(901,-141,o),
(870,-96,cs),
(745,87,l),
(650,26,o),
(551,0,o),
(449,0,cs),
(111,0,o),
(-1,624,o),
(155,1275,cs),
(268,1743,o),
(499,1983,o),
(884,1988,cs),
(1299,1996,o),
(1441,1674,o),
(1409,1320,cs),
(1371,898,o),
(1149,428,o),
(852,166,c),
(992,-36,ls),
(1015,-70,o),
(1006,-108,o),
(970,-129,cs)
);
},
{
closed = 1;
nodes = (
(186,693,o),
(253,143,o),
(460,143,cs),
(520,143,o),
(583,157,o),
(646,197,c),
(520,381,ls),
(484,433,o),
(481,467,o),
(524,502,cs),
(573,542,o),
(623,533,o),
(655,486,cs),
(780,305,l),
(1019,543,o),
(1226,952,o),
(1253,1302,cs),
(1279,1610,o),
(1199,1848,o),
(876,1840,cs),
(561,1835,o),
(398,1642,o),
(303,1215,cs)
);
},
{
closed = 1;
nodes = (
(380,1651,o),
(550,1855,o),
(876,1860,cs),
(1214,1868,o),
(1299,1613,o),
(1273,1300,cs),
(1245,938,o),
(1025,511,o),
(777,275,c),
(639,474,ls),
(611,515,o),
(576,518,o),
(536,486,cs),
(504,460,o),
(504,440,o),
(536,393,cs),
(674,191,l),
(603,143,o),
(530,123,o),
(460,123,cs),
(233,123,o),
(166,693,o),
(283,1219,cs)
);
}
);
vertWidth = 0;
width = 1298;
},
{
layerId = m002;
shapes = (
{
closed = 1;
nodes = (
(1213,-76,o),
(1246,7,o),
(1190,89,cs),
(1075,257,l),
(1336,540,o),
(1536,948,o),
(1572,1288,cs),
(1610,1664,o),
(1403,2028,o),
(915,2028,cs),
(453,2028,o),
(255,1717,o),
(134,1253,cs),
(-27,634,o),
(55,-21,o),
(512,-21,cs),
(615,-21,o),
(719,14,o),
(818,42,c),
(899,-76,ls),
(961,-167,o),
(1046,-171,o),
(1121,-128,cs)
);
},
{
closed = 1;
nodes = (
(1043,-129,o),
(982,-130,o),
(931,-54,cs),
(830,96,l),
(724,58,o),
(619,19,o),
(512,19,cs),
(93,19,o),
(14,634,o),
(172,1243,cs),
(292,1698,o),
(476,1988,o),
(915,1988,cs),
(1377,1988,o),
(1568,1653,o),
(1532,1292,cs),
(1496,951,o),
(1291,538,o),
(1023,261,c),
(1156,67,ls),
(1203,-1,o),
(1173,-55,o),
(1101,-94,cs)
);
},
{
closed = 1;
nodes = (
(399,804,o),
(381,330,o),
(520,297,cs),
(554,289,o),
(587,294,o),
(636,309,c),
(590,378,ls),
(528,472,o),
(570,537,o),
(635,590,cs),
(702,641,o),
(798,664,o),
(862,568,cs),
(878,544,l),
(1045,758,o),
(1194,1036,o),
(1220,1285,cs),
(1236,1460,o),
(1227,1710,o),
(915,1710,cs),
(629,1710,o),
(549,1534,o),
(470,1146,cs)
);
},
{
closed = 1;
nodes = (
(511,1547,o),
(601,1750,o),
(915,1750,cs),
(1266,1750,o),
(1276,1459,o),
(1260,1281,cs),
(1232,1016,o),
(1069,716,o),
(875,476,c),
(836,536,ls),
(783,617,o),
(710,597,o),
(659,558,cs),
(608,516,o),
(570,476,o),
(622,400,cs),
(692,298,l),
(629,259,o),
(571,249,o),
(520,257,cs),
(329,287,o),
(359,809,o),
(430,1154,cs)
);
}
);
vertWidth = 0;
width = 1443;
}
);
metricLeft = Q;
metricRight = Q;
},
{
color = 10;
glyphname = R.ss02;
kernLeft = KO_R.ss02;
kernRight = KO_R.ss02;
lastChange = "2023-09-26 15:20:39 +0000";
layers = (
{
layerId = m01;
shapes = (
{
closed = 1;
nodes = (
(1609,1892,o),
(1185,2008,o),
(566,2008,cs),
(492,2008,o),
(472,1968,o),
(463,1917,cs),
(145,113,ls),
(135,55,o),
(160,0,o),
(225,0,cs),
(300,0,o),
(315,57,o),
(323,104,cs),
(478,984,l),
(1175,59,ls),
(1206,18,o),
(1231,0,o),
(1259,0,cs),
(1294,0,o),
(1329,24,o),
(1340,54,cs),
(1349,79,o),
(1347,121,o),
(1326,149,cs),
(664,1015,l),
(1154,1041,o),
(1518,1163,o),
(1559,1493,cs)
);
},
{
closed = 1;
nodes = (
(1499,1174,o),
(1141,1058,o),
(646,1034,cs),
(627,1033,o),
(626,1031,o),
(639,1015,cs),
(1310,137,ls),
(1327,114,o),
(1329,81,o),
(1322,60,cs),
(1313,38,o),
(1287,20,o),
(1259,20,cs),
(1238,20,o),
(1219,33,o),
(1191,71,cs),
(484,1010,ls),
(469,1030,o),
(467,1037,o),
(461,1005,cs),
(303,108,ls),
(295,61,o),
(284,20,o),
(225,20,cs),
(174,20,o),
(156,60,o),
(165,109,cs),
(483,1913,ls),
(491,1961,o),
(505,1988,o),
(566,1988,cs),
(1182,1988,o),
(1587,1877,o),
(1539,1495,cs)
);
},
{
closed = 1;
nodes = (
(1008,1147,o),
(1354,1293,o),
(1386,1509,cs),
(1421,1740,o),
(1141,1839,o),
(630,1848,c),
(510,1164,l)
);
},
{
closed = 1;
nodes = (
(614,1868,l),
(1142,1861,o),
(1443,1757,o),
(1406,1507,cs),
(1372,1273,o),
(1002,1123,o),
(486,1144,c)
);
}
);
vertWidth = 0;
width = 1507;
},
{
layerId = m002;
shapes = (
{
closed = 1;
nodes = (
(1795,1875,o),
(1353,2008,o),
(645,2008,cs),
(540,2008,o),
(470,1963,o),
(453,1864,cs),
(158,189,ls),
(140,89,o),
(184,0,o),
(298,0,cs),
(404,0,o),
(491,77,o),
(509,180,cs),
(624,832,l),
(1191,78,ls),
(1244,7,o),
(1312,0,o),
(1356,0,cs),
(1420,0,o),
(1494,38,o),
(1513,102,cs),
(1528,149,o),
(1525,203,o),
(1494,244,cs),
(962,949,l),
(1370,1010,o),
(1674,1196,o),
(1723,1471,cs)
);
},
{
closed = 1;
nodes = (
(1637,1213,o),
(1333,1035,o),
(919,984,cs),
(898,981,o),
(893,979,o),
(909,957,cs),
(1461,222,ls),
(1486,189,o),
(1487,152,o),
(1475,114,cs),
(1461,68,o),
(1408,40,o),
(1356,40,cs),
(1315,40,o),
(1266,45,o),
(1223,102,cs),
(635,884,ls),
(612,915,o),
(598,920,o),
(590,875,cs),
(469,186,ls),
(454,100,o),
(386,40,o),
(298,40,cs),
(211,40,o),
(183,98,o),
(198,183,cs),
(493,1858,ls),
(507,1937,o),
(554,1968,o),
(645,1968,cs),
(1344,1968,o),
(1749,1847,o),
(1683,1477,cs)
);
},
{
closed = 1;
nodes = (
(1155,1210,o),
(1366,1374,o),
(1384,1484,cs),
(1409,1628,o),
(1260,1692,o),
(776,1691,c),
(696,1241,l)
);
},
{
closed = 1;
nodes = (
(742,1731,l),
(1268,1736,o),
(1454,1656,o),
(1424,1478,cs),
(1401,1344,o),
(1155,1158,o),
(648,1205,c)
);
}
);
vertWidth = 0;
width = 1662;
},
{
associatedMasterId = m01;
layerId = "C47353F9-FE80-40FB-AB91-6D72AFE07355";
name = background;
shapes = (
{
closed = 1;
nodes = (
(375,361,o),
(575,381,o),
(601,565,cs),
(621,709,o),
(470,772,o),
(213,772,c),
(213,718,l),
(442,718,o),
(555,665,o),
(542,571,cs),
(523,437,o),
(347,416,o),
(158,416,c),
(150,361,l)
);
},
{
closed = 1;
nodes = (
(141,390,l),
(447,21,ls),
(459,6,o),
(467,0,o),
(476,0,cs),
(488,0,o),
(500,8,o),
(504,18,cs),
(507,27,o),
(506,42,o),
(499,51,cs),
(226,381,l)
);
},
{
closed = 1;
nodes = (
(235,757,o),
(233,772,o),
(208,772,cs),
(182,772,o),
(176,759,o),
(172,740,cs),
(49,39,ls),
(45,19,o),
(53,0,o),
(75,0,cs),
(101,0,o),
(106,19,o),
(109,37,cs),
(232,735,ls)
);
}
);
vertWidth = 0;
width = 594;
}
);
metricLeft = R;
metricRight = R;
},
{
color = 10;
glyphname = S.ss02;
kernLeft = KO_S.ss02;
kernRight = KO_S.ss02;
lastChange = "2023-09-26 15:20:39 +0000";
layers = (
{
layerId = m01;
shapes = (
{
closed = 1;
nodes = (
(875,-20,o),
(1182,251,o),
(1182,564,cs),
(1182,821,o),
(1033,1001,o),
(837,1129,cs),
(742,1191,ls),
(535,1326,o),
(453,1424,o),
(453,1545,cs),
(453,1775,o),
(703,1848,o),
(1029,1848,cs),
(1294,1848,ls),
(1338,1848,o),
(1374,1878,o),
(1374,1930,cs),
(1374,2008,o),
(1302,2008,o),
(1291,2008,cs),
(1005,2008,ls),
(558,2008,o),
(272,1833,o),
(272,1535,cs),
(272,1372,o),
(389,1213,o),
(588,1079,cs),
(685,1014,ls),
(870,890,o),
(1003,755,o),
(1003,562,cs),
(1003,330,o),
(783,143,o),
(358,143,cs),
(92,143,ls),
(46,143,o),
(7,110,o),
(7,58,cs),
(7,-20,o),
(85,-20,o),
(92,-20,cs),
(339,-20,ls)
);
},
{
closed = 1;
nodes = (
(92,0,ls),
(85,0,o),
(27,0,o),
(27,58,cs),
(27,99,o),
(55,123,o),
(92,123,cs),
(358,123,ls),
(792,123,o),
(1023,319,o),
(1023,562,cs),
(1023,764,o),
(882,906,o),
(697,1030,cs),
(600,1095,ls),
(404,1227,o),
(292,1379,o),
(292,1535,cs),
(292,1821,o),
(564,1988,o),
(1005,1988,cs),
(1291,1988,ls),
(1302,1988,o),
(1354,1988,o),
(1354,1930,cs),
(1354,1889,o),
(1329,1868,o),
(1294,1868,cs),
(1029,1868,ls),
(698,1868,o),
(433,1790,o),
(433,1545,cs),
(433,1416,o),
(523,1314,o),
(732,1175,cs),
(825,1113,ls),
(1018,984,o),
(1162,813,o),
(1162,564,cs),
(1162,262,o),
(866,0,o),
(339,0,cs)
);
}
);
vertWidth = 0;
width = 1275;
},
{
layerId = m002;
shapes = (
{
closed = 1;
nodes = (
(844,-20,o),
(1391,137,o),
(1391,593,cs),
(1391,884,o),
(1173,1040,o),
(982,1186,cs),
(923,1231,ls),
(739,1371,o),
(645,1430,o),
(645,1506,cs),
(645,1615,o),
(847,1687,o),
(1048,1687,cs),
(1459,1687,ls),
(1551,1687,o),
(1625,1761,o),
(1625,1850,cs),
(1625,1978,o),
(1516,2008,o),
(1457,2008,cs),
(1051,2008,ls),
(629,2008,o),
(298,1789,o),
(298,1493,cs),
(298,1258,o),
(496,1132,o),
(704,985,cs),
(769,939,ls),
(963,802,o),
(1041,718,o),
(1041,593,cs),
(1041,372,o),
(711,301,o),
(533,301,cs),
(219,301,ls),
(127,301,o),
(51,224,o),
(51,135,cs),
(51,10,o),
(170,-20,o),
(219,-20,cs),
(533,-20,ls)
);
},
{
closed = 1;
nodes = (
(219,20,ls),
(177,20,o),
(91,42,o),
(91,135,cs),
(91,205,o),
(146,261,o),
(219,261,cs),
(533,261,ls),
(718,261,o),
(1081,339,o),
(1081,593,cs),
(1081,735,o),
(990,831,o),
(793,971,cs),
(728,1017,ls),
(517,1166,o),
(338,1280,o),
(338,1493,cs),
(338,1766,o),
(644,1968,o),
(1051,1968,cs),
(1457,1968,ls),
(1508,1968,o),
(1585,1947,o),
(1585,1850,cs),
(1585,1780,o),
(1532,1727,o),
(1459,1727,cs),
(1048,1727,ls),
(836,1727,o),
(605,1644,o),
(605,1506,cs),
(605,1409,o),
(714,1340,o),
(899,1199,cs),
(958,1154,ls),
(1149,1008,o),
(1351,864,o),
(1351,593,cs),
(1351,168,o),
(835,20,o),
(533,20,cs)
);
}
);
vertWidth = 0;
width = 1517;
},
{
associatedMasterId = m01;
layerId = "A440414B-586A-40A5-AE6A-EB7CED442D21";
name = background;
shapes = (
{
closed = 1;
nodes = (
(235,0,o),
(412,59,o),
(412,219,cs),
(412,320,o),
(359,378,o),
(274,437,cs),
(187,498,o),
(133,537,o),
(133,590,cs),
(133,659,o),
(238,713,o),
(329,713,cs),
(484,713,ls),
(499,713,o),
(511,728,o),
(511,744,cs),
(511,772,o),
(487,772,o),
(482,772,cs),
(330,772,ls),
(177,772,o),
(72,684,o),
(72,586,cs),
(72,501,o),
(141,457,o),
(235,391,cs),
(320,330,o),
(353,286,o),
(353,217,cs),
(353,99,o),
(196,59,o),
(119,59,cs),
(0,59,ls),
(-15,59,o),
(-29,44,o),
(-29,29,cs),
(-29,0,o),
(-2,0,o),
(0,0,cs),
(119,0,ls)
);
}
);
vertWidth = 0;
width = 594;
}
);
metricLeft = S;
metricRight = S;
},
{
color = 10;
glyphname = T.ss02;
kernLeft = KO_T.ss02;
kernRight = KO_T.ss02;
lastChange = "2023-09-26 15:20:39 +0000";
layers = (
{
layerId = m01;
shapes = (
{
closed = 1;
nodes = (
(778,0,o),
(788,55,o),
(793,86,cs),
(1101,1848,l),
(1688,1848,ls),
(1754,1848,o),
(1776,1887,o),
(1776,1928,cs),
(1776,1968,o),
(1754,2008,o),
(1688,2008,cs),
(377,2008,ls),
(307,2008,o),
(286,1968,o),
(286,1928,cs),
(286,1887,o),
(307,1848,o),
(377,1848,cs),
(923,1848,l),
(619,95,ls),
(610,42,o),
(638,0,o),
(700,0,cs)
);
},
{
closed = 1;
nodes = (
(650,20,o),
(632,48,o),
(639,91,cs),
(947,1868,l),
(377,1868,ls),
(320,1868,o),
(306,1894,o),
(306,1928,cs),
(306,1962,o),
(320,1988,o),
(377,1988,cs),
(1688,1988,ls),
(1741,1988,o),
(1756,1961,o),
(1756,1928,cs),
(1756,1894,o),
(1741,1868,o),
(1688,1868,cs),
(1085,1868,l),
(773,90,ls),
(768,59,o),
(762,20,o),
(700,20,cs)
);
}
);
vertWidth = 0;
width = 1573;
},
{
layerId = m002;
shapes = (
{
closed = 1;
nodes = (
(909,0,o),
(968,69,o),
(980,141,cs),
(1247,1690,l),
(1757,1690,ls),
(1868,1690,o),
(1931,1762,o),
(1931,1845,cs),
(1931,1937,o),
(1862,2008,o),
(1757,2008,cs),
(446,2008,ls),
(344,2008,o),
(273,1937,o),
(273,1845,cs),
(273,1762,o),
(335,1690,o),
(446,1690,cs),
(894,1690,l),
(630,179,ls),
(613,81,o),
(688,0,o),
(796,0,cs)
);
},
{
closed = 1;
nodes = (
(709,40,o),
(657,96,o),
(670,173,cs),
(942,1730,l),
(446,1730,ls),
(356,1730,o),
(313,1779,o),
(313,1845,cs),
(313,1918,o),
(363,1968,o),
(446,1968,cs),
(1757,1968,ls),
(1843,1968,o),
(1891,1918,o),
(1891,1845,cs),
(1891,1780,o),
(1847,1730,o),
(1757,1730,cs),
(1213,1730,l),
(940,149,ls),
(930,89,o),
(888,40,o),
(796,40,cs)
);
}
);
vertWidth = 0;
width = 1744;
}
);
metricLeft = T;
metricRight = T;
},
{
color = 10;
glyphname = U.ss02;
kernLeft = KO_U.ss02;
kernRight = KO_H;
lastChange = "2023-09-26 15:20:39 +0000";
layers = (
{
layerId = m01;
shapes = (
{
closed = 1;
nodes = (
(773,-20,o),
(1078,442,o),
(1323,906,c),
(1181,98,ls),
(1170,33,o),
(1214,0,o),
(1264,0,cs),
(1304,0,o),
(1348,26,o),
(1357,79,cs),
(1681,1915,ls),
(1690,1968,o),
(1665,2008,o),
(1596,2008,cs),
(1535,2008,o),
(1510,1966,o),
(1503,1927,cs),
(1434,1537,l),
(1369,1259,o),
(1247,1073,o),
(1143,905,cs),
(1005,676,o),
(702,143,o),
(466,143,cs),
(334,143,o),
(365,357,o),
(400,555,cs),
(639,1910,ls),
(648,1960,o),
(618,2005,o),
(564,2008,cs),
(509,2008,o),
(470,1961,o),
(461,1909,cs),
(224,566,ls),
(152,157,o),
(252,-20,o),
(442,-20,cs)
);
},
{
closed = 1;
nodes = (
(266,0,o),
(174,163,o),
(244,562,cs),
(481,1905,ls),
(489,1952,o),
(520,1988,o),
(564,1988,cs),
(605,1985,o),
(626,1954,o),
(619,1914,cs),
(380,559,ls),
(345,359,o),
(310,123,o),
(466,123,cs),
(715,123,o),
(1023,666,o),
(1161,895,cs),
(1263,1063,o),
(1387,1251,o),
(1454,1533,c),
(1523,1923,ls),
(1529,1958,o),
(1547,1988,o),
(1596,1988,cs),
(1652,1988,o),
(1669,1962,o),
(1661,1919,cs),
(1337,83,ls),
(1329,40,o),
(1297,20,o),
(1264,20,cs),
(1223,20,o),
(1192,43,o),
(1201,94,cs),
(1351,951,ls),
(1360,1001,o),
(1350,1002,o),
(1326,955,cs),
(1079,479,o),
(771,0,o),
(442,0,cs)
);
}
);
vertWidth = 0;
width = 1659;
},
{
layerId = m002;
shapes = (
{
closed = 1;
nodes = (
(802,-20,o),
(1055,242,o),
(1264,580,c),
(1194,174,ls),
(1174,57,o),
(1260,0,o),
(1357,0,cs),
(1434,0,o),
(1523,40,o),
(1539,131,cs),
(1839,1837,ls),
(1856,1935,o),
(1792,2008,o),
(1673,2008,cs),
(1578,2008,o),
(1503,1955,o),
(1489,1875,cs),
(1450,1651,l),
(1409,1468,o),
(1276,1150,o),
(1200,1008,cs),
(1113,837,o),
(781,298,o),
(581,298,cs),
(542,298,o),
(548,386,o),
(580,568,cs),
(799,1831,ls),
(817,1933,o),
(741,2008,o),
(641,2008,cs),
(530,2011,o),
(463,1917,o),
(452,1856,cs),
(233,607,ls),
(156,167,o),
(292,-20,o),
(531,-20,cs)
);
},
{
closed = 1;
nodes = (
(316,20,o),
(200,181,o),
(273,599,cs),
(492,1850,ls),
(501,1899,o),
(552,1971,o),
(641,1968,cs),
(722,1968,o),
(772,1916,o),
(759,1839,cs),
(540,576,ls),
(507,388,o),
(497,258,o),
(581,258,cs),
(807,258,o),
(1148,819,o),
(1236,990,cs),
(1312,1134,o),
(1447,1456,o),
(1490,1643,c),
(1529,1867,ls),
(1540,1929,o),
(1593,1968,o),
(1673,1968,cs),
(1771,1968,o),
(1813,1920,o),
(1799,1843,cs),
(1499,137,ls),
(1487,70,o),
(1424,40,o),
(1357,40,cs),
(1275,40,o),
(1218,78,o),
(1234,168,cs),
(1316,644,ls),
(1333,744,o),
(1324,760,o),
(1261,653,cs),
(1052,297,o),
(796,20,o),
(531,20,cs)
);
}
);
vertWidth = 0;
width = 1831;
}
);
metricLeft = U;
metricRight = U;
},
{
color = 10;
glyphname = V.ss02;
kernLeft = KO_V.ss02;
kernRight = KO_V.ss02;
lastChange = "2023-09-26 15:20:39 +0000";
layers = (
{
layerId = m01;
shapes = (
{
closed = 1;
nodes = (
(1525,1859,ls),
(1561,1932,o),
(1541,1982,o),
(1500,2002,cs),
(1451,2024,o),
(1396,1986,o),
(1367,1927,cs),
(606,396,l),
(522,1926,ls),
(520,1958,o),
(504,2008,o),
(426,2008,cs),
(364,2008,o),
(343,1967,o),
(346,1916,cs),
(446,110,ls),
(449,54,o),
(475,0,o),
(539,0,cs),
(606,0,o),
(620,40,o),
(642,84,cs)
);
},
{
closed = 1;
nodes = (
(602,48,o),
(592,20,o),
(539,20,cs),
(488,20,o),
(469,60,o),
(466,112,cs),
(366,1918,ls),
(364,1962,o),
(377,1988,o),
(426,1988,cs),
(488,1988,o),
(500,1955,o),
(502,1924,cs),
(587,373,ls),
(589,333,o),
(597,333,o),
(615,370,cs),
(1385,1919,ls),
(1411,1972,o),
(1455,2001,o),
(1492,1984,cs),
(1524,1968,o),
(1539,1931,o),
(1507,1867,cs),
(624,92,ls)
);
}
);
vertWidth = 0;
width = 1401;
},
{
layerId = m002;
shapes = (
{
closed = 1;
nodes = (
(1628,1797,ls),
(1688,1918,o),
(1608,2008,o),
(1495,2008,cs),
(1399,2008,o),
(1334,1967,o),
(1300,1898,cs),
(736,760,l),
(677,1867,ls),
(673,1948,o),
(608,2008,o),
(499,2008,cs),
(400,2008,o),
(330,1951,o),
(336,1847,cs),
(433,134,ls),
(438,49,o),
(505,0,o),
(610,0,cs),
(709,0,o),
(754,35,o),
(784,95,cs)
);
},
{
closed = 1;
nodes = (
(721,58,o),
(688,40,o),
(610,40,cs),
(525,40,o),
(477,68,o),
(473,136,cs),
(376,1849,ls),
(371,1930,o),
(417,1968,o),
(499,1968,cs),
(590,1968,o),
(634,1927,o),
(637,1865,cs),
(699,720,ls),
(704,636,o),
(723,644,o),
(756,711,cs),
(1336,1880,ls),
(1364,1937,o),
(1413,1968,o),
(1495,1968,cs),
(1585,1968,o),
(1639,1910,o),
(1592,1815,cs),
(748,113,ls)
);
}
);
vertWidth = 0;
width = 1515;
}
);
metricLeft = V;
metricRight = V;
},
{
color = 10;
glyphname = W.ss02;
kernLeft = KO_W.ss02;
kernRight = KO_W;
lastChange = "2023-09-26 15:20:39 +0000";
layers = (
{
layerId = m01;
shapes = (
{
closed = 1;
nodes = (
(2559,1860,ls),
(2595,1933,o),
(2572,1983,o),
(2531,2001,cs),
(2481,2022,o),
(2430,1989,o),
(2401,1931,cs),
(1647,416,l),
(1555,1926,ls),
(1553,1965,o),
(1533,2008,o),
(1456,2008,cs),
(1393,2008,o),
(1365,1964,o),
(1348,1929,cs),
(584,393,l),
(502,1926,ls),
(500,1958,o),
(485,2008,o),
(406,2008,cs),
(345,2008,o),
(323,1967,o),
(326,1917,cs),
(428,97,ls),
(431,45,o),
(463,0,o),
(526,0,cs),
(587,0,o),
(612,52,o),
(629,86,cs),
(1397,1639,l),
(1489,77,ls),
(1492,31,o),
(1516,0,o),
(1572,0,cs),
(1638,0,o),
(1658,40,o),
(1680,84,cs)
);
},
{
closed = 1;
nodes = (
(1640,48,o),
(1626,20,o),
(1572,20,cs),
(1527,20,o),
(1511,40,o),
(1509,79,cs),
(1416,1664,ls),
(1414,1700,o),
(1404,1699,o),
(1387,1665,cs),
(611,96,ls),
(594,61,o),
(575,20,o),
(526,20,cs),
(474,20,o),
(451,52,o),
(448,99,cs),
(346,1917,ls),
(343,1962,o),
(358,1988,o),
(406,1988,cs),
(470,1988,o),
(480,1954,o),
(482,1924,cs),
(565,370,ls),
(568,323,o),
(576,329,o),
(595,367,cs),
(1366,1921,ls),
(1382,1954,o),
(1404,1988,o),
(1456,1988,cs),
(1520,1988,o),
(1533,1960,o),
(1535,1924,cs),
(1628,400,ls),
(1631,350,o),
(1638,352,o),
(1662,400,cs),
(2419,1923,ls),
(2444,1974,o),
(2484,1999,o),
(2523,1983,cs),
(2556,1968,o),
(2573,1932,o),
(2541,1868,cs),
(1662,92,ls)
);
}
);
vertWidth = 0;
width = 2414;
},
{
layerId = m002;
shapes = (
{
closed = 1;
nodes = (
(2683,1792,ls),
(2737,1901,o),
(2657,2008,o),
(2569,2008,cs),
(2453,2008,o),
(2392,1974,o),
(2358,1903,cs),
(1788,703,l),
(1700,1888,ls),
(1694,1973,o),
(1632,2008,o),
(1516,2008,cs),
(1396,2008,o),
(1363,1959,o),
(1344,1921,cs),
(730,677,l),
(668,1867,ls),
(664,1947,o),
(602,2008,o),
(492,2008,cs),
(393,2008,o),
(319,1951,o),
(326,1847,cs),
(445,134,ls),
(452,34,o),
(520,0,o),
(631,0,cs),
(741,0,o),
(768,36,o),
(805,111,cs),
(1406,1314,l),
(1498,116,ls),
(1504,32,o),
(1599,0,o),
(1669,0,cs),
(1765,0,o),
(1807,23,o),
(1841,92,cs)
);
},
{
closed = 1;
nodes = (
(1774,48,o),
(1747,40,o),
(1669,40,cs),
(1612,40,o),
(1543,59,o),
(1538,118,cs),
(1443,1357,ls),
(1437,1438,o),
(1426,1446,o),
(1383,1359,cs),
(769,129,ls),
(732,54,o),
(716,40,o),
(631,40,cs),
(537,40,o),
(490,57,o),
(485,136,cs),
(366,1849,ls),
(360,1930,o),
(410,1968,o),
(492,1968,cs),
(583,1968,o),
(625,1927,o),
(628,1865,cs),
(691,649,ls),
(696,549,o),
(714,555,o),
(756,640,cs),
(1380,1903,ls),
(1399,1941,o),
(1421,1968,o),
(1516,1968,cs),
(1614,1968,o),
(1655,1951,o),
(1660,1884,cs),
(1750,672,ls),
(1757,579,o),
(1768,569,o),
(1815,667,cs),
(2394,1885,ls),
(2423,1946,o),
(2469,1968,o),
(2569,1968,cs),
(2631,1968,o),
(2689,1895,o),
(2647,1810,cs),
(1805,110,ls)
);
}
);
vertWidth = 0;
width = 2560;
},
{
associatedMasterId = m01;
layerId = "0A5AEDD3-7312-4DBD-857C-C4F2C135CE12";
name = background;
shapes = (
{
closed = 1;
nodes = (
(601,0,o),
(607,13,o),
(615,30,cs),
(956,721,ls),
(966,739,o),
(969,754,o),
(966,760,cs),
(961,769,o),
(952,772,o),
(943,772,cs),
(934,772,o),
(927,771,o),
(922,767,cs),
(910,760,o),
(905,751,o),
(901,743,cs),
(625,184,l),
(556,37,l),
(580,0,l)
);
},
{
closed = 1;
nodes = (
(192,179,l),
(162,744,ls),
(160,756,o),
(156,772,o),
(129,772,c),
(108,772,o),
(101,759,o),
(102,741,cs),
(141,33,ls),
(143,14,o),
(156,0,o),
(181,0,c),
(200,44,l)
);
},
{
closed = 1;
nodes = (
(196,0,o),
(204,18,o),
(211,31,cs),
(494,606,l),
(557,735,l),
(531,772,l),
(512,772,o),
(500,754,o),
(495,744,cs),
(216,175,l),
(153,48,l),
(179,0,l)
);
},
{
closed = 1;
nodes = (
(600,187,l),
(567,744,ls),
(565,758,o),
(558,772,o),
(531,772,c),
(508,733,l),
(516,607,l),
(549,23,ls),
(550,7,o),
(560,0,o),
(581,0,c),
(604,36,l)
);
}
);
vertWidth = 0;
width = 594;
}
);
metricLeft = W;
metricRight = W;
},
{
color = 10;
glyphname = X.ss02;
kernLeft = KO_X.ss02;
kernRight = KO_X.ss02;
lastChange = "2023-09-26 15:20:39 +0000";
layers = (
{
layerId = m01;
shapes = (
{
closed = 1;
nodes = (
(114,-9,o),
(180,-11,o),
(217,40,cs),
(785,822,l),
(1057,94,ls),
(1090,7,o),
(1151,-13,o),
(1192,8,cs),
(1230,26,o),
(1261,71,o),
(1231,151,cs),
(921,976,l),
(1570,1866,ls),
(1607,1917,o),
(1600,1967,o),
(1568,1991,cs),
(1532,2019,o),
(1470,2018,o),
(1432,1966,cs),
(849,1169,l),
(558,1941,ls),
(534,2004,o),
(470,2017,o),
(428,2001,cs),
(385,1984,o),
(368,1940,o),
(391,1877,cs),
(713,1016,l),
(69,135,ls),
(39,94,o),
(46,46,o),
(76,22,cs)
);
},
{
closed = 1;
nodes = (
(65,56,o),
(60,89,o),
(85,123,cs),
(735,1012,l),
(409,1885,ls),
(389,1938,o),
(402,1969,o),
(436,1983,cs),
(470,1996,o),
(521,1986,o),
(540,1935,cs),
(836,1146,ls),
(843,1128,o),
(845,1130,o),
(858,1147,cs),
(1448,1954,ls),
(1479,1996,o),
(1527,1998,o),
(1556,1975,cs),
(1580,1956,o),
(1586,1921,o),
(1554,1878,cs),
(899,980,l),
(1213,143,ls),
(1239,74,o),
(1215,41,o),
(1184,26,cs),
(1151,10,o),
(1104,25,o),
(1075,102,cs),
(798,845,ls),
(791,863,o),
(789,862,o),
(778,846,cs),
(201,52,ls),
(170,10,o),
(120,12,o),
(88,38,cs)
);
}
);
vertWidth = 0;
width = 1481;
},
{
layerId = m002;
shapes = (
{
closed = 1;
nodes = (
(168,-9,o),
(305,-26,o),
(366,59,cs),
(792,654,l),
(1000,99,ls),
(1039,-4,o),
(1171,-20,o),
(1249,20,cs),
(1322,58,o),
(1356,128,o),
(1324,214,cs),
(1047,948,l),
(1624,1753,ls),
(1684,1837,o),
(1670,1912,o),
(1605,1967,cs),
(1544,2024,o),
(1417,2027,o),
(1355,1941,cs),
(908,1321,l),
(687,1910,ls),
(649,2012,o),
(531,2023,o),
(456,1997,cs),
(363,1965,o),
(333,1888,o),
(373,1781,cs),
(654,1027,l),
(90,247,ls),
(38,175,o),
(37,102,o),
(103,46,cs)
);
},
{
closed = 1;
nodes = (
(79,119,o),
(79,164,o),
(122,223,cs),
(698,1021,l),
(411,1795,ls),
(378,1884,o),
(396,1934,o),
(468,1959,cs),
(535,1982,o),
(621,1971,o),
(649,1896,cs),
(875,1293,ls),
(893,1246,o),
(903,1247,o),
(932,1287,cs),
(1387,1917,ls),
(1436,1984,o),
(1530,1982,o),
(1579,1937,cs),
(1632,1892,o),
(1640,1844,o),
(1592,1777,cs),
(1003,954,l),
(1286,200,ls),
(1311,132,o),
(1290,87,o),
(1231,56,cs),
(1166,23,o),
(1067,35,o),
(1038,113,cs),
(818,700,ls),
(805,735,o),
(801,734,o),
(778,702,cs),
(334,83,ls),
(287,18,o),
(182,31,o),
(129,76,cs)
);
}
);
vertWidth = 0;
width = 1552;
}
);
metricLeft = X;
metricRight = X;
},
{
color = 10;
glyphname = Y.ss02;
kernLeft = KO_Y.ss02;
kernRight = KO_Y.ss02;
lastChange = "2023-09-26 15:20:39 +0000";
layers = (
{
layerId = m01;
shapes = (
{
closed = 1;
nodes = (
(1445,2022,o),
(1385,2008,o),
(1354,1966,cs),
(784,1192,l),
(499,1941,ls),
(477,2000,o),
(418,2020,o),
(374,2003,cs),
(326,1985,o),
(316,1931,o),
(335,1881,cs),
(675,987,l),
(518,95,ls),
(508,41,o),
(536,0,o),
(598,0,cs),
(673,0,o),
(690,53,o),
(696,86,cs),
(852,991,l),
(1498,1866,ls),
(1533,1914,o),
(1526,1966,o),
(1485,1994,cs)
);
},
{
closed = 1;
nodes = (
(1506,1955,o),
(1512,1918,o),
(1482,1878,cs),
(834,999,l),
(676,90,ls),
(671,59,o),
(657,20,o),
(598,20,cs),
(548,20,o),
(530,48,o),
(538,91,cs),
(695,989,l),
(353,1889,ls),
(337,1932,o),
(345,1971,o),
(382,1985,cs),
(417,1998,o),
(462,1983,o),
(481,1933,cs),
(770,1171,ls),
(778,1149,o),
(779,1151,o),
(794,1172,cs),
(1370,1954,ls),
(1396,1990,o),
(1442,1999,o),
(1473,1978,cs)
);
}
);
vertWidth = 0;
width = 1357;
},
{
layerId = m002;
shapes = (
{
closed = 1;
nodes = (
(1465,2024,o),
(1358,2025,o),
(1289,1931,cs),
(860,1351,l),
(650,1895,ls),
(606,2009,o),
(498,2029,o),
(419,1991,cs),
(347,1957,o),
(297,1879,o),
(336,1779,cs),
(640,1007,l),
(494,155,ls),
(477,56,o),
(551,0,o),
(662,0,cs),
(779,0,o),
(829,50,o),
(841,122,cs),
(987,968,l),
(1563,1741,ls),
(1635,1838,o),
(1600,1933,o),
(1535,1978,cs)
);
},
{
closed = 1;
nodes = (
(1564,1909,o),
(1589,1842,o),
(1531,1765,cs),
(949,984,l),
(801,128,ls),
(791,68,o),
(755,40,o),
(662,40,cs),
(572,40,o),
(521,71,o),
(534,147,cs),
(682,1011,l),
(374,1793,ls),
(342,1873,o),
(377,1926,o),
(437,1955,cs),
(501,1986,o),
(577,1971,o),
(612,1881,cs),
(839,1295,ls),
(848,1272,o),
(851,1272,o),
(869,1296,cs),
(1321,1907,ls),
(1378,1984,o),
(1455,1983,o),
(1513,1944,cs)
);
}
);
vertWidth = 0;
width = 1464;
},
{
associatedMasterId = m01;
layerId = "00B86DF0-33AC-4F1C-ADC9-58C3EF72DD24";
name = background;
shapes = (
{
closed = 1;
nodes = (
(530,723,ls),
(536,732,o),
(539,740,o),
(539,747,cs),
(539,754,o),
(536,762,o),
(529,766,cs),
(520,772,o),
(512,773,o),
(505,772,cs),
(497,770,o),
(487,764,o),
(481,757,cs),
(215,396,l),
(252,346,l)
);
},
{
closed = 1;
nodes = (
(225,416,l),
(157,32,ls),
(153,14,o),
(163,0,o),
(184,0,cs),
(210,0,o),
(215,18,o),
(217,30,cs),
(285,416,l)
);
},
{
closed = 1;
nodes = (
(267,415,l),
(141,748,ls),
(138,758,o),
(129,766,o),
(121,770,cs),
(115,773,o),
(107,773,o),
(97,770,cs),
(88,766,o),
(82,760,o),
(81,753,cs),
(80,746,o),
(82,738,o),
(86,728,cs),
(223,365,l)
);
}
);
vertWidth = 0;
width = 594;
},
{
associatedMasterId = m002;
layerId = "ABE7B4F7-B3A0-4559-B244-B70180902683";
name = background;
shapes = (
{
closed = 1;
nodes = (
(516,776,o),
(494,776,o),
(482,776,c),
(469,772,o),
(451,763,o),
(443,751,cs),
(196,416,l),
(248,302,l),
(536,687,ls),
(545,700,o),
(550,712,o),
(550,726,cs),
(550,740,o),
(543,753,o),
(530,763,cs)
);
},
{
closed = 1;
nodes = (
(226,-2,o),
(242,23,o),
(247,48,cs),
(315,441,l),
(195,441,l),
(128,58,ls),
(122,25,o),
(147,-2,o),
(185,-2,cs)
);
},
{
closed = 1;
nodes = (
(72,764,o),
(59,751,o),
(56,735,cs),
(53,723,o),
(58,712,o),
(63,699,cs),
(214,316,l),
(297,404,l),
(169,738,ls),
(164,751,o),
(153,763,o),
(138,770,cs),
(127,776,o),
(106,777,o),
(90,771,cs)
);
}
);
vertWidth = 0;
width = 594;
}
);
metricLeft = Y;
metricRight = Y;
},
{
color = 10;
glyphname = Z.ss02;
kernLeft = KO_Z.ss02;
kernRight = KO_Z.ss02;
lastChange = "2023-09-26 15:20:39 +0000";
layers = (
{
layerId = m01;
shapes = (
{
closed = 1;
nodes = (
(40,88,o),
(62,0,o),
(136,0,cs),
(1174,0,ls),
(1244,0,o),
(1265,40,o),
(1265,80,cs),
(1265,123,o),
(1244,163,o),
(1174,163,cs),
(311,163,l),
(1552,1862,ls),
(1598,1925,o),
(1557,2008,o),
(1492,2008,cs),
(457,2008,ls),
(390,2008,o),
(366,1968,o),
(366,1928,cs),
(366,1887,o),
(390,1848,o),
(457,1848,cs),
(1327,1848,l),
(79,141,ls)
);
},
{
closed = 1;
nodes = (
(1367,1868,l),
(457,1868,ls),
(402,1868,o),
(386,1894,o),
(386,1928,cs),
(386,1961,o),
(403,1988,o),
(457,1988,cs),
(1492,1988,ls),
(1543,1988,o),
(1573,1925,o),
(1536,1874,cs),
(271,143,l),
(1174,143,ls),
(1231,143,o),
(1245,117,o),
(1245,80,cs),
(1245,46,o),
(1231,20,o),
(1174,20,cs),
(136,20,ls),
(79,20,o),
(64,86,o),
(95,129,cs)
);
}
);
vertWidth = 0;
width = 1468;
},
{
layerId = m002;
shapes = (
{
closed = 1;
nodes = (
(28,141,o),
(128,0,o),
(237,0,cs),
(1262,0,ls),
(1371,0,o),
(1435,70,o),
(1435,153,cs),
(1435,243,o),
(1366,318,o),
(1262,318,cs),
(571,318,l),
(1610,1740,ls),
(1701,1865,o),
(1618,2008,o),
(1475,2008,cs),
(497,2008,ls),
(395,2008,o),
(323,1937,o),
(323,1845,cs),
(323,1762,o),
(386,1690,o),
(497,1690,cs),
(1160,1690,l),
(119,266,ls)
);
},
{
closed = 1;
nodes = (
(1238,1730,l),
(497,1730,ls),
(407,1730,o),
(363,1780,o),
(363,1845,cs),
(363,1918,o),
(414,1968,o),
(497,1968,cs),
(1475,1968,ls),
(1578,1968,o),
(1651,1864,o),
(1578,1764,cs),
(497,278,l),
(1262,278,ls),
(1346,278,o),
(1395,225,o),
(1395,153,cs),
(1395,88,o),
(1351,40,o),
(1262,40,cs),
(237,40,ls),
(169,40,o),
(79,143,o),
(151,242,cs)
);
}
);
vertWidth = 0;
width = 1596;
}
);
metricLeft = Z;
metricRight = Z;
},
{
color = 7;
glyphname = A.ss04;
kernLeft = KO_A.ss04;
kernRight = KO_A.ss04;
lastChange = "2023-09-26 19:06:23 +0000";
layers = (
{
layerId = m01;
shapes = (
{
closed = 1;
nodes = (
(147,0,o),
(164,26,o),
(194,84,cs),
(664,1001,l),
(1071,1001,l),
(1143,84,ls),
(1146,44,o),
(1158,0,o),
(1233,0,cs),
(1298,0,o),
(1314,33,o),
(1309,92,cs),
(1157,1942,ls),
(1153,1990,o),
(1122,2008,o),
(1070,2008,cs),
(1008,2008,o),
(994,1985,o),
(970,1938,cs),
(32,112,ls),
(-5,41,o),
(26,0,o),
(79,0,cs)
);
},
{
closed = 1;
nodes = (
(36,20,o),
(21,45,o),
(50,101,cs),
(986,1928,ls),
(1013,1980,o),
(1025,1988,o),
(1070,1988,cs),
(1113,1988,o),
(1136,1980,o),
(1139,1942,cs),
(1285,90,ls),
(1289,38,o),
(1285,20,o),
(1233,20,cs),
(1174,20,o),
(1170,48,o),
(1167,86,cs),
(1090,1021,l),
(652,1021,l),
(174,92,ls),
(146,37,o),
(136,20,o),
(79,20,cs)
);
},
{
closed = 1;
nodes = (
(1058,1164,l),
(1016,1689,l),
(747,1164,l)
);
},
{
closed = 1;
nodes = (
(1004,1707,ls),
(1017,1733,o),
(1031,1732,o),
(1033,1707,cs),
(1080,1144,l),
(715,1144,l)
);
},
{
closed = 1;
nodes = (
(1084,1876,o),
(1101,1893,o),
(1101,1915,cs),
(1101,1937,o),
(1084,1954,o),
(1062,1954,cs),
(1040,1954,o),
(1023,1937,o),
(1023,1915,cs),
(1023,1893,o),
(1040,1876,o),
(1062,1876,cs)
);
}
);
vertWidth = 0;
width = 1466;
},
{
layerId = m002;
shapes = (
{
closed = 1;
nodes = (
(234,0,o),
(296,24,o),
(339,108,cs),
(710,825,l),
(1097,825,l),
(1154,141,ls),
(1162,39,o),
(1217,0,o),
(1321,0,cs),
(1420,0,o),
(1491,43,o),
(1480,168,cs),
(1336,1836,ls),
(1325,1969,o),
(1245,2008,o),
(1139,2008,cs),
(1030,2008,o),
(959,1977,o),
(913,1889,cs),
(31,194,ls),
(-34,70,o),
(35,0,o),
(144,0,cs)
);
},
{
closed = 1;
nodes = (
(58,40,o),
(16,78,o),
(67,176,cs),
(949,1871,ls),
(989,1949,o),
(1045,1968,o),
(1139,1968,cs),
(1229,1968,o),
(1286,1945,o),
(1296,1832,cs),
(1440,164,ls),
(1449,64,o),
(1403,40,o),
(1321,40,cs),
(1236,40,o),
(1201,60,o),
(1194,143,cs),
(1133,865,l),
(686,865,l),
(303,126,ls),
(267,57,o),
(222,40,o),
(144,40,cs)
);
},
{
closed = 1;
nodes = (
(1070,1144,l),
(1043,1469,l),
(875,1144,l)
);
},
{
closed = 1;
nodes = (
(1037,1542,ls),
(1055,1576,o),
(1072,1577,o),
(1076,1533,cs),
(1112,1107,l),
(812,1107,l)
);
},
{
closed = 1;
nodes = (
(1148,1796,o),
(1175,1823,o),
(1175,1856,cs),
(1175,1889,o),
(1148,1916,o),
(1115,1916,cs),
(1082,1916,o),
(1055,1889,o),
(1055,1856,cs),
(1055,1823,o),
(1082,1796,o),
(1115,1796,cs)
);
}
);
vertWidth = 0;
width = 1595;
},
{
associatedMasterId = m01;
layerId = "48DF87F4-C72F-4FC9-8329-4E8255600EC0";
name = background;
shapes = (
{
closed = 1;
nodes = (
(409,743,l),
(413,758,o),
(404,772,o),
(381,772,cs),
(355,772,o),
(354,759,o),
(346,743,cs),
(-21,38,ls),
(-33,14,o),
(-19,0,o),
(-1,0,cs),
(23,0,o),
(29,8,o),
(39,30,cs),
(406,735,l)
);
},
{
closed = 1;
nodes = (
(415,361,l),
(409,416,l),
(208,416,l),
(182,361,l)
);
},
{
closed = 1;
nodes = (
(354,728,l),
(413,29,ls),
(415,17,o),
(418,0,o),
(444,0,c),
(466,0,o),
(473,13,o),
(472,31,cs),
(410,754,l)
);
}
);
vertWidth = 0;
width = 594;
}
);
metricLeft = A;
metricWidth = A;
},
{
color = 7;
glyphname = B.ss04;
kernLeft = KO_B.ss04;
kernRight = KO_B.ss04;
layers = (
{
layerId = m01;
shapes = (
{
closed = 1;
nodes = (
(1333,1846,o),
(1013,2008,o),
(344,2008,cs),
(284,2008,o),
(255,1984,o),
(243,1917,cs),
(-75,108,ls),
(-84,56,o),
(-58,0,o),
(6,0,cs),
(871,2,o),
(1120,160,o),
(1173,503,cs),
(1214,771,o),
(1069,971,o),
(786,1074,c),
(1116,1130,o),
(1261,1269,o),
(1290,1501,cs)
);
},
{
closed = 1;
nodes = (
(1242,1274,o),
(1097,1145,o),
(757,1090,cs),
(726,1085,o),
(727,1073,o),
(758,1063,cs),
(1049,964,o),
(1193,771,o),
(1153,507,cs),
(1102,173,o),
(863,22,o),
(6,20,cs),
(-45,20,o),
(-64,60,o),
(-56,104,cs),
(262,1913,ls),
(272,1972,o),
(293,1988,o),
(344,1988,cs),
(1004,1988,o),
(1311,1834,o),
(1270,1503,cs)
);
},
{
closed = 1;
nodes = (
(647,167,o),
(961,234,o),
(1002,524,cs),
(1042,807,o),
(858,999,o),
(260,1001,c),
(113,163,l)
);
},
{
closed = 1;
nodes = (
(244,1021,l),
(866,1023,o),
(1064,818,o),
(1022,522,cs),
(978,213,o),
(640,145,o),
(90,143,c)
);
},
{
closed = 1;
nodes = (
(836,1174,o),
(1088,1277,o),
(1117,1508,cs),
(1148,1747,o),
(873,1842,o),
(409,1848,c),
(289,1163,l)
);
},
{
closed = 1;
nodes = (
(393,1868,l),
(873,1864,o),
(1170,1764,o),
(1137,1506,cs),
(1106,1258,o),
(834,1152,o),
(265,1143,c)
);
},
{
closed = 1;
nodes = (
(360,1876,o),
(377,1893,o),
(377,1915,cs),
(377,1937,o),
(360,1954,o),
(338,1954,cs),
(316,1954,o),
(299,1937,o),
(299,1915,cs),
(299,1893,o),
(316,1876,o),
(338,1876,cs)
);
}
);
vertWidth = 0;
width = 1180;
},
{
layerId = m002;
shapes = (
{
closed = 1;
nodes = (
(1536,1837,o),
(1209,2008,o),
(406,2008,cs),
(328,2008,o),
(254,1982,o),
(233,1864,cs),
(-62,188,ls),
(-81,80,o),
(-1,0,o),
(91,0,cs),
(1001,0,o),
(1320,83,o),
(1387,538,cs),
(1423,785,o),
(1336,965,o),
(1178,1076,c),
(1444,1173,o),
(1489,1321,o),
(1503,1471,cs)
);
},
{
closed = 1;
nodes = (
(1449,1325,o),
(1408,1194,o),
(1138,1105,cs),
(1099,1092,o),
(1099,1081,o),
(1139,1055,cs),
(1297,952,o),
(1383,786,o),
(1347,544,cs),
(1284,117,o),
(993,40,o),
(91,40,cs),
(18,40,o),
(-37,97,o),
(-22,180,cs),
(273,1858,ls),
(289,1950,o),
(338,1968,o),
(406,1968,cs),
(1195,1968,o),
(1494,1812,o),
(1463,1475,cs)
);
},
{
closed = 1;
nodes = (
(846,331,o),
(1015,394,o),
(1044,598,cs),
(1077,829,o),
(975,968,o),
(423,921,c),
(317,319,l)
);
},
{
closed = 1;
nodes = (
(388,959,l),
(993,1015,o),
(1122,848,o),
(1084,592,cs),
(1049,355,o),
(845,287,o),
(269,279,c)
);
},
{
closed = 1;
nodes = (
(1149,1228,o),
(1149,1400,o),
(1150,1489,cs),
(1151,1586,o),
(1089,1670,o),
(558,1686,c),
(479,1242,l)
);
},
{
closed = 1;
nodes = (
(524,1727,l),
(1113,1713,o),
(1191,1606,o),
(1190,1489,cs),
(1189,1396,o),
(1193,1179,o),
(432,1204,c)
);
},
{
closed = 1;
nodes = (
(421,1796,o),
(448,1823,o),
(448,1856,cs),
(448,1889,o),
(421,1916,o),
(388,1916,cs),
(355,1916,o),
(328,1889,o),
(328,1856,cs),
(328,1823,o),
(355,1796,o),
(388,1796,cs)
);
}
);
vertWidth = 0;
width = 1388;
},
{
associatedMasterId = m01;
layerId = "C390BF64-4B74-44D2-936D-D44319E19B75";
name = background;
shapes = (
{
closed = 1;
nodes = (
(472,361,o),
(539,436,o),
(557,564,cs),
(576,704,o),
(430,772,o),
(175,772,c),
(185,718,l),
(373,718,o),
(512,675,o),
(498,567,cs),
(486,481,o),
(438,416,o),
(133,416,c),
(124,361,l)
);
},
{
closed = 1;
nodes = (
(373,0,o),
(470,42,o),
(488,171,cs),
(508,321,o),
(366,416,o),
(128,416,c),
(120,361,l),
(334,361,o),
(444,284,o),
(430,179,cs),
(416,74,o),
(285,55,o),
(69,55,c),
(39,0,l)
);
},
{
closed = 1;
nodes = (
(204,762,o),
(197,772,o),
(175,772,cs),
(154,772,o),
(145,764,o),
(140,740,cs),
(17,37,ls),
(13,17,o),
(25,0,o),
(45,0,cs),
(62,0,o),
(71,11,o),
(76,34,cs),
(200,735,ls)
);
}
);
vertWidth = 0;
width = 594;
}
);
},
{
color = 7;
glyphname = C.ss04;
kernLeft = KO_C.ss04;
kernRight = KO_C.ss04;
layers = (
{
layerId = m01;
shapes = (
{
closed = 1;
nodes = (
(673,-20,o),
(910,135,o),
(1166,517,cs),
(1233,616,o),
(1235,636,o),
(1235,655,cs),
(1235,698,o),
(1199,728,o),
(1158,728,cs),
(1103,728,o),
(1074,695,o),
(1022,617,cs),
(781,275,o),
(606,156,o),
(419,156,cs),
(232,156,o),
(190,308,o),
(190,424,cs),
(190,647,o),
(252,955,o),
(273,1077,cs),
(346,1444,o),
(453,1835,o),
(1179,1835,cs),
(1375,1835,o),
(1395,1837,o),
(1428,1856,cs),
(1468,1879,o),
(1474,1955,o),
(1434,1983,cs),
(1405,2003,o),
(1375,2008,o),
(1181,2008,cs),
(330,2008,o),
(178,1543,o),
(89,1048,cs),
(79,985,o),
(16,628,o),
(16,427,cs),
(16,213,o),
(112,-20,o),
(422,-20,cs)
);
},
{
closed = 1;
nodes = (
(127,0,o),
(36,218,o),
(36,427,cs),
(36,626,o),
(99,981,o),
(109,1044,cs),
(198,1538,o),
(345,1988,o),
(1181,1988,cs),
(1373,1988,o),
(1398,1984,o),
(1422,1967,cs),
(1452,1946,o),
(1447,1890,o),
(1418,1874,cs),
(1389,1857,o),
(1373,1855,o),
(1179,1855,cs),
(437,1855,o),
(326,1448,o),
(253,1081,cs),
(232,959,o),
(170,649,o),
(170,424,cs),
(170,305,o),
(216,136,o),
(419,136,cs),
(613,136,o),
(795,260,o),
(1038,605,cs),
(1090,683,o),
(1112,708,o),
(1158,708,cs),
(1190,708,o),
(1215,687,o),
(1215,655,cs),
(1215,638,o),
(1213,623,o),
(1150,529,cs),
(896,150,o),
(666,0,o),
(422,0,cs)
);
},
{
closed = 1;
nodes = (
(1397,1883,o),
(1414,1900,o),
(1414,1922,cs),
(1414,1944,o),
(1397,1961,o),
(1375,1961,cs),
(1353,1961,o),
(1336,1944,o),
(1336,1922,cs),
(1336,1900,o),
(1353,1883,o),
(1375,1883,cs)
);
}
);
vertWidth = 0;
width = 1219;
},
{
layerId = m002;
shapes = (
{
closed = 1;
nodes = (
(787,-20,o),
(1084,142,o),
(1335,514,cs),
(1404,616,o),
(1417,658,o),
(1414,689,cs),
(1405,771,o),
(1335,821,o),
(1253,834,cs),
(1171,847,o),
(1136,811,o),
(1058,699,cs),
(839,384,o),
(681,296,o),
(533,296,cs),
(431,296,o),
(373,369,o),
(373,471,cs),
(373,672,o),
(428,948,o),
(446,1055,cs),
(510,1396,o),
(633,1692,o),
(1323,1692,cs),
(1451,1692,o),
(1510,1691,o),
(1552,1726,cs),
(1631,1793,o),
(1631,1905,o),
(1585,1948,cs),
(1519,2010,o),
(1455,2008,o),
(1328,2008,cs),
(385,2008,o),
(176,1534,o),
(91,1057,cs),
(78,995,o),
(24,670,o),
(24,473,cs),
(24,254,o),
(148,-20,o),
(515,-20,cs)
);
},
{
closed = 1;
nodes = (
(176,20,o),
(64,264,o),
(64,473,cs),
(64,666,o),
(118,987,o),
(131,1049,cs),
(214,1521,o),
(413,1968,o),
(1328,1968,cs),
(1453,1968,o),
(1510,1971,o),
(1556,1920,cs),
(1586,1887,o),
(1590,1813,o),
(1532,1760,cs),
(1497,1728,o),
(1447,1732,o),
(1323,1732,cs),
(604,1732,o),
(472,1409,o),
(406,1063,cs),
(388,956,o),
(333,676,o),
(333,471,cs),
(333,352,o),
(409,256,o),
(533,256,cs),
(693,256,o),
(864,353,o),
(1090,675,cs),
(1165,782,o),
(1187,807,o),
(1253,794,cs),
(1320,781,o),
(1365,748,o),
(1374,689,cs),
(1378,661,o),
(1364,629,o),
(1301,536,cs),
(1057,174,o),
(775,20,o),
(515,20,cs)
);
},
{
closed = 1;
nodes = (
(1486,1796,o),
(1513,1823,o),
(1513,1856,cs),
(1513,1889,o),
(1486,1916,o),
(1453,1916,cs),
(1420,1916,o),
(1393,1889,o),
(1393,1856,cs),
(1393,1823,o),
(1420,1796,o),
(1453,1796,cs)
);
}
);
vertWidth = 0;
width = 1391;
}
);
},
{
color = 7;
glyphname = D.ss04;
kernLeft = KO_N.ss04;
kernRight = KO_D.ss04;
layers = (
{
layerId = m01;
shapes = (
{
closed = 1;
nodes = (
(1391,1683,o),
(1031,2008,o),
(453,2008,cs),
(346,2008,ls),
(272,2008,o),
(252,1968,o),
(243,1917,cs),
(-79,95,ls),
(-88,42,o),
(-61,0,o),
(3,0,cs),
(201,0,ls),
(799,0,o),
(1217,371,o),
(1309,1063,cs)
);
},
{
closed = 1;
nodes = (
(1199,382,o),
(790,20,o),
(201,20,cs),
(3,20,ls),
(-49,20,o),
(-67,48,o),
(-59,91,cs),
(263,1913,ls),
(271,1961,o),
(285,1988,o),
(346,1988,cs),
(453,1988,ls),
(1021,1988,o),
(1369,1674,o),
(1289,1065,cs)
);
},
{
closed = 1;
nodes = (
(201,163,ls),
(696,163,o),
(1061,465,o),
(1133,1086,cs),
(1192,1577,o),
(930,1824,o),
(461,1824,cs),
(405,1824,l),
(112,163,l)
);
},
{
closed = 1;
nodes = (
(389,1844,l),
(461,1844,ls),
(940,1844,o),
(1214,1586,o),
(1153,1084,cs),
(1079,454,o),
(705,143,o),
(201,143,cs),
(88,143,l)
);
},
{
closed = 1;
nodes = (
(360,1876,o),
(377,1893,o),
(377,1915,cs),
(377,1937,o),
(360,1954,o),
(338,1954,cs),
(316,1954,o),
(299,1937,o),
(299,1915,cs),
(299,1893,o),
(316,1876,o),
(338,1876,cs)
);
}
);
vertWidth = 0;
width = 1219;
},
{
layerId = m002;
shapes = (
{
closed = 1;
nodes = (
(1554,1625,o),
(1170,2008,o),
(562,2008,cs),
(409,2008,ls),
(301,2008,o),
(249,1957,o),
(233,1864,cs),
(-65,175,ls),
(-82,78,o),
(-15,0,o),
(91,0,cs),
(332,0,ls),
(938,0,o),
(1388,386,o),
(1482,1082,cs)
);
},
{
closed = 1;
nodes = (
(1350,408,o),
(920,40,o),
(332,40,cs),
(91,40,ls),
(6,40,o),
(-38,93,o),
(-25,167,cs),
(273,1858,ls),
(287,1935,o),
(319,1968,o),
(409,1968,cs),
(562,1968,ls),
(1149,1968,o),
(1512,1608,o),
(1442,1088,cs)
);
},
{
closed = 1;
nodes = (
(332,316,ls),
(768,316,o),
(1072,556,o),
(1143,1085,cs),
(1192,1456,o),
(994,1692,o),
(578,1692,cs),
(555,1692,l),
(312,316,l)
);
},
{
closed = 1;
nodes = (
(521,1732,l),
(578,1732,ls),
(1017,1732,o),
(1234,1471,o),
(1183,1079,cs),
(1109,533,o),
(785,276,o),
(332,276,cs),
(264,276,l)
);
},
{
closed = 1;
nodes = (
(421,1796,o),
(448,1823,o),
(448,1856,cs),
(448,1889,o),
(421,1916,o),
(388,1916,cs),
(355,1916,o),
(328,1889,o),
(328,1856,cs),
(328,1823,o),
(355,1796,o),
(388,1796,cs)
);
}
);
vertWidth = 0;
width = 1388;
}
);
},
{
color = 7;
glyphname = E.ss04;
kernLeft = KO_E.ss04;
kernRight = KO_E.ss04;
layers = (
{
layerId = m01;
shapes = (
{
closed = 1;
nodes = (
(-88,42,o),
(-60,0,o),
(4,0,cs),
(961,0,ls),
(1031,0,o),
(1052,43,o),
(1052,85,cs),
(1052,126,o),
(1031,163,o),
(961,163,cs),
(114,163,l),
(262,1001,l),
(1036,1001,ls),
(1105,1001,o),
(1126,1041,o),
(1126,1081,cs),
(1126,1124,o),
(1105,1164,o),
(1036,1164,cs),
(290,1164,l),
(411,1848,l),
(1273,1848,ls),
(1342,1848,o),
(1364,1887,o),
(1364,1928,cs),
(1364,1968,o),
(1342,2008,o),
(1273,2008,cs),
(347,2008,ls),
(272,2008,o),
(252,1968,o),
(243,1917,cs),
(-79,95,ls)
);
},
{
closed = 1;
nodes = (
(262,1913,ls),
(270,1961,o),
(285,1988,o),
(347,1988,cs),
(1273,1988,ls),
(1329,1988,o),
(1344,1961,o),
(1344,1928,cs),
(1344,1894,o),
(1329,1868,o),
(1273,1868,cs),
(394,1868,l),
(266,1144,l),
(1036,1144,ls),
(1092,1144,o),
(1106,1118,o),
(1106,1081,cs),
(1106,1047,o),
(1092,1021,o),
(1036,1021,cs),
(244,1021,l),
(89,143,l),
(961,143,ls),
(1018,143,o),
(1032,119,o),
(1032,85,cs),
(1032,48,o),
(1018,20,o),
(961,20,cs),
(4,20,ls),
(-48,20,o),
(-67,48,o),
(-59,91,cs)
);
},
{
closed = 1;
nodes = (
(360,1876,o),
(377,1893,o),
(377,1915,cs),
(377,1937,o),
(360,1954,o),
(338,1954,cs),
(316,1954,o),
(299,1937,o),
(299,1915,cs),
(299,1893,o),
(316,1876,o),
(338,1876,cs)
);
}
);
vertWidth = 0;
width = 1134;
},
{
layerId = m002;
shapes = (
{
closed = 1;
nodes = (
(-81,82,o),
(-39,0,o),
(70,0,cs),
(1142,0,ls),
(1266,0,o),
(1315,69,o),
(1315,173,cs),
(1315,275,o),
(1277,334,o),
(1147,334,cs),
(314,334,l),
(418,920,l),
(1213,920,ls),
(1348,920,o),
(1402,994,o),
(1402,1083,cs),
(1402,1181,o),
(1358,1243,o),
(1229,1243,cs),
(475,1243,l),
(551,1674,l),
(1441,1674,ls),
(1556,1674,o),
(1618,1762,o),
(1618,1853,cs),
(1618,1942,o),
(1565,2008,o),
(1447,2008,cs),
(417,2008,ls),
(315,2008,o),
(252,1968,o),
(235,1871,cs),
(-64,176,ls)
);
},
{
closed = 1;
nodes = (
(275,1865,ls),
(289,1942,o),
(329,1968,o),
(417,1968,cs),
(1447,1968,ls),
(1546,1968,o),
(1578,1923,o),
(1578,1853,cs),
(1578,1779,o),
(1535,1714,o),
(1441,1714,cs),
(517,1714,l),
(427,1203,l),
(1229,1203,ls),
(1340,1203,o),
(1362,1160,o),
(1362,1083,cs),
(1362,1014,o),
(1330,960,o),
(1213,960,cs),
(384,960,l),
(266,294,l),
(1147,294,ls),
(1258,294,o),
(1275,256,o),
(1275,173,cs),
(1275,88,o),
(1247,40,o),
(1142,40,cs),
(70,40,ls),
(-12,40,o),
(-38,91,o),
(-24,170,cs)
);
},
{
closed = 1;
nodes = (
(421,1796,o),
(448,1823,o),
(448,1856,cs),
(448,1889,o),
(421,1916,o),
(388,1916,cs),
(355,1916,o),
(328,1889,o),
(328,1856,cs),
(328,1823,o),
(355,1796,o),
(388,1796,cs)
);
}
);
vertWidth = 0;
width = 1390;
},
{
associatedMasterId = m01;
layerId = "7D81A9B3-6763-4C6E-8CF8-C1959E1CDD3E";
name = background;
shapes = (
{
closed = 1;
nodes = (
(203,757,o),
(201,772,o),
(176,772,cs),
(150,772,o),
(144,759,o),
(140,740,c),
(15,32,l),
(12,14,o),
(21,0,o),
(43,0,cs),
(69,0,o),
(74,18,o),
(76,30,c),
(200,735,l)
);
},
{
closed = 1;
nodes = (
(441,0,ls),
(465,0,o),
(472,17,o),
(472,31,cs),
(472,45,o),
(465,59,o),
(441,59,cs),
(53,59,l),
(44,0,l)
);
},
{
closed = 1;
nodes = (
(472,361,ls),
(495,361,o),
(503,374,o),
(503,388,cs),
(503,403,o),
(495,416,o),
(472,416,cs),
(110,416,l),
(101,361,l)
);
},
{
closed = 1;
nodes = (
(569,713,ls),
(593,713,o),
(600,728,o),
(600,743,cs),
(600,757,o),
(593,772,o),
(569,772,cs),
(181,772,l),
(170,713,l)
);
}
);
vertWidth = 0;
width = 594;
},
{
associatedMasterId = m002;
layerId = "BD7EF2B7-F3AE-423E-98C0-14594FE969C3";
name = background;
shapes = (
{
closed = 1;
nodes = (
(25,26,o),
(39,0,o),
(75,0,cs),
(113,0,o),
(146,21,o),
(151,48,cs),
(267,709,ls),
(276,758,o),
(245,772,o),
(211,772,cs),
(175,772,o),
(154,759,o),
(149,726,cs),
(31,59,ls)
);
},
{
closed = 1;
nodes = (
(546,78,o),
(527,95,o),
(489,95,cs),
(100,95,l),
(83,0,l),
(487,0,ls),
(523,0,o),
(546,19,o),
(546,50,cs)
);
},
{
closed = 1;
nodes = (
(573,397,o),
(550,416,o),
(514,416,cs),
(157,416,l),
(138,315,l),
(508,315,ls),
(546,315,o),
(573,337,o),
(573,366,cs)
);
},
{
closed = 1;
nodes = (
(665,750,o),
(644,772,o),
(607,772,cs),
(220,772,l),
(201,659,l),
(605,659,ls),
(640,659,o),
(665,689,o),
(665,720,cs)
);
}
);
vertWidth = 0;
width = 594;
}
);
},
{
color = 7;
glyphname = F.ss04;
kernLeft = KO_F.ss04;
kernRight = KO_F.ss04;
layers = (
{
layerId = m01;
shapes = (
{
closed = 1;
nodes = (
(-86,42,o),
(-59,0,o),
(6,0,cs),
(81,0,o),
(95,55,o),
(100,86,cs),
(261,1001,l),
(1023,1001,ls),
(1093,1001,o),
(1114,1041,o),
(1114,1081,cs),
(1114,1124,o),
(1093,1164,o),
(1023,1164,cs),
(290,1164,l),
(410,1848,l),
(1240,1848,ls),
(1309,1848,o),
(1330,1887,o),
(1330,1928,cs),
(1330,1968,o),
(1309,2008,o),
(1240,2008,cs),
(348,2008,ls),
(273,2008,o),
(252,1968,o),
(243,1917,cs),
(-77,95,ls)
);
},
{
closed = 1;
nodes = (
(264,1913,ls),
(272,1961,o),
(286,1988,o),
(348,1988,cs),
(1240,1988,ls),
(1296,1988,o),
(1310,1962,o),
(1310,1928,cs),
(1310,1894,o),
(1296,1868,o),
(1240,1868,cs),
(395,1868,l),
(268,1144,l),
(1023,1144,ls),
(1080,1144,o),
(1094,1118,o),
(1094,1081,cs),
(1094,1047,o),
(1080,1021,o),
(1023,1021,cs),
(246,1021,l),
(82,90,ls),
(77,59,o),
(65,20,o),
(6,20,cs),
(-47,20,o),
(-65,48,o),
(-57,91,cs)
);
},
{
closed = 1;
nodes = (
(360,1876,o),
(377,1893,o),
(377,1915,cs),
(377,1937,o),
(360,1954,o),
(338,1954,cs),
(316,1954,o),
(299,1937,o),
(299,1915,cs),
(299,1893,o),
(316,1876,o),
(338,1876,cs)
);
}
);
vertWidth = 0;
width = 1087;
},
{
layerId = m002;
shapes = (
{
closed = 1;
nodes = (
(-78,100,o),
(-49,0,o),
(67,0,cs),
(194,0,o),
(269,73,o),
(287,176,cs),
(419,922,l),
(1202,922,ls),
(1327,922,o),
(1373,990,o),
(1373,1075,cs),
(1373,1165,o),
(1333,1243,o),
(1207,1243,cs),
(476,1243,l),
(550,1674,l),
(1398,1674,ls),
(1522,1674,o),
(1585,1744,o),
(1585,1848,cs),
(1585,1944,o),
(1541,2008,o),
(1414,2008,cs),
(410,2008,ls),
(305,2008,o),
(251,1965,o),
(234,1869,cs),
(-62,190,ls)
);
},
{
closed = 1;
nodes = (
(274,1863,ls),
(288,1941,o),
(321,1968,o),
(410,1968,cs),
(1414,1968,ls),
(1522,1968,o),
(1545,1925,o),
(1545,1848,cs),
(1545,1765,o),
(1505,1714,o),
(1398,1714,cs),
(516,1714,l),
(428,1203,l),
(1207,1203,ls),
(1310,1203,o),
(1333,1150,o),
(1333,1075,cs),
(1333,1008,o),
(1306,962,o),
(1202,962,cs),
(385,962,l),
(247,182,ls),
(232,95,o),
(176,40,o),
(67,40,cs),
(-17,40,o),
(-36,104,o),
(-22,182,cs)
);
},
{
closed = 1;
nodes = (
(421,1796,o),
(448,1823,o),
(448,1856,cs),
(448,1889,o),
(421,1916,o),
(388,1916,cs),
(355,1916,o),
(328,1889,o),
(328,1856,cs),
(328,1823,o),
(355,1796,o),
(388,1796,cs)
);
}
);
vertWidth = 0;
width = 1358;
},
{
associatedMasterId = m01;
layerId = "F9C33966-9A92-4AEC-87C7-153E19327B3B";
name = background;
shapes = (
{
closed = 1;
nodes = (
(203,757,o),
(201,772,o),
(176,772,cs),
(150,772,o),
(144,759,o),
(140,740,cs),
(15,32,ls),
(12,14,o),
(21,0,o),
(43,0,cs),
(69,0,o),
(74,18,o),
(76,30,cs),
(200,735,ls)
);
},
{
closed = 1;
nodes = (
(470,361,ls),
(494,361,o),
(501,374,o),
(501,388,cs),
(501,403,o),
(494,416,o),
(470,416,cs),
(119,416,l),
(110,361,l)
);
},
{
closed = 1;
nodes = (
(569,713,ls),
(593,713,o),
(600,728,o),
(600,743,cs),
(600,757,o),
(593,772,o),
(569,772,cs),
(177,772,l),
(169,713,l)
);
}
);
vertWidth = 0;
width = 594;
}
);
},
{
color = 7;
glyphname = G.ss04;
kernLeft = KO_G.ss04;
kernRight = KO_G.ss04;
layers = (
{
layerId = m01;
shapes = (
{
closed = 1;
nodes = (
(556,-20,o),
(810,275,o),
(1053,626,c),
(960,95,ls),
(953,56,o),
(965,0,o),
(1036,0,cs),
(1117,0,o),
(1133,57,o),
(1139,91,cs),
(1298,997,ls),
(1308,1055,o),
(1290,1092,o),
(1228,1092,cs),
(1167,1092,o),
(1137,1079,o),
(1112,1038,cs),
(1066,962,o),
(1048,930,o),
(957,794,cs),
(843,619,o),
(529,143,o),
(320,143,cs),
(216,143,o),
(190,277,o),
(190,416,cs),
(190,618,o),
(247,955,o),
(281,1122,cs),
(346,1444,o),
(476,1848,o),
(1199,1848,cs),
(1374,1848,ls),
(1425,1848,o),
(1462,1880,o),
(1462,1928,cs),
(1462,1969,o),
(1429,2008,o),
(1387,2008,cs),
(1205,2008,ls),
(352,2008,o),
(178,1543,o),
(89,1048,cs),
(79,985,o),
(16,628,o),
(16,432,cs),
(16,213,o),
(96,-20,o),
(310,-20,cs)
);
},
{
closed = 1;
nodes = (
(111,0,o),
(36,218,o),
(36,432,cs),
(36,626,o),
(99,981,o),
(109,1044,cs),
(198,1537,o),
(366,1988,o),
(1205,1988,cs),
(1387,1988,ls),
(1418,1988,o),
(1442,1960,o),
(1442,1928,cs),
(1442,1891,o),
(1416,1868,o),
(1374,1868,cs),
(1199,1868,ls),
(461,1868,o),
(326,1449,o),
(261,1126,cs),
(227,959,o),
(170,620,o),
(170,416,cs),
(170,274,o),
(199,123,o),
(320,123,cs),
(541,123,o),
(859,609,o),
(973,782,cs),
(1064,920,o),
(1084,952,o),
(1130,1028,cs),
(1151,1063,o),
(1172,1072,o),
(1228,1072,cs),
(1277,1072,o),
(1287,1050,o),
(1278,1001,cs),
(1119,95,ls),
(1113,61,o),
(1101,20,o),
(1036,20,cs),
(982,20,o),
(974,57,o),
(980,91,cs),
(1081,669,ls),
(1086,700,o),
(1083,705,o),
(1064,677,cs),
(814,310,o),
(556,0,o),
(310,0,cs)
);
},
{
closed = 1;
nodes = (
(1401,1889,o),
(1418,1906,o),
(1418,1928,cs),
(1418,1950,o),
(1401,1967,o),
(1379,1967,cs),
(1357,1967,o),
(1340,1950,o),
(1340,1928,cs),
(1340,1906,o),
(1357,1889,o),
(1379,1889,cs)
);
}
);
vertWidth = 0;
width = 1219;
},
{
layerId = m002;
shapes = (
{
closed = 1;
nodes = (
(589,-20,o),
(788,156,o),
(960,380,c),
(923,174,ls),
(903,65,o),
(977,0,o),
(1094,0,cs),
(1215,0,o),
(1249,66,o),
(1263,147,cs),
(1410,985,ls),
(1429,1092,o),
(1370,1164,o),
(1259,1164,cs),
(1189,1164,o),
(1147,1151,o),
(1092,1084,cs),
(1053,1038,o),
(1006,964,o),
(931,849,cs),
(825,682,o),
(560,296,o),
(415,296,cs),
(382,296,o),
(367,366,o),
(367,479,cs),
(367,659,o),
(422,935,o),
(451,1091,cs),
(502,1387,o),
(616,1712,o),
(1232,1712,cs),
(1396,1712,ls),
(1502,1712,o),
(1564,1786,o),
(1564,1875,cs),
(1564,1962,o),
(1505,2028,o),
(1406,2028,cs),
(1237,2028,ls),
(369,2028,o),
(175,1534,o),
(91,1057,cs),
(78,995,o),
(23,657,o),
(23,466,cs),
(23,238,o),
(103,-20,o),
(376,-20,cs)
);
},
{
closed = 1;
nodes = (
(134,20,o),
(63,247,o),
(63,466,cs),
(63,653,o),
(118,987,o),
(131,1049,cs),
(213,1522,o),
(398,1988,o),
(1237,1988,cs),
(1406,1988,ls),
(1486,1988,o),
(1524,1942,o),
(1524,1875,cs),
(1524,1805,o),
(1483,1752,o),
(1396,1752,cs),
(1232,1752,ls),
(587,1752,o),
(464,1398,o),
(411,1099,cs),
(382,943,o),
(327,663,o),
(327,479,cs),
(327,359,o),
(347,256,o),
(415,256,cs),
(586,256,o),
(860,661,o),
(965,827,cs),
(1040,942,o),
(1085,1014,o),
(1122,1058,cs),
(1170,1116,o),
(1196,1124,o),
(1259,1124,cs),
(1349,1124,o),
(1385,1078,o),
(1370,991,cs),
(1223,153,ls),
(1211,82,o),
(1189,40,o),
(1094,40,cs),
(996,40,o),
(948,83,o),
(963,168,cs),
(1018,483,ls),
(1027,533,o),
(1022,533,o),
(992,492,cs),
(808,235,o),
(598,20,o),
(376,20,cs)
);
},
{
closed = 1;
nodes = (
(1437,1814,o),
(1464,1841,o),
(1464,1874,cs),
(1464,1907,o),
(1437,1934,o),
(1404,1934,cs),
(1371,1934,o),
(1344,1907,o),
(1344,1874,cs),
(1344,1841,o),
(1371,1814,o),
(1404,1814,cs)
);
}
);
vertWidth = 0;
width = 1332;
}
);
},
{
color = 7;
glyphname = H.ss04;
kernLeft = KO_H.ss04;
kernRight = KO_H.ss04;
layers = (
{
layerId = m01;
shapes = (
{
closed = 1;
nodes = (
(79,0,o),
(95,55,o),
(100,86,cs),
(261,1001,l),
(1120,1001,l),
(960,95,ls),
(953,56,o),
(961,0,o),
(1040,0,cs),
(1107,0,o),
(1128,45,o),
(1133,76,cs),
(1456,1908,ls),
(1466,1966,o),
(1443,2008,o),
(1374,2008,cs),
(1313,2008,o),
(1290,1967,o),
(1284,1932,cs),
(1148,1164,l),
(290,1164,l),
(420,1901,ls),
(431,1963,o),
(405,2008,o),
(346,2008,cs),
(280,2008,o),
(252,1969,o),
(243,1917,cs),
(-79,95,ls),
(-88,42,o),
(-61,0,o),
(3,0,cs)
);
},
{
closed = 1;
nodes = (
(-49,20,o),
(-67,48,o),
(-59,91,cs),
(263,1913,ls),
(271,1960,o),
(291,1988,o),
(346,1988,cs),
(392,1988,o),
(410,1957,o),
(400,1903,cs),
(266,1144,l),
(1165,1144,l),
(1303,1928,ls),
(1308,1958,o),
(1325,1988,o),
(1374,1988,cs),
(1430,1988,o),
(1444,1960,o),
(1436,1912,cs),
(1113,80,ls),
(1108,52,o),
(1094,20,o),
(1040,20,cs),
(978,20,o),
(973,57,o),
(979,91,cs),
(1143,1021,l),
(245,1021,l),
(81,90,ls),
(76,59,o),
(63,20,o),
(3,20,cs)
);
},
{
closed = 1;
nodes = (
(355,1876,o),
(372,1893,o),
(372,1915,cs),
(372,1937,o),
(355,1954,o),
(333,1954,cs),
(311,1954,o),
(294,1937,o),
(294,1915,cs),
(294,1893,o),
(311,1876,o),
(333,1876,cs)
);
}
);
vertWidth = 0;
width = 1215;
},
{
layerId = m002;
shapes = (
{
closed = 1;
nodes = (
(217,0,o),
(270,58,o),
(285,142,cs),
(424,920,l),
(1103,920,l),
(974,174,ls),
(955,62,o),
(1019,0,o),
(1132,0,cs),
(1232,0,o),
(1304,48,o),
(1319,131,cs),
(1618,1828,ls),
(1641,1957,o),
(1562,2008,o),
(1455,2008,cs),
(1360,2008,o),
(1287,1970,o),
(1271,1878,cs),
(1159,1243,l),
(480,1243,l),
(580,1821,ls),
(603,1956,o),
(534,2008,o),
(432,2008,cs),
(342,2008,o),
(253,1978,o),
(233,1864,cs),
(-65,175,ls),
(-85,63,o),
(-9,0,o),
(101,0,cs)
);
},
{
closed = 1;
nodes = (
(10,40,o),
(-40,79,o),
(-25,167,cs),
(273,1858,ls),
(289,1948,o),
(354,1968,o),
(432,1968,cs),
(515,1968,o),
(559,1939,o),
(540,1827,cs),
(432,1203,l),
(1193,1203,l),
(1311,1870,ls),
(1324,1944,o),
(1375,1968,o),
(1455,1968,cs),
(1543,1968,o),
(1596,1938,o),
(1578,1836,cs),
(1279,137,ls),
(1268,72,o),
(1216,40,o),
(1132,40,cs),
(1040,40,o),
(998,77,o),
(1014,168,cs),
(1151,960,l),
(390,960,l),
(245,148,ls),
(232,77,o),
(195,40,o),
(101,40,cs)
);
},
{
closed = 1;
nodes = (
(443,1796,o),
(470,1823,o),
(470,1856,cs),
(470,1889,o),
(443,1916,o),
(410,1916,cs),
(377,1916,o),
(350,1889,o),
(350,1856,cs),
(350,1823,o),
(377,1796,o),
(410,1796,cs)
);
}
);
vertWidth = 0;
width = 1391;
}
);
},
{
color = 7;
glyphname = I.ss04;
kernLeft = KO_I.ss04;
kernRight = KO_I.ss04;
layers = (
{
layerId = m01;
shapes = (
{
closed = 1;
nodes = (
(-80,40,o),
(-56,0,o),
(11,0,cs),
(287,0,ls),
(356,0,o),
(377,40,o),
(377,80,cs),
(377,123,o),
(356,163,o),
(287,163,cs),
(254,163,l),
(550,1848,l),
(616,1848,ls),
(685,1848,o),
(706,1891,o),
(706,1930,cs),
(706,1971,o),
(685,2008,o),
(616,2008,cs),
(342,2008,ls),
(273,2008,o),
(252,1971,o),
(252,1930,cs),
(252,1891,o),
(273,1848,o),
(342,1848,cs),
(373,1848,l),
(76,163,l),
(11,163,ls),
(-56,163,o),
(-80,123,o),
(-80,80,cs)
);
},
{
closed = 1;
nodes = (
(-60,116,o),
(-43,143,o),
(11,143,cs),
(94,143,l),
(397,1868,l),
(342,1868,ls),
(286,1868,o),
(272,1896,o),
(272,1930,cs),
(272,1964,o),
(286,1988,o),
(342,1988,cs),
(616,1988,ls),
(672,1988,o),
(686,1964,o),
(686,1930,cs),
(686,1896,o),
(672,1868,o),
(616,1868,cs),
(534,1868,l),
(230,143,l),
(287,143,ls),
(343,143,o),
(357,117,o),
(357,80,cs),
(357,46,o),
(343,20,o),
(287,20,cs),
(11,20,ls),
(-43,20,o),
(-60,47,o),
(-60,80,cs)
);
},
{
closed = 1;
nodes = (
(487,1876,o),
(504,1893,o),
(504,1915,cs),
(504,1937,o),
(487,1954,o),
(465,1954,cs),
(443,1954,o),
(426,1937,o),
(426,1915,cs),
(426,1893,o),
(443,1876,o),
(465,1876,cs)
);
}
);
vertWidth = 0;
width = 463;
},
{
layerId = m002;
shapes = (
{
closed = 1;
nodes = (
(-85,57,o),
(-25,0,o),
(61,0,cs),
(366,0,ls),
(479,0,o),
(520,57,o),
(534,137,cs),
(549,224,o),
(503,282,o),
(436,282,cs),
(433,282,l),
(687,1721,l),
(688,1721,ls),
(799,1721,o),
(835,1788,o),
(849,1868,cs),
(864,1957,o),
(800,2008,o),
(717,2008,cs),
(415,2008,ls),
(309,2008,o),
(257,1958,o),
(244,1874,cs),
(230,1796,o),
(276,1722,o),
(333,1722,cs),
(335,1722,l),
(81,282,l),
(76,282,ls),
(-6,282,o),
(-59,223,o),
(-70,143,cs)
);
},
{
closed = 1;
nodes = (
(-21,203,o),
(12,242,o),
(95,242,cs),
(115,242,l),
(383,1762,l),
(356,1762,ls),
(304,1762,o),
(273,1807,o),
(284,1868,cs),
(294,1936,o),
(327,1968,o),
(415,1968,cs),
(717,1968,ls),
(783,1968,o),
(820,1938,o),
(809,1874,cs),
(797,1806,o),
(764,1761,o),
(675,1761,cs),
(653,1761,l),
(385,242,l),
(410,242,ls),
(476,242,o),
(506,209,o),
(494,143,cs),
(482,75,o),
(457,40,o),
(366,40,cs),
(61,40,ls),
(-6,40,o),
(-41,74,o),
(-30,137,cs)
);
},
{
closed = 1;
nodes = (
(565,1796,o),
(592,1823,o),
(592,1856,cs),
(592,1889,o),
(565,1916,o),
(532,1916,cs),
(499,1916,o),
(472,1889,o),
(472,1856,cs),
(472,1823,o),
(499,1796,o),
(532,1796,cs)
);
}
);
vertWidth = 0;
width = 615;
}
);
},
{
color = 7;
glyphname = J.ss04;
kernLeft = KO_J.ss04;
kernRight = KO_J.ss04;
layers = (
{
layerId = m01;
shapes = (
{
closed = 1;
nodes = (
(-79,33,o),
(-35,0,o),
(6,0,cs),
(102,0,o),
(280,3,o),
(337,10,cs),
(689,53,o),
(818,255,o),
(912,791,cs),
(1098,1848,l),
(1429,1848,ls),
(1499,1848,o),
(1520,1887,o),
(1520,1928,cs),
(1520,1968,o),
(1499,2008,o),
(1429,2008,cs),
(613,2008,ls),
(546,2008,o),
(522,1968,o),
(522,1928,cs),
(522,1887,o),
(546,1848,o),
(613,1848,cs),
(919,1848,l),
(741,837,ls),
(667,418,o),
(596,198,o),
(325,171,cs),
(245,163,o),
(82,163,o),
(6,163,cs),
(-34,163,o),
(-79,134,o),
(-79,85,cs)
);
},
{
closed = 1;
nodes = (
(-59,122,o),
(-27,143,o),
(6,143,cs),
(82,143,o),
(245,143,o),
(327,151,cs),
(612,180,o),
(686,413,o),
(761,836,cs),
(943,1868,l),
(613,1868,ls),
(558,1868,o),
(542,1894,o),
(542,1928,cs),
(542,1961,o),
(559,1988,o),
(613,1988,cs),
(1429,1988,ls),
(1486,1988,o),
(1500,1962,o),
(1500,1928,cs),
(1500,1894,o),
(1486,1868,o),
(1429,1868,cs),
(1082,1868,l),
(892,792,ls),
(799,264,o),
(676,71,o),
(335,30,cs),
(278,23,o),
(102,20,o),
(6,20,cs),
(-27,20,o),
(-59,44,o),
(-59,85,cs)
);
},
{
closed = 1;
nodes = (
(1036,1876,o),
(1053,1893,o),
(1053,1915,cs),
(1053,1937,o),
(1036,1954,o),
(1014,1954,cs),
(992,1954,o),
(975,1937,o),
(975,1915,cs),
(975,1893,o),
(992,1876,o),
(1014,1876,cs)
);
}
);
vertWidth = 0;
width = 1277;
},
{
layerId = m002;
shapes = (
{
closed = 1;
nodes = (
(-65,62,o),
(24,0,o),
(108,0,cs),
(199,0,o),
(435,5,o),
(493,13,cs),
(906,62,o),
(1048,373,o),
(1141,905,cs),
(1276,1674,l),
(1579,1674,ls),
(1703,1674,o),
(1755,1749,o),
(1755,1840,cs),
(1755,1937,o),
(1699,2008,o),
(1584,2008,cs),
(692,2008,ls),
(575,2008,o),
(518,1933,o),
(518,1840,cs),
(518,1743,o),
(575,1674,o),
(689,1674,cs),
(922,1674,l),
(795,950,ls),
(713,483,o),
(635,351,o),
(481,334,cs),
(408,324,o),
(171,318,o),
(108,318,cs),
(24,318,o),
(-65,250,o),
(-65,158,cs)
);
},
{
closed = 1;
nodes = (
(-25,228,o),
(40,278,o),
(108,278,cs),
(171,278,o),
(412,284,o),
(485,294,cs),
(662,314,o),
(751,467,o),
(835,944,cs),
(970,1714,l),
(689,1714,ls),
(594,1714,o),
(558,1762,o),
(558,1840,cs),
(558,1915,o),
(595,1968,o),
(692,1968,cs),
(1584,1968,ls),
(1680,1968,o),
(1715,1918,o),
(1715,1840,cs),
(1715,1767,o),
(1682,1714,o),
(1579,1714,cs),
(1242,1714,l),
(1101,911,ls),
(1009,386,o),
(877,99,o),
(487,53,cs),
(431,45,o),
(199,40,o),
(108,40,cs),
(39,40,o),
(-25,85,o),
(-25,158,cs)
);
},
{
closed = 1;
nodes = (
(1154,1796,o),
(1181,1823,o),
(1181,1856,cs),
(1181,1889,o),
(1154,1916,o),
(1121,1916,cs),
(1088,1916,o),
(1061,1889,o),
(1061,1856,cs),
(1061,1823,o),
(1088,1796,o),
(1121,1796,cs)
);
}
);
vertWidth = 0;
width = 1529;
},
{
associatedMasterId = m01;
layerId = "06052F2C-BE0F-40BC-8081-A274CED33EF8";
name = background;
shapes = (
{
closed = 1;
nodes = (
(444,738,l),
(377,358,ls),
(362,276,o),
(352,191,o),
(317,134,cs),
(296,97,o),
(265,70,o),
(216,64,cs),
(184,61,o),
(74,55,o),
(45,55,cs),
(31,55,o),
(15,45,o),
(15,29,cs),
(15,11,o),
(31,0,o),
(45,0,cs),
(82,0,o),
(189,6,o),
(211,8,cs),
(295,19,o),
(339,55,o),
(368,102,cs),
(409,166,o),
(418,251,o),
(436,352,cs),
(505,738,l)
);
},
{
closed = 1;
nodes = (
(680,713,o),
(687,728,o),
(687,743,cs),
(687,757,o),
(680,772,o),
(656,772,cs),
(295,772,ls),
(271,772,o),
(264,757,o),
(264,743,cs),
(264,728,o),
(271,713,o),
(295,713,cs),
(656,713,ls)
);
}
);
vertWidth = 0;
width = 594;
},
{
associatedMasterId = m002;
layerId = "F37B6A25-0192-483E-B22B-1CA87C39BAD9";
name = background;
shapes = (
{
closed = 1;
nodes = (
(-88,21,o),
(-58,0,o),
(-30,0,cs),
(6,0,o),
(96,2,o),
(118,5,cs),
(208,17,o),
(257,57,o),
(287,105,cs),
(328,172,o),
(345,255,o),
(361,349,cs),
(424,709,l),
(303,709,l),
(244,364,ls),
(230,286,o),
(217,211,o),
(188,163,cs),
(170,132,o),
(152,118,o),
(115,113,cs),
(87,109,o),
(-5,107,o),
(-30,107,cs),
(-58,107,o),
(-88,84,o),
(-88,53,cs)
);
},
{
closed = 1;
nodes = (
(138,682,o),
(160,659,o),
(196,659,cs),
(538,659,ls),
(576,659,o),
(598,684,o),
(598,715,cs),
(598,748,o),
(575,772,o),
(539,772,cs),
(197,772,ls),
(160,772,o),
(138,747,o),
(138,715,cs)
);
}
);
vertWidth = 0;
width = 594;
}
);
},
{
color = 7;
glyphname = K.ss04;
kernLeft = KO_K.ss04;
kernRight = KO_K.ss04;
layers = (
{
layerId = m01;
shapes = (
{
closed = 1;
nodes = (
(1365,1966,o),
(1341,2008,o),
(1290,2008,cs),
(1256,2008,o),
(1215,1990,o),
(1184,1962,cs),
(286,1145,l),
(418,1901,ls),
(428,1960,o),
(416,2008,o),
(347,2008,cs),
(279,2008,o),
(252,1970,o),
(243,1917,cs),
(-76,111,ls),
(-85,59,o),
(-58,0,o),
(4,0,cs),
(77,0,o),
(95,63,o),
(102,105,cs),
(265,1035,l),
(943,64,ls),
(965,33,o),
(995,0,o),
(1042,0,cs),
(1074,0,o),
(1111,20,o),
(1122,60,cs),
(1128,85,o),
(1122,113,o),
(1099,146,cs),
(449,1081,l),
(1299,1834,ls),
(1335,1866,o),
(1365,1898,o),
(1365,1930,cs)
);
},
{
closed = 1;
nodes = (
(1345,1906,o),
(1321,1880,o),
(1287,1850,cs),
(423,1085,l),
(1083,134,ls),
(1103,105,o),
(1107,85,o),
(1102,64,cs),
(1094,35,o),
(1067,20,o),
(1042,20,cs),
(1004,20,o),
(980,45,o),
(959,76,cs),
(279,1050,ls),
(262,1075,o),
(252,1075,o),
(247,1047,cs),
(81,107,ls),
(74,67,o),
(61,20,o),
(4,20,cs),
(-44,20,o),
(-64,63,o),
(-56,107,cs),
(263,1913,ls),
(271,1960,o),
(291,1988,o),
(347,1988,cs),
(399,1988,o),
(408,1958,o),
(398,1903,cs),
(262,1131,l),
(258,1110,o),
(268,1102,o),
(294,1125,cs),
(1198,1948,ls),
(1227,1974,o),
(1261,1988,o),
(1290,1988,cs),
(1328,1988,o),
(1345,1959,o),
(1345,1930,cs)
);
},
{
closed = 1;
nodes = (
(356,1876,o),
(373,1893,o),
(373,1915,cs),
(373,1937,o),
(356,1954,o),
(334,1954,cs),
(312,1954,o),
(295,1937,o),
(295,1915,cs),
(295,1893,o),
(312,1876,o),
(334,1876,cs)
);
}
);
vertWidth = 0;
width = 1207;
},
{
layerId = m002;
shapes = (
{
closed = 1;
nodes = (
(1529,1925,o),
(1476,2008,o),
(1373,2008,cs),
(1321,2008,o),
(1258,1999,o),
(1199,1946,cs),
(491,1310,l),
(577,1820,ls),
(600,1959,o),
(505,2008,o),
(422,2008,cs),
(334,2008,o),
(250,1964,o),
(233,1865,cs),
(-62,189,ls),
(-83,71,o),
(-4,0,o),
(106,0,cs),
(214,0,o),
(270,53,o),
(288,154,cs),
(414,869,l),
(967,87,ls),
(1006,32,o),
(1055,0,o),
(1121,0,cs),
(1189,0,o),
(1271,35,o),
(1287,112,cs),
(1294,154,o),
(1291,211,o),
(1257,260,cs),
(696,1067,l),
(1435,1702,ls),
(1491,1750,o),
(1512,1793,o),
(1518,1846,cs)
);
},
{
closed = 1;
nodes = (
(1474,1808,o),
(1458,1774,o),
(1409,1732,cs),
(642,1073,l),
(1225,238,ls),
(1253,198,o),
(1254,156,o),
(1247,120,cs),
(1236,65,o),
(1179,40,o),
(1121,40,cs),
(1066,40,o),
(1030,64,o),
(999,109,cs),
(440,910,ls),
(403,964,o),
(389,962,o),
(376,889,cs),
(248,162,ls),
(233,74,o),
(194,40,o),
(106,40,cs),
(17,40,o),
(-39,86,o),
(-22,183,cs),
(273,1857,ls),
(287,1936,o),
(346,1968,o),
(422,1968,cs),
(493,1968,o),
(555,1935,o),
(537,1828,cs),
(443,1271,ls),
(434,1216,o),
(454,1215,o),
(496,1253,cs),
(1225,1916,ls),
(1280,1966,o),
(1327,1968,o),
(1373,1968,cs),
(1451,1968,o),
(1487,1913,o),
(1478,1850,cs)
);
},
{
closed = 1;
nodes = (
(439,1796,o),
(466,1823,o),
(466,1856,cs),
(466,1889,o),
(439,1916,o),
(406,1916,cs),
(373,1916,o),
(346,1889,o),
(346,1856,cs),
(346,1823,o),
(373,1796,o),
(406,1796,cs)
);
}
);
vertWidth = 0;
width = 1363;
},
{
associatedMasterId = m01;
layerId = "E010F034-4598-4FE9-A40B-8BF5FC7CFE65";
name = background;
shapes = (
{
closed = 1;
nodes = (
(579,712,ls),
(593,723,o),
(599,735,o),
(601,746,cs),
(602,760,o),
(593,772,o),
(577,772,cs),
(568,773,o),
(555,769,o),
(541,757,cs),
(140,428,l),
(140,413,l),
(209,407,l)
);
},
{
closed = 1;
nodes = (
(140,423,l),
(141,410,l),
(411,23,ls),
(419,11,o),
(430,0,o),
(446,0,cs),
(457,0,o),
(469,7,o),
(473,20,cs),
(475,29,o),
(473,38,o),
(465,50,cs),
(207,421,l)
);
},
{
closed = 1;
nodes = (
(204,757,o),
(200,772,o),
(177,772,cs),
(153,772,o),
(145,759,o),
(141,740,cs),
(17,38,ls),
(13,20,o),
(23,0,o),
(44,0,cs),
(69,0,o),
(75,21,o),
(77,37,cs),
(201,735,ls)
);
}
);
vertWidth = 0;
width = 594;
}
);
},
{
color = 7;
glyphname = L.ss04;
kernLeft = KO_L.ss04;
kernRight = KO_L.ss04;
layers = (
{
layerId = m01;
shapes = (
{
closed = 1;
nodes = (
(-86,42,o),
(-60,0,o),
(5,0,cs),
(923,0,ls),
(984,0,o),
(1011,42,o),
(1011,85,cs),
(1011,127,o),
(983,163,o),
(923,163,cs),
(113,163,l),
(419,1900,ls),
(430,1960,o),
(418,2008,o),
(347,2008,cs),
(278,2008,o),
(252,1969,o),
(243,1917,cs),
(-77,95,ls)
);
},
{
closed = 1;
nodes = (
(263,1913,ls),
(271,1960,o),
(290,1988,o),
(347,1988,cs),
(401,1988,o),
(408,1954,o),
(399,1904,cs),
(89,143,l),
(923,143,ls),
(972,143,o),
(991,119,o),
(991,85,cs),
(991,49,o),
(972,20,o),
(923,20,cs),
(5,20,ls),
(-48,20,o),
(-66,48,o),
(-58,91,cs)
);
},
{
closed = 1;
nodes = (
(357,1876,o),
(374,1893,o),
(374,1915,cs),
(374,1937,o),
(357,1954,o),
(335,1954,cs),
(313,1954,o),
(296,1937,o),
(296,1915,cs),
(296,1893,o),
(313,1876,o),
(335,1876,cs)
);
}
);
vertWidth = 0;
width = 1093;
},
{
layerId = m002;
shapes = (
{
closed = 1;
nodes = (
(-82,76,o),
(-18,0,o),
(87,0,cs),
(1156,0,ls),
(1284,0,o),
(1330,78,o),
(1330,163,cs),
(1330,247,o),
(1283,318,o),
(1156,318,cs),
(316,318,l),
(580,1821,ls),
(606,1968,o),
(514,2008,o),
(430,2008,cs),
(334,2008,o),
(250,1964,o),
(233,1865,cs),
(-65,175,ls)
);
},
{
closed = 1;
nodes = (
(273,1857,ls),
(287,1936,o),
(346,1968,o),
(430,1968,cs),
(504,1968,o),
(560,1942,o),
(540,1827,cs),
(268,278,l),
(1156,278,ls),
(1264,278,o),
(1290,228,o),
(1290,163,cs),
(1290,96,o),
(1263,40,o),
(1156,40,cs),
(87,40,ls),
(3,40,o),
(-38,91,o),
(-25,167,cs)
);
},
{
closed = 1;
nodes = (
(442,1796,o),
(469,1823,o),
(469,1856,cs),
(469,1889,o),
(442,1916,o),
(409,1916,cs),
(376,1916,o),
(349,1889,o),
(349,1856,cs),
(349,1823,o),
(376,1796,o),
(409,1796,cs)
);
}
);
vertWidth = 0;
width = 1400;
}
);
},
{
color = 7;
glyphname = M.ss04;
kernLeft = KO_M.ss04;
kernRight = KO_M.ss04;
layers = (
{
layerId = m01;
shapes = (
{
closed = 1;
nodes = (
(30,0,o),
(70,24,o),
(100,84,cs),
(884,1638,l),
(995,118,ls),
(1000,52,o),
(1013,0,o),
(1088,0,cs),
(1157,0,o),
(1185,57,o),
(1209,105,cs),
(2001,1681,l),
(2098,95,ls),
(2101,51,o),
(2119,0,o),
(2192,0,cs),
(2247,0,o),
(2278,39,o),
(2274,105,cs),
(2152,1913,ls),
(2149,1964,o),
(2141,2008,o),
(2043,2008,cs),
(1992,2008,o),
(1959,1963,o),
(1942,1929,cs),
(1144,348,l),
(1031,1926,ls),
(1028,1967,o),
(1006,2008,o),
(942,2008,cs),
(881,2008,o),
(866,1967,o),
(846,1927,cs),
(-64,131,ls),
(-83,93,o),
(-88,58,o),
(-73,36,cs),
(-61,16,o),
(-34,0,o),
(-8,0,cs)
);
},
{
closed = 1;
nodes = (
(-28,20,o),
(-47,31,o),
(-57,46,cs),
(-67,62,o),
(-64,88,o),
(-46,123,cs),
(864,1919,ls),
(884,1959,o),
(895,1988,o),
(942,1988,cs),
(993,1988,o),
(1008,1960,o),
(1011,1924,cs),
(1126,319,ls),
(1129,272,o),
(1132,279,o),
(1156,326,cs),
(1960,1921,ls),
(1977,1955,o),
(2004,1988,o),
(2043,1988,cs),
(2124,1988,o),
(2129,1961,o),
(2132,1911,cs),
(2254,103,ls),
(2258,47,o),
(2236,20,o),
(2192,20,cs),
(2134,20,o),
(2121,56,o),
(2118,97,cs),
(2019,1706,ls),
(2017,1736,o),
(2007,1737,o),
(1991,1705,cs),
(1191,113,ls),
(1167,65,o),
(1145,20,o),
(1088,20,cs),
(1029,20,o),
(1020,56,o),
(1015,120,cs),
(902,1671,ls),
(900,1702,o),
(893,1700,o),
(878,1671,cs),
(83,92,ls),
(56,39,o),
(23,20,o),
(-8,20,cs)
);
},
{
closed = 1;
nodes = (
(21,41,o),
(38,58,o),
(38,80,cs),
(38,102,o),
(21,119,o),
(-1,119,cs),
(-23,119,o),
(-40,102,o),
(-40,80,cs),
(-40,58,o),
(-23,41,o),
(-1,41,cs)
);
}
);
vertWidth = 0;
width = 2356;
},
{
layerId = m002;
shapes = (
{
closed = 1;
nodes = (
(137,0,o),
(233,29,o),
(275,112,cs),
(873,1291,l),
(952,165,ls),
(960,58,o),
(1022,0,o),
(1129,0,cs),
(1263,0,o),
(1306,65,o),
(1340,133,cs),
(1935,1308,l),
(2015,161,ls),
(2021,69,o),
(2085,0,o),
(2193,0,cs),
(2296,0,o),
(2361,72,o),
(2353,183,cs),
(2234,1874,ls),
(2227,1968,o),
(2206,2008,o),
(2084,2008,cs),
(1959,2008,o),
(1909,1969,o),
(1872,1895,cs),
(1235,638,l),
(1149,1874,ls),
(1142,1970,o),
(1109,2008,o),
(973,2008,cs),
(873,2008,o),
(834,1969,o),
(800,1902,cs),
(-35,255,ls),
(-78,170,o),
(-74,120,o),
(-51,76,cs),
(-26,29,o),
(24,0,o),
(77,0,cs)
);
},
{
closed = 1;
nodes = (
(34,40,o),
(2,61,o),
(-15,94,cs),
(-34,130,o),
(-37,163,o),
(1,237,cs),
(836,1884,ls),
(868,1947,o),
(894,1968,o),
(973,1968,cs),
(1084,1968,o),
(1103,1955,o),
(1109,1872,cs),
(1199,591,ls),
(1203,530,o),
(1225,529,o),
(1255,589,cs),
(1908,1877,ls),
(1940,1940,o),
(1973,1968,o),
(2084,1968,cs),
(2176,1968,o),
(2188,1957,o),
(2194,1872,cs),
(2313,179,ls),
(2319,89,o),
(2275,40,o),
(2193,40,cs),
(2105,40,o),
(2059,88,o),
(2054,165,cs),
(1971,1345,ls),
(1965,1425,o),
(1954,1433,o),
(1912,1349,cs),
(1305,151,ls),
(1271,84,o),
(1239,40,o),
(1129,40,cs),
(1042,40,o),
(998,78,o),
(992,169,cs),
(911,1333,ls),
(906,1408,o),
(887,1411,o),
(849,1335,cs),
(239,130,ls),
(206,64,o),
(129,40,o),
(77,40,cs)
);
},
{
closed = 1;
nodes = (
(129,91,o),
(156,118,o),
(156,151,cs),
(156,184,o),
(129,211,o),
(96,211,cs),
(63,211,o),
(36,184,o),
(36,151,cs),
(36,118,o),
(63,91,o),
(96,91,cs)
);
}
);
vertWidth = 0;
width = 2423;
},
{
associatedMasterId = m01;
layerId = "821342D0-DD98-4007-9C88-2E342CE68D40";
name = background;
shapes = (
{
closed = 1;
nodes = (
(381,772,l),
(360,772,o),
(353,759,o),
(345,743,cs),
(-19,45,ls),
(-26,31,o),
(-26,19,o),
(-21,12,cs),
(-17,5,o),
(-8,0,o),
(1,0,cs),
(14,0,o),
(29,8,o),
(40,30,cs),
(392,704,l)
);
},
{
closed = 1;
nodes = (
(411,750,ls),
(410,759,o),
(402,772,o),
(380,772,c),
(356,694,l),
(410,29,ls),
(411,17,o),
(416,0,o),
(444,0,c),
(466,72,l)
);
},
{
closed = 1;
nodes = (
(466,0,o),
(475,20,o),
(480,29,cs),
(828,696,l),
(816,772,l),
(798,772,o),
(791,754,o),
(784,741,cs),
(436,72,l),
(442,0,l)
);
},
{
closed = 1;
nodes = (
(853,758,o),
(849,772,o),
(815,772,c),
(796,722,l),
(853,29,ls),
(854,17,o),
(860,0,o),
(885,0,c),
(904,0,o),
(914,13,o),
(912,31,cs),
(854,739,ls)
);
}
);
vertWidth = 0;
width = 594;
}
);
},
{
color = 7;
glyphname = N.ss04;
kernLeft = KO_N.ss04;
kernRight = KO_H.ss04;
layers = (
{
layerId = m01;
shapes = (
{
closed = 1;
nodes = (
(969,30,o),
(999,0,o),
(1049,0,cs),
(1122,0,o),
(1132,56,o),
(1137,86,cs),
(1455,1900,ls),
(1466,1960,o),
(1454,2008,o),
(1386,2008,cs),
(1316,2008,o),
(1294,1968,o),
(1285,1917,cs),
(1015,381,l),
(446,1939,ls),
(435,1968,o),
(407,2008,o),
(346,2008,cs),
(272,2008,o),
(252,1968,o),
(243,1917,cs),
(-79,95,ls),
(-88,42,o),
(-61,0,o),
(3,0,cs),
(79,0,o),
(93,57,o),
(99,94,cs),
(373,1666,l),
(957,62,ls)
);
},
{
closed = 1;
nodes = (
(383,1698,ls),
(372,1729,o),
(363,1727,o),
(357,1695,cs),
(79,98,ls),
(73,61,o),
(63,20,o),
(3,20,cs),
(-49,20,o),
(-67,48,o),
(-59,91,cs),
(263,1913,ls),
(271,1961,o),
(285,1988,o),
(346,1988,cs),
(396,1988,o),
(419,1958,o),
(428,1933,cs),
(1001,360,ls),
(1018,314,o),
(1025,317,o),
(1033,363,cs),
(1305,1913,ls),
(1313,1961,o),
(1329,1988,o),
(1386,1988,cs),
(1437,1988,o),
(1445,1959,o),
(1435,1904,cs),
(1117,90,ls),
(1112,60,o),
(1106,20,o),
(1049,20,cs),
(1008,20,o),
(984,42,o),
(975,68,cs)
);
},
{
closed = 1;
nodes = (
(29,41,o),
(46,58,o),
(46,80,cs),
(46,102,o),
(29,119,o),
(7,119,cs),
(-15,119,o),
(-32,102,o),
(-32,80,cs),
(-32,58,o),
(-15,41,o),
(7,41,cs)
);
}
);
vertWidth = 0;
width = 1217;
},
{
layerId = m002;
shapes = (
{
closed = 1;
nodes = (
(973,34,o),
(1035,0,o),
(1124,0,cs),
(1223,0,o),
(1271,33,o),
(1287,121,cs),
(1586,1820,ls),
(1605,1930,o),
(1548,2008,o),
(1433,2008,cs),
(1339,2008,o),
(1255,1963,o),
(1238,1865,cs),
(1042,753,l),
(568,1924,ls),
(538,1999,o),
(471,2008,o),
(403,2008,cs),
(316,2008,o),
(254,1979,o),
(237,1885,cs),
(-65,175,ls),
(-82,76,o),
(-13,0,o),
(87,0,cs),
(199,0,o),
(273,68,o),
(287,146,cs),
(481,1248,l),
(948,96,ls)
);
},
{
closed = 1;
nodes = (
(498,1311,ls),
(478,1361,o),
(460,1366,o),
(449,1301,cs),
(247,154,ls),
(236,90,o),
(181,40,o),
(87,40,cs),
(8,40,o),
(-37,91,o),
(-24,167,cs),
(277,1877,ls),
(291,1955,o),
(332,1968,o),
(403,1968,cs),
(461,1968,o),
(507,1967,o),
(530,1910,cs),
(1018,706,ls),
(1043,645,o),
(1063,642,o),
(1075,709,cs),
(1277,1857,ls),
(1291,1937,o),
(1353,1968,o),
(1433,1968,cs),
(1523,1968,o),
(1562,1919,o),
(1546,1828,cs),
(1247,129,ls),
(1234,53,o),
(1203,40,o),
(1124,40,cs),
(1049,40,o),
(1005,62,o),
(986,110,cs)
);
},
{
closed = 1;
nodes = (
(144,91,o),
(171,118,o),
(171,151,cs),
(171,184,o),
(144,211,o),
(111,211,cs),
(78,211,o),
(51,184,o),
(51,151,cs),
(51,118,o),
(78,91,o),
(111,91,cs)
);
}
);
vertWidth = 0;
width = 1361;
}
);
},
{
color = 7;
glyphname = O.ss04;
kernLeft = KO_O.ss04;
kernRight = KO_O.ss04;
layers = (
{
layerId = m01;
shapes = (
{
closed = 1;
nodes = (
(933,-20,o),
(1359,734,o),
(1411,1337,cs),
(1442,1694,o),
(1302,2008,o),
(854,2008,cs),
(477,2008,o),
(250,1745,o),
(134,1269,cs),
(-25,612,o),
(82,-20,o),
(438,-20,cs)
);
},
{
closed = 1;
nodes = (
(100,0,o),
(-4,614,o),
(154,1265,cs),
(268,1735,o),
(488,1988,o),
(854,1988,cs),
(1287,1988,o),
(1422,1689,o),
(1391,1339,cs),
(1339,740,o),
(919,0,o),
(438,0,cs)
);
},
{
closed = 1;
nodes = (
(186,686,o),
(242,143,o),
(449,143,cs),
(786,143,o),
(1196,810,o),
(1237,1318,cs),
(1261,1625,o),
(1188,1848,o),
(844,1840,cs),
(550,1835,o),
(398,1635,o),
(303,1207,cs)
);
},
{
closed = 1;
nodes = (
(380,1644,o),
(539,1855,o),
(844,1860,cs),
(1203,1868,o),
(1281,1628,o),
(1257,1316,cs),
(1216,804,o),
(800,123,o),
(449,123,cs),
(221,123,o),
(166,686,o),
(283,1211,cs)
);
},
{
closed = 1;
nodes = (
(1132,1832,o),
(1149,1849,o),
(1149,1871,cs),
(1149,1893,o),
(1132,1910,o),
(1110,1910,cs),
(1088,1910,o),
(1071,1893,o),
(1071,1871,cs),
(1071,1849,o),
(1088,1832,o),
(1110,1832,cs)
);
}
);
vertWidth = 0;
width = 1277;
},
{
layerId = m002;
shapes = (
{
closed = 1;
nodes = (
(960,-20,o),
(1462,748,o),
(1522,1306,cs),
(1560,1682,o),
(1353,2028,o),
(891,2028,cs),
(453,2028,o),
(254,1717,o),
(134,1253,cs),
(-27,633,o),
(55,-20,o),
(478,-20,cs)
);
},
{
closed = 1;
nodes = (
(93,20,o),
(14,634,o),
(172,1243,cs),
(291,1698,o),
(476,1988,o),
(891,1988,cs),
(1327,1988,o),
(1518,1671,o),
(1482,1310,cs),
(1424,764,o),
(935,20,o),
(478,20,cs)
);
},
{
closed = 1;
nodes = (
(399,804,o),
(376,298,o),
(485,298,cs),
(689,298,o),
(1125,858,o),
(1170,1303,cs),
(1186,1478,o),
(1177,1710,o),
(883,1710,cs),
(629,1710,o),
(549,1534,o),
(469,1146,cs)
);
},
{
closed = 1;
nodes = (
(511,1548,o),
(602,1750,o),
(883,1750,cs),
(1216,1750,o),
(1226,1477,o),
(1210,1299,cs),
(1163,843,o),
(714,258,o),
(485,258,cs),
(326,258,o),
(359,809,o),
(429,1154,cs)
);
},
{
closed = 1;
nodes = (
(1171,1754,o),
(1198,1781,o),
(1198,1814,cs),
(1198,1847,o),
(1171,1874,o),
(1138,1874,cs),
(1105,1874,o),
(1078,1847,o),
(1078,1814,cs),
(1078,1781,o),
(1105,1754,o),
(1138,1754,cs)
);
}
);
vertWidth = 0;
width = 1390;
},
{
associatedMasterId = m01;
layerId = "7307B018-DEB8-4492-83DD-A560B2CDD96E";
name = background;
shapes = (
{
closed = 1;
nodes = (
(352,-5,o),
(530,304,o),
(558,520,cs),
(576,655,o),
(539,772,o),
(371,772,cs),
(225,772,o),
(147,662,o),
(97,486,cs),
(84,438,o),
(74,383,o),
(69,330,cs),
(55,170,o),
(69,-5,o),
(179,-5,cs)
);
},
{
closed = 1;
nodes = (
(115,50,o),
(119,211,o),
(127,318,cs),
(132,368,o),
(144,422,o),
(154,461,cs),
(200,625,o),
(249,718,o),
(365,718,cs),
(523,718,o),
(510,588,o),
(499,513,cs),
(473,321,o),
(284,50,o),
(178,50,cs)
);
}
);
vertWidth = 0;
width = 590;
},
{
associatedMasterId = m002;
layerId = "D1F148A5-460D-423B-8A8D-A02342BEA43C";
name = background;
shapes = (
{
closed = 1;
nodes = (
(393,-12,o),
(592,291,o),
(619,503,cs),
(637,644,o),
(563,779,o),
(391,779,cs),
(227,779,o),
(147,652,o),
(100,480,cs),
(87,432,o),
(77,379,o),
(75,329,cs),
(62,171,o),
(70,-12,o),
(213,-12,cs)
);
},
{
closed = 1;
nodes = (
(175,95,o),
(185,215,o),
(192,312,cs),
(195,359,o),
(204,406,o),
(213,442,cs),
(253,593,o),
(283,672,o),
(386,672,cs),
(506,672,o),
(507,568,o),
(499,500,cs),
(478,327,o),
(301,95,o),
(219,95,cs)
);
}
);
vertWidth = 0;
width = 594;
}
);
},
{
color = 7;
glyphname = P.ss04;
kernLeft = KO_P.ss04;
kernRight = KO_P.ss04;
layers = (
{
layerId = m01;
shapes = (
{
closed = 1;
nodes = (
(1430,1881,o),
(1008,2011,o),
(346,2008,cs),
(272,2008,o),
(252,1968,o),
(243,1917,cs),
(-76,108,ls),
(-85,56,o),
(-59,0,o),
(7,0,cs),
(83,0,o),
(94,67,o),
(100,99,cs),
(260,1000,l),
(899,1009,o),
(1340,1126,o),
(1385,1504,cs)
);
},
{
closed = 1;
nodes = (
(1322,1139,o),
(888,1027,o),
(244,1020,c),
(80,103,ls),
(74,71,o),
(65,20,o),
(7,20,cs),
(-45,20,o),
(-64,60,o),
(-56,104,cs),
(263,1913,ls),
(271,1961,o),
(285,1988,o),
(346,1988,cs),
(1003,1991,o),
(1407,1866,o),
(1365,1506,cs)
);
},
{
closed = 1;
nodes = (
(827,1174,o),
(1179,1279,o),
(1206,1521,cs),
(1231,1746,o),
(1003,1841,o),
(409,1848,c),
(289,1164,l)
);
},
{
closed = 1;
nodes = (
(393,1868,l),
(1006,1863,o),
(1253,1761,o),
(1226,1519,cs),
(1197,1258,o),
(820,1150,o),
(265,1144,c)
);
},
{
closed = 1;
nodes = (
(360,1876,o),
(377,1893,o),
(377,1915,cs),
(377,1937,o),
(360,1954,o),
(338,1954,cs),
(316,1954,o),
(299,1937,o),
(299,1915,cs),
(299,1893,o),
(316,1876,o),
(338,1876,cs)
);
}
);
vertWidth = 0;
width = 1216;
},
{
layerId = m002;
shapes = (
{
closed = 1;
nodes = (
(1609,1875,o),
(1195,2018,o),
(417,2008,cs),
(317,2008,o),
(250,1954,o),
(233,1857,cs),
(-66,165,ls),
(-78,96,o),
(-12,0,o),
(105,0,cs),
(223,0,o),
(269,81,o),
(277,127,cs),
(418,920,l),
(964,929,o),
(1492,1013,o),
(1555,1479,cs)
);
},
{
closed = 1;
nodes = (
(1456,1039,o),
(939,966,o),
(384,960,c),
(238,137,ls),
(231,97,o),
(197,40,o),
(105,40,cs),
(11,40,o),
(-34,108,o),
(-25,157,cs),
(273,1849,ls),
(287,1930,o),
(333,1968,o),
(417,1968,cs),
(1183,1978,o),
(1563,1848,o),
(1515,1485,cs)
);
},
{
closed = 1;
nodes = (
(872,1256,o),
(1197,1326,o),
(1211,1501,cs),
(1221,1626,o),
(1094,1678,o),
(553,1689,c),
(474,1243,l)
);
},
{
closed = 1;
nodes = (
(519,1729,l),
(1104,1722,o),
(1266,1654,o),
(1252,1495,cs),
(1232,1280,o),
(851,1210,o),
(426,1201,c)
);
},
{
closed = 1;
nodes = (
(421,1796,o),
(448,1823,o),
(448,1856,cs),
(448,1889,o),
(421,1916,o),
(388,1916,cs),
(355,1916,o),
(328,1889,o),
(328,1856,cs),
(328,1823,o),
(355,1796,o),
(388,1796,cs)
);
}
);
vertWidth = 0;
width = 1390;
},
{
associatedMasterId = m01;
layerId = "20E38FB0-B6D6-4C6B-89B9-150B1056CEBB";
name = background;
shapes = (
{
closed = 1;
nodes = (
(352,361,o),
(543,381,o),
(569,565,cs),
(589,709,o),
(435,772,o),
(181,772,c),
(184,718,l),
(426,718,o),
(522,662,o),
(510,571,cs),
(492,436,o),
(317,416,o),
(134,416,c),
(126,361,l)
);
},
{
closed = 1;
nodes = (
(203,757,o),
(201,772,o),
(176,772,cs),
(150,772,o),
(144,759,o),
(140,740,cs),
(15,32,ls),
(12,14,o),
(21,-5,o),
(43,-5,cs),
(69,-5,o),
(72,18,o),
(75,30,cs),
(200,735,ls)
);
}
);
vertWidth = 0;
width = 594;
}
);
},
{
color = 7;
glyphname = Q.ss04;
kernLeft = KO_Q.ss04;
kernRight = KO_Q;
layers = (
{
layerId = m01;
shapes = (
{
closed = 1;
nodes = (
(1027,-119,o),
(1036,-64,o),
(1009,-25,cs),
(879,163,l),
(1173,431,o),
(1391,899,o),
(1429,1318,cs),
(1461,1679,o),
(1313,2016,o),
(884,2008,cs),
(488,2003,o),
(250,1754,o),
(135,1279,cs),
(-22,622,o),
(93,-20,o),
(449,-20,cs),
(549,-20,o),
(647,4,o),
(739,59,c),
(854,-108,ls),
(888,-158,o),
(932,-173,o),
(980,-147,cs)
);
},
{
closed = 1;
nodes = (
(933,-150,o),
(901,-141,o),
(870,-96,cs),
(745,87,l),
(650,26,o),
(551,0,o),
(449,0,cs),
(111,0,o),
(-1,624,o),
(155,1275,cs),
(268,1743,o),
(499,1983,o),
(884,1988,cs),
(1299,1996,o),
(1441,1674,o),
(1409,1320,cs),
(1371,898,o),
(1149,428,o),
(852,166,c),
(992,-36,ls),
(1015,-70,o),
(1006,-108,o),
(970,-129,cs)
);
},
{
closed = 1;
nodes = (
(186,693,o),
(253,143,o),
(460,143,cs),
(520,143,o),
(583,157,o),
(646,197,c),
(520,381,ls),
(484,433,o),
(481,467,o),
(524,502,cs),
(573,542,o),
(623,533,o),
(655,486,cs),
(780,305,l),
(1019,543,o),
(1226,952,o),
(1253,1302,cs),
(1279,1610,o),
(1199,1848,o),
(876,1840,cs),
(561,1835,o),
(398,1642,o),
(303,1215,cs)
);
},
{
closed = 1;
nodes = (
(380,1651,o),
(550,1855,o),
(876,1860,cs),
(1214,1868,o),
(1299,1613,o),
(1273,1300,cs),
(1245,938,o),
(1025,511,o),
(777,275,c),
(639,474,ls),
(611,515,o),
(576,518,o),
(536,486,cs),
(504,460,o),
(504,440,o),
(536,393,cs),
(674,191,l),
(603,143,o),
(530,123,o),
(460,123,cs),
(233,123,o),
(166,693,o),
(283,1219,cs)
);
},
{
closed = 1;
nodes = (
(1132,1841,o),
(1149,1858,o),
(1149,1880,cs),
(1149,1902,o),
(1132,1919,o),
(1110,1919,cs),
(1088,1919,o),
(1071,1902,o),
(1071,1880,cs),
(1071,1858,o),
(1088,1841,o),
(1110,1841,cs)
);
}
);
vertWidth = 0;
width = 1298;
},
{
layerId = m002;
shapes = (
{
closed = 1;
nodes = (
(1213,-76,o),
(1246,7,o),
(1190,89,cs),
(1075,257,l),
(1336,540,o),
(1536,948,o),
(1572,1288,cs),
(1610,1664,o),
(1403,2028,o),
(915,2028,cs),
(453,2028,o),
(255,1717,o),
(134,1253,cs),
(-27,634,o),
(55,-21,o),
(512,-21,cs),
(615,-21,o),
(719,14,o),
(818,42,c),
(899,-76,ls),
(961,-167,o),
(1046,-171,o),
(1121,-128,cs)
);
},
{
closed = 1;
nodes = (
(1043,-129,o),
(982,-130,o),
(931,-54,cs),
(830,96,l),
(724,58,o),
(619,19,o),
(512,19,cs),
(93,19,o),
(14,634,o),
(172,1243,cs),
(292,1698,o),
(476,1988,o),
(915,1988,cs),
(1377,1988,o),
(1568,1653,o),
(1532,1292,cs),
(1496,951,o),
(1291,538,o),
(1023,261,c),
(1156,67,ls),
(1203,-1,o),
(1173,-55,o),
(1101,-94,cs)
);
},
{
closed = 1;
nodes = (
(399,804,o),
(381,330,o),
(520,297,cs),
(554,289,o),
(587,294,o),
(636,309,c),
(590,378,ls),
(528,472,o),
(570,537,o),
(635,590,cs),
(702,641,o),
(798,664,o),
(862,568,cs),
(878,544,l),
(1045,758,o),
(1194,1036,o),
(1220,1285,cs),
(1236,1460,o),
(1227,1710,o),
(915,1710,cs),
(629,1710,o),
(549,1534,o),
(470,1146,cs)
);
},
{
closed = 1;
nodes = (
(511,1547,o),
(601,1750,o),
(915,1750,cs),
(1266,1750,o),
(1276,1459,o),
(1260,1281,cs),
(1232,1016,o),
(1069,716,o),
(875,476,c),
(836,536,ls),
(783,617,o),
(710,597,o),
(659,558,cs),
(608,516,o),
(570,476,o),
(622,400,cs),
(692,298,l),
(629,259,o),
(571,249,o),
(520,257,cs),
(329,287,o),
(359,809,o),
(430,1154,cs)
);
},
{
closed = 1;
nodes = (
(1179,1763,o),
(1206,1790,o),
(1206,1823,cs),
(1206,1856,o),
(1179,1883,o),
(1146,1883,cs),
(1113,1883,o),
(1086,1856,o),
(1086,1823,cs),
(1086,1790,o),
(1113,1763,o),
(1146,1763,cs)
);
}
);
vertWidth = 0;
width = 1443;
}
);
},
{
color = 7;
glyphname = R.ss04;
kernLeft = KO_R.ss04;
kernRight = KO_R.ss04;
layers = (
{
layerId = m01;
shapes = (
{
closed = 1;
nodes = (
(1389,1892,o),
(965,2008,o),
(346,2008,cs),
(272,2008,o),
(252,1968,o),
(243,1917,cs),
(-75,113,ls),
(-85,55,o),
(-60,0,o),
(5,0,cs),
(80,0,o),
(95,57,o),
(103,104,cs),
(258,984,l),
(955,59,ls),
(986,18,o),
(1011,0,o),
(1039,0,cs),
(1074,0,o),
(1109,24,o),
(1120,54,cs),
(1129,79,o),
(1127,121,o),
(1106,149,cs),
(444,1015,l),
(934,1041,o),
(1298,1163,o),
(1339,1493,cs)
);
},
{
closed = 1;
nodes = (
(1279,1174,o),
(921,1058,o),
(426,1034,cs),
(407,1033,o),
(406,1031,o),
(419,1015,cs),
(1090,137,ls),
(1107,114,o),
(1109,81,o),
(1102,60,cs),
(1093,38,o),
(1067,20,o),
(1039,20,cs),
(1018,20,o),
(999,33,o),
(971,71,cs),
(264,1010,ls),
(249,1030,o),
(247,1037,o),
(241,1005,cs),
(83,108,ls),
(75,61,o),
(64,20,o),
(5,20,cs),
(-46,20,o),
(-64,60,o),
(-55,109,cs),
(263,1913,ls),
(271,1961,o),
(285,1988,o),
(346,1988,cs),
(962,1988,o),
(1367,1877,o),
(1319,1495,cs)
);
},
{
closed = 1;
nodes = (
(788,1147,o),
(1134,1293,o),
(1166,1509,cs),
(1201,1740,o),
(921,1839,o),
(410,1848,c),
(290,1164,l)
);
},
{
closed = 1;
nodes = (
(394,1868,l),
(922,1861,o),
(1223,1757,o),
(1186,1507,cs),
(1152,1273,o),
(782,1123,o),
(266,1144,c)
);
},
{
closed = 1;
nodes = (
(360,1876,o),
(377,1893,o),
(377,1915,cs),
(377,1937,o),
(360,1954,o),
(338,1954,cs),
(316,1954,o),
(299,1937,o),
(299,1915,cs),
(299,1893,o),
(316,1876,o),
(338,1876,cs)
);
}
);
vertWidth = 0;
width = 1207;
},
{
layerId = m002;
shapes = (
{
closed = 1;
nodes = (
(1575,1875,o),
(1133,2008,o),
(425,2008,cs),
(320,2008,o),
(250,1963,o),
(233,1864,cs),
(-62,189,ls),
(-80,89,o),
(-36,0,o),
(78,0,cs),
(184,0,o),
(271,77,o),
(289,180,cs),
(404,832,l),
(971,78,ls),
(1024,7,o),
(1092,0,o),
(1136,0,cs),
(1200,0,o),
(1274,38,o),
(1293,102,cs),
(1308,149,o),
(1305,203,o),
(1274,244,cs),
(742,949,l),
(1150,1010,o),
(1454,1196,o),
(1503,1471,cs)
);
},
{
closed = 1;
nodes = (
(1417,1213,o),
(1113,1035,o),
(699,984,cs),
(678,981,o),
(673,979,o),
(689,957,cs),
(1241,222,ls),
(1266,189,o),
(1267,152,o),
(1255,114,cs),
(1241,68,o),
(1188,40,o),
(1136,40,cs),
(1095,40,o),
(1046,45,o),
(1003,102,cs),
(415,884,ls),
(392,915,o),
(378,920,o),
(370,875,cs),
(249,186,ls),
(234,100,o),
(166,40,o),
(78,40,cs),
(-9,40,o),
(-37,98,o),
(-22,183,cs),
(273,1858,ls),
(287,1937,o),
(334,1968,o),
(425,1968,cs),
(1124,1968,o),
(1529,1847,o),
(1463,1477,cs)
);
},
{
closed = 1;
nodes = (
(935,1210,o),
(1146,1374,o),
(1164,1484,cs),
(1189,1628,o),
(1040,1692,o),
(556,1691,c),
(476,1241,l)
);
},
{
closed = 1;
nodes = (
(522,1731,l),
(1048,1736,o),
(1234,1656,o),
(1204,1478,cs),
(1181,1344,o),
(935,1158,o),
(428,1205,c)
);
},
{
closed = 1;
nodes = (
(421,1796,o),
(448,1823,o),
(448,1856,cs),
(448,1889,o),
(421,1916,o),
(388,1916,cs),
(355,1916,o),
(328,1889,o),
(328,1856,cs),
(328,1823,o),
(355,1796,o),
(388,1796,cs)
);
}
);
vertWidth = 0;
width = 1372;
},
{
associatedMasterId = m01;
layerId = "C47353F9-FE80-40FB-AB91-6D72AFE07355";
name = background;
shapes = (
{
closed = 1;
nodes = (
(375,361,o),
(575,381,o),
(601,565,cs),
(621,709,o),
(470,772,o),
(213,772,c),
(213,718,l),
(442,718,o),
(555,665,o),
(542,571,cs),
(523,437,o),
(347,416,o),
(158,416,c),
(150,361,l)
);
},
{
closed = 1;
nodes = (
(141,390,l),
(447,21,ls),
(459,6,o),
(467,0,o),
(476,0,cs),
(488,0,o),
(500,8,o),
(504,18,cs),
(507,27,o),
(506,42,o),
(499,51,cs),
(226,381,l)
);
},
{
closed = 1;
nodes = (
(235,757,o),
(233,772,o),
(208,772,cs),
(182,772,o),
(176,759,o),
(172,740,cs),
(49,39,ls),
(45,19,o),
(53,0,o),
(75,0,cs),
(101,0,o),
(106,19,o),
(109,37,cs),
(232,735,ls)
);
}
);
vertWidth = 0;
width = 594;
}
);
},
{
color = 7;
glyphname = S.ss04;
kernLeft = KO_S.ss04;
kernRight = KO_S.ss04;
layers = (
{
layerId = m01;
shapes = (
{
closed = 1;
nodes = (
(785,-20,o),
(1092,251,o),
(1092,564,cs),
(1092,821,o),
(943,1001,o),
(747,1129,cs),
(652,1191,ls),
(445,1326,o),
(363,1424,o),
(363,1545,cs),
(363,1775,o),
(613,1848,o),
(939,1848,cs),
(1204,1848,ls),
(1248,1848,o),
(1284,1878,o),
(1284,1930,cs),
(1284,2008,o),
(1212,2008,o),
(1201,2008,cs),
(915,2008,ls),
(468,2008,o),
(182,1833,o),
(182,1535,cs),
(182,1372,o),
(299,1213,o),
(498,1079,cs),
(595,1014,ls),
(780,890,o),
(913,755,o),
(913,562,cs),
(913,330,o),
(693,143,o),
(268,143,cs),
(2,143,ls),
(-44,143,o),
(-83,110,o),
(-83,58,cs),
(-83,-20,o),
(-5,-20,o),
(2,-20,cs),
(249,-20,ls)
);
},
{
closed = 1;
nodes = (
(2,0,ls),
(-5,0,o),
(-63,0,o),
(-63,58,cs),
(-63,99,o),
(-35,123,o),
(2,123,cs),
(268,123,ls),
(702,123,o),
(933,319,o),
(933,562,cs),
(933,764,o),
(792,906,o),
(607,1030,cs),
(510,1095,ls),
(314,1227,o),
(202,1379,o),
(202,1535,cs),
(202,1821,o),
(474,1988,o),
(915,1988,cs),
(1201,1988,ls),
(1212,1988,o),
(1264,1988,o),
(1264,1930,cs),
(1264,1889,o),
(1239,1868,o),
(1204,1868,cs),
(939,1868,ls),
(608,1868,o),
(343,1790,o),
(343,1545,cs),
(343,1416,o),
(433,1314,o),
(642,1175,cs),
(735,1113,ls),
(928,984,o),
(1072,813,o),
(1072,564,cs),
(1072,262,o),
(776,0,o),
(249,0,cs)
);
},
{
closed = 1;
nodes = (
(1223,1889,o),
(1240,1906,o),
(1240,1928,cs),
(1240,1950,o),
(1223,1967,o),
(1201,1967,cs),
(1179,1967,o),
(1162,1950,o),
(1162,1928,cs),
(1162,1906,o),
(1179,1889,o),
(1201,1889,cs)
);
}
);
vertWidth = 0;
width = 1095;
},
{
layerId = m002;
shapes = (
{
closed = 1;
nodes = (
(724,-20,o),
(1271,137,o),
(1271,593,cs),
(1271,884,o),
(1053,1040,o),
(862,1186,cs),
(803,1231,ls),
(619,1371,o),
(525,1430,o),
(525,1506,cs),
(525,1615,o),
(727,1687,o),
(928,1687,cs),
(1339,1687,ls),
(1431,1687,o),
(1505,1761,o),
(1505,1850,cs),
(1505,1978,o),
(1396,2008,o),
(1337,2008,cs),
(931,2008,ls),
(509,2008,o),
(178,1789,o),
(178,1493,cs),
(178,1258,o),
(376,1132,o),
(584,985,cs),
(649,939,ls),
(843,802,o),
(921,718,o),
(921,593,cs),
(921,372,o),
(591,301,o),
(413,301,cs),
(99,301,ls),
(7,301,o),
(-69,224,o),
(-69,135,cs),
(-69,10,o),
(50,-20,o),
(99,-20,cs),
(413,-20,ls)
);
},
{
closed = 1;
nodes = (
(99,20,ls),
(57,20,o),
(-29,42,o),
(-29,135,cs),
(-29,205,o),
(26,261,o),
(99,261,cs),
(413,261,ls),
(598,261,o),
(961,339,o),
(961,593,cs),
(961,735,o),
(870,831,o),
(673,971,cs),
(608,1017,ls),
(397,1166,o),
(218,1280,o),
(218,1493,cs),
(218,1766,o),
(524,1968,o),
(931,1968,cs),
(1337,1968,ls),
(1388,1968,o),
(1465,1947,o),
(1465,1850,cs),
(1465,1780,o),
(1412,1727,o),
(1339,1727,cs),
(928,1727,ls),
(716,1727,o),
(485,1644,o),
(485,1506,cs),
(485,1409,o),
(594,1340,o),
(779,1199,cs),
(838,1154,ls),
(1029,1008,o),
(1231,864,o),
(1231,593,cs),
(1231,168,o),
(715,20,o),
(413,20,cs)
);
},
{
closed = 1;
nodes = (
(1370,1792,o),
(1397,1819,o),
(1397,1852,cs),
(1397,1885,o),
(1370,1912,o),
(1337,1912,cs),
(1304,1912,o),
(1277,1885,o),
(1277,1852,cs),
(1277,1819,o),
(1304,1792,o),
(1337,1792,cs)
);
}
);
vertWidth = 0;
width = 1277;
},
{
associatedMasterId = m01;
layerId = "A440414B-586A-40A5-AE6A-EB7CED442D21";
name = background;
shapes = (
{
closed = 1;
nodes = (
(235,0,o),
(412,59,o),
(412,219,cs),
(412,320,o),
(359,378,o),
(274,437,cs),
(187,498,o),
(133,537,o),
(133,590,cs),
(133,659,o),
(238,713,o),
(329,713,cs),
(484,713,ls),
(499,713,o),
(511,728,o),
(511,744,cs),
(511,772,o),
(487,772,o),
(482,772,cs),
(330,772,ls),
(177,772,o),
(72,684,o),
(72,586,cs),
(72,501,o),
(141,457,o),
(235,391,cs),
(320,330,o),
(353,286,o),
(353,217,cs),
(353,99,o),
(196,59,o),
(119,59,cs),
(0,59,ls),
(-15,59,o),
(-29,44,o),
(-29,29,cs),
(-29,0,o),
(-2,0,o),
(0,0,cs),
(119,0,ls)
);
}
);
vertWidth = 0;
width = 594;
}
);
},
{
color = 7;
glyphname = T.ss04;
kernLeft = KO_T.ss04;
kernRight = KO_T.ss04;
layers = (
{
layerId = m01;
shapes = (
{
closed = 1;
nodes = (
(738,0,o),
(748,55,o),
(753,86,cs),
(1061,1848,l),
(1648,1848,ls),
(1714,1848,o),
(1736,1887,o),
(1736,1928,cs),
(1736,1968,o),
(1714,2008,o),
(1648,2008,cs),
(337,2008,ls),
(267,2008,o),
(246,1968,o),
(246,1928,cs),
(246,1887,o),
(267,1848,o),
(337,1848,cs),
(883,1848,l),
(579,95,ls),
(570,42,o),
(598,0,o),
(660,0,cs)
);
},
{
closed = 1;
nodes = (
(610,20,o),
(592,48,o),
(599,91,cs),
(907,1868,l),
(337,1868,ls),
(280,1868,o),
(266,1894,o),
(266,1928,cs),
(266,1962,o),
(280,1988,o),
(337,1988,cs),
(1648,1988,ls),
(1701,1988,o),
(1716,1961,o),
(1716,1928,cs),
(1716,1894,o),
(1701,1868,o),
(1648,1868,cs),
(1045,1868,l),
(733,90,ls),
(728,59,o),
(722,20,o),
(660,20,cs)
);
},
{
closed = 1;
nodes = (
(1000,1876,o),
(1017,1893,o),
(1017,1915,cs),
(1017,1937,o),
(1000,1954,o),
(978,1954,cs),
(956,1954,o),
(939,1937,o),
(939,1915,cs),
(939,1893,o),
(956,1876,o),
(978,1876,cs)
);
}
);
vertWidth = 0;
width = 1493;
},
{
layerId = m002;
shapes = (
{
closed = 1;
nodes = (
(869,0,o),
(928,69,o),
(940,141,cs),
(1207,1690,l),
(1717,1690,ls),
(1828,1690,o),
(1891,1762,o),
(1891,1845,cs),
(1891,1937,o),
(1822,2008,o),
(1717,2008,cs),
(406,2008,ls),
(304,2008,o),
(233,1937,o),
(233,1845,cs),
(233,1762,o),
(295,1690,o),
(406,1690,cs),
(854,1690,l),
(590,179,ls),
(573,81,o),
(648,0,o),
(756,0,cs)
);
},
{
closed = 1;
nodes = (
(669,40,o),
(617,96,o),
(630,173,cs),
(902,1730,l),
(406,1730,ls),
(316,1730,o),
(273,1779,o),
(273,1845,cs),
(273,1918,o),
(323,1968,o),
(406,1968,cs),
(1717,1968,ls),
(1803,1968,o),
(1851,1918,o),
(1851,1845,cs),
(1851,1780,o),
(1807,1730,o),
(1717,1730,cs),
(1173,1730,l),
(900,149,ls),
(890,89,o),
(848,40,o),
(756,40,cs)
);
},
{
closed = 1;
nodes = (
(1083,1796,o),
(1110,1823,o),
(1110,1856,cs),
(1110,1889,o),
(1083,1916,o),
(1050,1916,cs),
(1017,1916,o),
(990,1889,o),
(990,1856,cs),
(990,1823,o),
(1017,1796,o),
(1050,1796,cs)
);
}
);
vertWidth = 0;
width = 1664;
}
);
},
{
color = 7;
glyphname = U.ss04;
kernLeft = KO_U.ss04;
kernRight = KO_H.ss04;
layers = (
{
layerId = m01;
shapes = (
{
closed = 1;
nodes = (
(553,-20,o),
(858,442,o),
(1103,906,c),
(961,98,ls),
(950,33,o),
(994,0,o),
(1044,0,cs),
(1084,0,o),
(1128,26,o),
(1137,79,cs),
(1461,1915,ls),
(1470,1968,o),
(1445,2008,o),
(1376,2008,cs),
(1315,2008,o),
(1290,1966,o),
(1283,1927,cs),
(1214,1537,l),
(1149,1259,o),
(1027,1073,o),
(923,905,cs),
(785,676,o),
(482,143,o),
(246,143,cs),
(114,143,o),
(145,357,o),
(180,555,cs),
(419,1910,ls),
(428,1960,o),
(398,2005,o),
(344,2008,cs),
(289,2008,o),
(250,1961,o),
(241,1909,cs),
(4,566,ls),
(-68,157,o),
(32,-20,o),
(222,-20,cs)
);
},
{
closed = 1;
nodes = (
(46,0,o),
(-46,163,o),
(24,562,cs),
(261,1905,ls),
(269,1952,o),
(300,1988,o),
(344,1988,cs),
(385,1985,o),
(406,1954,o),
(399,1914,cs),
(160,559,ls),
(125,359,o),
(90,123,o),
(246,123,cs),
(495,123,o),
(803,666,o),
(941,895,cs),
(1043,1063,o),
(1167,1251,o),
(1234,1533,c),
(1303,1923,ls),
(1309,1958,o),
(1327,1988,o),
(1376,1988,cs),
(1432,1988,o),
(1449,1962,o),
(1441,1919,cs),
(1117,83,ls),
(1109,40,o),
(1077,20,o),
(1044,20,cs),
(1003,20,o),
(972,43,o),
(981,94,cs),
(1131,951,ls),
(1140,1001,o),
(1130,1002,o),
(1106,955,cs),
(859,479,o),
(551,0,o),
(222,0,cs)
);
},
{
closed = 1;
nodes = (
(356,1876,o),
(373,1893,o),
(373,1915,cs),
(373,1937,o),
(356,1954,o),
(334,1954,cs),
(312,1954,o),
(295,1937,o),
(295,1915,cs),
(295,1893,o),
(312,1876,o),
(334,1876,cs)
);
}
);
vertWidth = 0;
width = 1219;
},
{
layerId = m002;
shapes = (
{
closed = 1;
nodes = (
(582,-20,o),
(835,242,o),
(1044,580,c),
(974,174,ls),
(954,57,o),
(1040,0,o),
(1137,0,cs),
(1214,0,o),
(1303,40,o),
(1319,131,cs),
(1619,1837,ls),
(1636,1935,o),
(1572,2008,o),
(1453,2008,cs),
(1358,2008,o),
(1283,1955,o),
(1269,1875,cs),
(1230,1651,l),
(1189,1468,o),
(1056,1150,o),
(980,1008,cs),
(893,837,o),
(561,298,o),
(361,298,cs),
(322,298,o),
(328,386,o),
(360,568,cs),
(579,1831,ls),
(597,1933,o),
(521,2008,o),
(421,2008,cs),
(310,2011,o),
(243,1917,o),
(232,1856,cs),
(13,607,ls),
(-64,167,o),
(72,-20,o),
(311,-20,cs)
);
},
{
closed = 1;
nodes = (
(96,20,o),
(-20,181,o),
(53,599,cs),
(272,1850,ls),
(281,1899,o),
(332,1971,o),
(421,1968,cs),
(502,1968,o),
(552,1916,o),
(539,1839,cs),
(320,576,ls),
(287,388,o),
(277,258,o),
(361,258,cs),
(587,258,o),
(928,819,o),
(1016,990,cs),
(1092,1134,o),
(1227,1456,o),
(1270,1643,c),
(1309,1867,ls),
(1320,1929,o),
(1373,1968,o),
(1453,1968,cs),
(1551,1968,o),
(1593,1920,o),
(1579,1843,cs),
(1279,137,ls),
(1267,70,o),
(1204,40,o),
(1137,40,cs),
(1055,40,o),
(998,78,o),
(1014,168,cs),
(1096,644,ls),
(1113,744,o),
(1104,760,o),
(1041,653,cs),
(832,297,o),
(576,20,o),
(311,20,cs)
);
},
{
closed = 1;
nodes = (
(441,1796,o),
(468,1823,o),
(468,1856,cs),
(468,1889,o),
(441,1916,o),
(408,1916,cs),
(375,1916,o),
(348,1889,o),
(348,1856,cs),
(348,1823,o),
(375,1796,o),
(408,1796,cs)
);
}
);
vertWidth = 0;
width = 1391;
}
);
},
